<mxfile host="app.diagrams.net" modified="2022-01-21T05:18:17.318Z" agent="5.0 (Macintosh; Intel Mac OS X 10_15_7) AppleWebKit/537.36 (KHTML, like Gecko) Chrome/97.0.4692.71 Safari/537.36" etag="Hhlc0bP6WJEL6xTuAbTE" version="16.4.3" type="github">
  <diagram id="0atRlcSpEWFggwIPoWXC" name="Page-1">
    <mxGraphModel dx="2893" dy="1129" grid="1" gridSize="10" guides="1" tooltips="1" connect="1" arrows="1" fold="1" page="1" pageScale="1" pageWidth="827" pageHeight="1169" math="0" shadow="0">
      <root>
        <mxCell id="0" />
        <mxCell id="1" parent="0" />
        <mxCell id="_O8IFR58VVRksWFW_hs8-38" value="" style="rounded=0;whiteSpace=wrap;html=1;strokeColor=#000000;" vertex="1" parent="1">
          <mxGeometry x="-610" y="380" width="2070" height="1030" as="geometry" />
        </mxCell>
        <mxCell id="_O8IFR58VVRksWFW_hs8-32" value="" style="rounded=0;whiteSpace=wrap;html=1;strokeColor=#FFFFFF;" vertex="1" parent="1">
          <mxGeometry x="1180" y="370" width="1790" height="1093" as="geometry" />
        </mxCell>
        <mxCell id="_O8IFR58VVRksWFW_hs8-2" value="" style="shape=image;verticalLabelPosition=bottom;labelBackgroundColor=default;verticalAlign=top;aspect=fixed;imageAspect=0;image=data:image/png,iVBORw0KGgoAAAANSUhEUgAABv8AAAQ7CAYAAACoi7I4AAABRmlDQ1BJQ0MgUHJvZmlsZQAAKJFjYGASSSwoyGFhYGDIzSspCnJ3UoiIjFJgf8bAyCDKwMUgwMCemFxc4BgQ4ANUwgCjUcG3a0DVQHBZF2SWcjfDlqjT53psT5+LilO99g9TPQrgSkktTgbSf4A4LbmgqISBgTEFyFYuLykAsTuAbJEioKOA7DkgdjqEvQHEToKwj4DVhAQ5A9k3gGyB5IxEoBmML4BsnSQk8XQkNtReEODxcfVTCDEyL9Q1MiDgXNJBSWpFCYh2zi+oLMpMzyhRcASGUqqCZ16yno6CkYGREQMDKMwhqj/fAIcloxgHQqxAjIHB0oWBgXkxQixJioFhO9D9kpwIMZXlDAz8EQwM2xoKEosS4Q5g/MZSnGZsBGFzb2dgYJ32///ncAYGdk0Ghr/X////vf3//7/LgObfYmA48A0AQoteq8HtftIAAAA4ZVhJZk1NACoAAAAIAAGHaQAEAAAAAQAAABoAAAAAAAKgAgAEAAAAAQAABv+gAwAEAAAAAQAABDsAAAAAO4ocfQAAQABJREFUeAHs3Qe4JFWdN+BDEJEkksMiyKKfShIGBcyYAFEUDCRJwsAokllRVwWzggGERWZQWUBwXUURQUFZQBBRcBQFdU2AIBkRRRmi9+tfuXXtudx8u+/t8J7nmbnd1VWnTr11uvpU/eucWmSgkcow6Z577qmmrrDCCsN8Ov5JDzzwQDXzkksuOf6FRpizVWVK9so1AvIIk3mNADPMZFbDoIwyidcoOMN81IlenVim0CnXMBVolEm8RsEZ8hGrISBjvOU1BtCQj1vlpd08BHaMt7zGABrycSd6dWKZwqZcpXzzm98sr3zlK4fUouHf8hreZbiprIZTGXkar5FthvukE706sUyxU67hatDI03iNbDP0E1ZDRUZ/z2t0n6GftsqrVeevKV+rypS8lCsKpSzy/Oc/f+D+++//xzv/EyBAgAABAgQIECBAgAABAgQIECBAgAABAgQIECDQlQJLLbVUWTyBv/nz53flBig0AQIECBAgQIAAAQIECBAgQIAAAQIECBAgQIAAAQL/EJg1a1ZZFAYBAgQIECBAgAABAgQIECBAgAABAgQIECBAgAABAr0hIPjXG/vRVhAgQIAAAQIECBAgQIAAAQIECBAgQIAAAQIECBDQ808dIECAAAECBAgQIECAAAECBAgQIECAAAECBAgQINArAnr+9cqetB0ECBAgQIAAAQIECBAgQIAAAQIECBAgQIAAAQJ9LyD41/dVAAABAgQIECBAgAABAgQIECBAgAABAgQIECBAgECvCAj+9cqetB0ECBAgQIAAAQIECBAgQIAAAQIECBAgQIAAAQJ9LyD41/dVAAABAgQIECBAgAABAgQIECBAgAABAgQIECBAgECvCAj+9cqetB0ECBAgQIAAAQIECBAgQIAAAQIECBAgQIAAAQJ9L7B43wsAIECAAAECBAgQIECAAAECBAgQIECAQI8LzJs3r8ydO3dcWzl79uwyZ86chea1PD/1x/dnoYPCCG8cP1p//ByBetTJi2y66aYD8+fPH3UmHxIgQIAAAQIECBAgQIAAAQIECBAgQIAAAQIECBAg0NkCs2bNKob97Ox9pHQECBAgQIAAAQIECBAgQIAAAQIECBAgQIAAAQIExi0g+DduKjMSIECAAAECBAgQIECAAAECBAgQIECgOwUybKdEgAABAv0hIPjXH/vZVhIgQIAAAQIECBAgQIAAAQIECBAg0McC431eWx8T2XQCBAh0hEArbtYQ/OuIXakQBAgQIECAAAECBAgQIECAAAECBAgQIECAAAEC/S7Qips1BP/6vRbZfgIECBAgQIAAAQIECBAgQIAAAQIECBAgQIAAgZ4REPzrmV1pQwgQIECAAAECBAgQIECAAAECBAgQIECAAAECBPpdQPCv32uA7SdAgAABAgQIECBAgAABAgQIECBAgAABAgQIEOgZAcG/ntmVNoQAAQIECBAgQIAAAQIECBAgQIAAAQIECBAgQKDfBQT/+r0G2H4CBAgQIECAAAECBAgQIECAAAECBAgQIECAAIGeERD865ldaUMIECBAgAABAgQIECBAgAABAgQIECBAgAABAgT6XUDwr99rgO0nQIAAAQIECBAgQIAAAQIECBAgQIAAAQIECBDoGQHBv57ZlTaEAAECBAgQIECAAAECBAgQIECAAAECBAgQIECg3wUE//q9Bth+AgQIECBAgAABAgQIECBAgAABAgR6XmD27Nk9v402kAABAgT+ISD4pyYQIECAAAECBAgQIECAAAECBAgQIECgxwXmzJnT41to8wgQINAbAq24WUPwrzfqgq0gQIAAAQIECBAgQIAAAQIECBAgQIAAAQIECBDocoFW3Kwh+NfllUDxCRAgQIAAAQIECBAgQIAAAQIECBAgQIAAAQIECNQCgn+1hL8ECBAgQIAAAQIECBAgQIAAAQIECBAgQIAAAQIEulxA8K/Ld6DiEyBAgAABAgQIECBAgAABAgQIECBAYCyBefPmjTWLzwkQIECgRwQE/3pkR9oMAgQIECBAgAABAgQIECBAgAABAgQIjCQwd+7ckT4ynQABAgQ6SKAVN2sI/nXQDlUUAgQIECBAgAABAgQIECBAgAABAgQIEJi6wIMPPliuueaactFFF5XbbrvtMRnefvvt5bTTTnvM9KET5s+fX+UxdLr3BAgQaJdAK27WEPxr196RLwECBAgQIECAAAECBAgQIECAAAECBAhMu0CCfi960YvKq1/96nL44YeXWbNmlfvvv3+hctx8883lhBNOWGjacG+uuOKKcu655w73kWkECBDoWIHFO7ZkCkaAAAECBAgQIECAAAECBAgQIECAAAECBCYgsGDBgrL//vuX1VZbrZx//vllxRVXLNddd11ZYoklJpCLWQkQINDdAoJ/3b3/lJ4AAQIECBAgQIAAAQIECBAgQIAAAQIE/k/gqquuKunV97nPfa4K/GXyBhtsMOizxx57lEceeaTce++95e677y677rpr9dnznve8csABB1Svf/Ob35Sjjjqqen3jjTdWvQbr+fbdd9/ykpe8ZDA/LwgQINCJAoJ/nbhXlIkAAQIECBAgQIAAAQIECBAgQIAAAQIEJixw0003Vcust956wy679dZbl0cffbQkqHf99deXbbbZpprvKU95yuD8yy+//OD0iy++uNx1112D79daa63B+bwgQIBApwoI/nXqnlEuAgQIECBAgAABAgQIECBAgAABAgQIEJiQwOqrr17N/7//+7/lWc961mOW3W233appV199dfUsv/QEHJpWXnnlUk9PD8Hf/va3g++Hzus9AQIEOlFg0U4slDIRIECAAAECBAgQIECAAAECBAgQIECAAIGJCmy55ZZljTXWKP/2b/9Wfvazn1VDe37hC18oDz/88ESzMj8BAgS6VkDPv67ddQpOgAABAgQIECBAgAABAgQIECBAgAABAs0CSy+9dPn85z9fDj744MGhOldbbbXyhje8oXm2suGGG5azzz57oWnDvUkPwIceemi4j0wjQIBAxwoI/nXsrlEwAgQIECBAgAABAgQIECBAgAABAgQIEJiowEYbbVQuueSS6ll9Dz74YMlQoIsttthC2Sy55JJl7bXXXmjacG/y/D+JAAEC3SYg+Ndte0x5CRAgQIAAAQIECBAgQIAAAQIECBAgMEGB2bNnT3CJ7p89z+6TCBAg0I8CnvnXj3vdNhMgQIAAAQIECBAgQIAAAQIECBAg0FcCc+bM6avttbEECBDoVoFW3Kwh+Nete1+5CRAgQIAAAQIECBAgQIAAAQIECBAgQIAAAQIEekqgFTdrCP71VJWwMQQIECBAgAABAgQIECBAgAABAgQIECBAgAABAv0sIPjXz3vfthMgQIAAAQIECBAgQIAAAQIECBAgQIAAAQIECPSUgOBfT+1OG0OAAAECBAgQIECAAAECBAgQIECAAIHHCsybN++xE00hQIAAgZ4UEPzryd1qowgQIECAAAECBAgQIECAAAECBAgQIPBPgblz5/7zjVcECBAg0LECrbhZQ/CvY3evghEgQIAAAQIECBAgQIAAAQIECBAgQIAAAQIECPSTQCtu1hD866caY1sJECBAgAABAgQIECBAgAABAgQIECBAgAABAgR6WkDwr6d3r40jQIAAAQIECBAgQIAAAQIECBAgQIAAAQIECBDoJwHBv37a27aVAAECBAgQIECAAAECBAgQIECAAAECBAgQIECgpwUE/3p699o4AgQIECBAgAABAgQIECBAgAABAgQIECBAgACBfhIQ/OunvW1bCRAgQIAAAQIECBAgQIAAAQIECBAgQIAAAQIEelpA8K+nd6+NI0CAAAECBAgQIECAAAECBAgQIECAAAECBAgQ6CcBwb9+2tu2lQABAgQIECBAgAABAgQIECBAgAABAgQIECBAoKcFBP96evfaOAIECBAgQIAAAQIECBAgQIAAAQIECBAgQIAAgX4SEPzrp71tWwkQIECAAAECBAgQIECAAAECBAgQ6EuB2bNn9+V222gCBAj0o4DgXz/uddtMgAABAgQIECBAgAABAgQIECBAgEBfCcyZM6evttfGEiBAoFsFWnGzhuBft+595SZAgAABAgQIECBAgAABAgQIECBAgAABAgQIEOgpgVbcrCH411NVwsYQIECAAAECBAgQIECAAAECBAgQIECAAAECBAj0s4DgXz/vfdtOgAABAgQIECBAgAABAgQIECBAgAABAgQIECDQUwKCfz21O20MAQIECBAgQIAAAQIECBAgQIAAAQIEHiswb968x040hQABAgR6UmDxqW7VC17wgnL//fdPNRvLExhWYKmlliqXX375sJ9NZaJ6OxU9y44l0K56m/Wqu2Pp+3wqAu2qu+rtVPaKZccSaEe9VWfHUvf5VATaUWdTHvV2KnvFsmMJtKPeqrNjqft8KgLq7FT0LDsTAu2os8Ntx9y5c8t+++033EejTnPMHpXHhwQIEBi3wHiP97lZYzLH6+aCTDn4l8Df/Pnzm/P0mkDLBGbNmtWyvJozUm+bNbxutUC76m3Kqe62em/Jr1mgXXVXvW1W9rrVAu2ot+psq/eS/JoF2lFnk79626zsdasF2lFv1dlW7yX5NQuos80aXneDQDvqbCu32zG7lZryIkCgnwXGe7yf7M0azbaG/WzW8JoAAQIECBAgQIAAAQIECBAgQIAAAQIECBAgQIBAFwsI/nXxzlN0AgQIECBAgAABAgQIECBAgAABAgQIECBAgAABAs0Cgn/NGl4TIECAAAECBAgQIECAAAECBAgQIECAAAECBAgQ6GIBwb8u3nmKToAAAQIECBAgQIAAAQIECBAgQIAAAQIECBAgQKBZQPCvWcNrAgQIECBAgAABAgQIECBAgAABAgQIECBAgAABAl0sIPjXxTtP0QkQIECAAAECBAgQIECAAAECBAgQIECAAAECBAg0Cwj+NWt4TYAAAQIECBAgQIAAAQIECBAgQIAAAQIECBAgQKCLBQT/unjnKToBAgQIECBAgAABAgQIECBAgAABAgQIECBAgACBZgHBv2YNrwkQIECAAAECBAgQIECAAAECBAgQINCDArNnz+7BrbJJBAgQIDCcgODfcCqmESBAgAABAgQIECBAgAABAgQIECBAoIcE5syZ00NbY1MIECDQuwKtuFlD8K9364ctI0CAAAECBAgQIECAAAECBAgQIECAAAECBAgQ6CKBVtysIfg3xR3+yCOPlAULFkwxF4sTmJrAo48+Wu6///6pZWJpAl0gcN9995Vf/OIX5YEHHliotI7FC3F400aB1L2HH364jWsYPuu0NVLP25H8hrRDtbfz/Pvf/161O/JXIkBgcgIPPfTQY9ozI+XkOzeSTPdNn6l2xFSlBgYGquN+2gzjSQ8++GDJP2l6BCa6f6anVN2zlokcj7NV7WyXd4+akhLofAHXiTp/Hylh+wUE/6ZoPHfu3LLppptOMReLE5iawNe+9rWy3nrrVRcQckL50pe+tJxxxhnjyvSOO+4oJ554Yjn88MPLEUccUVKnZ+Ji3mWXXVaOP/748tOf/nTYct97773V51/5yleG/dzE3hc455xzykYbbVRe9rKXlYsvvnihen7yySeXWbNm9T6CLZxxga222qocc8wx016OZzzjGeW0005ry3qbf0PasgKZ9pzAT37yk6rd8atf/arnts0GdbdA2pL1v+uvv76jN+ad73xnef3rXz+uMvrOjYvpMTPV5xepEyeddFK54IILyq233vqY+aZzwky1I6a6jbfddlt13P/ud787rqz23nvvcsABB4xrXjNNXWDo/jn44IPLIYccMq6MEzj89re/XY4++uhy0EEHVX+vu+66cS3bKzNN5HicbW5nu7xXTG0HgU4QcM2+E/aCMsy0gOBfm/dA7nb7wAc+UH70ox8Nrun3v/99OfTQQ8vf/va3wWleEGiVwOKLL17WXXfdstJKK42ZZS4kPO95zyuf/vSny+23315SNz/84Q+XnABMd7rkkkvKxz72sfLBD35w2FV/4QtfqD7/4he/OOznJva+wPvf//7ywhe+sFxzzTXl+c9//qj1/Hvf+96Idan3pWwhAQIEukdguLZy95ReSTvtvObSSy+t2otnn312+eMf/2gH9blAzi8++clPlm9961sl5xD7779/2WKLLarzc6P39Hnl6PHNX2uttcq//Mu/jGsr873Ya6+9SgK7GWXlwgsvLOeff/64ljVTdwrMmzevOwuu1AQIECAwYQHBvwmTTWyBBPg+85nPlLvuumtwwdxF9aUvfaltw3cNrsiLvhRI8O+UU04p22677Zjbnztgn/jEJ5Yf//jH5cwzzyxf/vKXy9VXX10WWWSRMZdtxwxZ7xVXXFH+93//d6HsM8TeqaeeWhZbbLGFpnvTPwIZriEB6le84hVllVVWKcstt9yo9Tx3do/3zuT+UbSlBAgQ6DyB4drKnVdKJRpJoNPOa04//fSqqAceeGB59rOfPVKxTe8jgdVXX73q8Xf55ZeX3/zmN+Woo46qzive9a539ZGCTe03gYzok39jpZx3n3feeVVvvwTLc86d8/H03JR6VyC9oSQCBAgQ6HyBVtyssXjnb2Z3lPAHP/hByQ7JxeltttmmvO1tbyu//OUvB4cGS5Alw2plmI8EWZIyFMO//uu/lve85z3V/K95zWvKtddeW3LHai5s77vvvuXFL35xNa//ulsg9SHBuB/+8Idl/vz51fCEOeHMEJZf//rXq552GRYl9aNO5557bhUkznCX6eWUYTue8IQnVB+nnh177LHl5z//edX76elPf3q9WPU3eb3uda8rL3nJS8o999xTDeV51VVXVWPTb7755uXf/u3fyjLLLFM9hyEX3ZqDfQms1Ck9AM8666zqhDkB7A022KDqGbjEEkuUX//61+U//uM/qr9PetKTqu3bbbfdyqKLLlpuuOGG8pGPfKTsvvvu1fJrrrlmefe7313dgZ1yZ2jPrOetb31rSXnqlO3485//XD73uc9V21dPzwnJ3XffXZ773OcuFDRPb4HjjjuupJfX8ssvX3bZZZeSoSHz3Vp//fWrHo2Pe9zjSv7l7sVPfOITlVedr7/dIZBhu9IjNSk9QBPUyzCfubBX1/PmLfnoRz9a/ud//qeq+/vtt181TOgb3/jGUetfer+qK82KXtcCuVknv98ZUnnHHXesJw/+HelYmDunc6zNndQ5diWlHi+77LJV3c37HP/zu5Dp+Z141ateVd2MkYsuOUb++7//ezXEVuYdmkZab47BGbo5Q4RmCKccuzMs9Dve8Y6yzjrrVNmM9RsydF3ed79AAjQnnHBCufHGG0t+a9/+9rdXN9S8973vrX6rX/CCF1QbmRst8huaGy0yLReHhms/DBVJW3aTTTYZ/I5kWL2jG8OHZT2pf6mvyStt4xxrt99++7LPPvtU7Zh6GN26rZzh+dLeGa0dNHT93rdfIHXnU5/6VLUPV1tttaoH1Z133lm12bL2oec1dbs3+/6//uu/qvZb2o25uJwb1XbYYYey6667Vm3QkepH8k0PlNzQkzqT9mGeN5YH3+ccKj268hzg1L20M5deeuksslCql99pp50Gz9W222678pa3vKVqsy40c9ObybTdc8zNb8bNN99cnvzkJ5c3v/nNg8f/ZJ0b7PI9uOWWW6reZ3nGVJ3yPfvsZz9bta3zHUnKvHmmd0aMGS75jgynMvq0nMPk2JNzn9SZ1ME6SDyaZ/Zp2oo591phhRXKnnvuWV7+8pdX9frzn/98df6ec65nPvOZ1Tlb9n+dxmpHpIfqSOdHzfWw/i7V+Tb/rev5RL4n9SMVchNoPHJOliEf6+9RzrNyPE7QNOdZybs5jXXcb543r0fbzqHz9uL7yeyj0czG2j/Zd49//OOr4+Vo7cLkk5RjTZ3Slmy+JjDZ+j/S+dVo37W6DM1/m/PJdYE11lijamNnqNMcN/NblDZ0fhvqNJXjcb4bab/U1xSS56WNa3T5LufG/uHScO2sXAORCBAYXSC/JWnT5Zw5KSM35PuWY1iORTl3SPsz13jy+zvad7s+zubaejpE5BrQ0JS2ZM6/c26cEdNG+u6OdE1zaH7eE2i3QM4Hcl1zKknPv6no/d+yucCXA0eGT8yFtRyUMrTIUkstNRhoyB2Hufix8sorl7xOyoGmPjH45je/WZ0o5AQ2FxfT+EogJQciqfsFsn9zMpWT+QT4/vM//7O89rWvrS7OvvKVr6yGgM2X+S9/+Uu1sXleXwJ4OYHMs0By0eTII4+sPkuwLhctvv/971eBjxVXXHEwyFxLJdCVH6ukBBvzvItchMmFltwRnYBZ0pve9Kby17/+tcovF2OGplx4ri8Y5+Q4J7W56JJ6mguDN910U/WD+pSnPKVknPyPf/zjVRZpMKdhngZzvgf5kc7QOmmUpzxZb4KPb3jDG8rvfve7wdXmxz13GeYH/09/+tPg9PxwxytBxuaUIUry2YsbQfLnPOc51XMLs948xzApF1ISJEoA82lPe9qoF3ma8/W6swSWXHLJqkGYUq266qqDwZDmet5c4gxxk4sUOeHNcTdD4I5V/9SVZkGva4FcUMhF1wydlJOIXODLEHd1Gu1YmF7VuaEnNyQkpa2QhlsCHDmOJuXYlGNwUv07kWNfjnc5Vubi9HBptPVm/rQhEujJBc1cfM5QufVzd8bzGzLcOk3rXoHUl/z+5oaeXLDOBeT8/uY3NZ81P0syF3kT7M5J+Gjth6EaeQ5rTs7rlPqe3+O0G5LSjsm03KSTG4lyop9lhmsrpy0wWjuoXoe/0yeQoHDqTgIfe+yxR/X83VxsTftupPOa3OSWm3dybpSUdnDabGnDps2W9mUupCaNVD/y2W9/+9vy3//931VbN8+0zjFz9uzZVdAmbeC0q1NfElgcLmX5jGyR8uRcbe211y4f+tCHqotHw81fT6uPyRNpu+fCVdq3OYdLYC/fs7TBk3LjW25YSls/gcjYpL1bpwQE851pfu52voO5wXS45DsynMr4p2XfJMU4aTTPBL5T9/K4hOzDBJvr50mmXufcP8+kTp6ZJzcC10POjtWOGKt9mno49LtUFXjIfxP9nqSdkHPD1Ln8zfco54g5R6sf/5A2SG5urs+z0mOyOY113G+ed6ztbJ63V19PdB+NZTbW/snF7frRM6O1C/ObnDqd8/j3ve99g7/b9X6YSv0f7vxqtO9avc6hf5NPbhS68sorq/ZMroPkeJtrDQlap52ex0PkhuCkrCOfT/Z4nBv+8t3I71yd4pBpw6WR2lnNN3gMt5xpBAj847w1Abk65Xw77aN8r5IS0Mtva85bxvpu5zibc+/8bqa9l+tIzSnDf+ccZNNNN62ux4/23R3ummZzXl4T6CqBRqVvtO8mn6a6/OTX3BlLnnjiiQONk96BxslwVaDG8IQDG2644UCjcVy9bzT8q88bDffBAjcaDdW0xsFkcFojeDLQuCth8H2jgTbQaIgNNE6MB6f144t21a925TvSPsr+bTTQBz9uBPoGGneCDfzhD3+opjUatFWdaDTSBxoXhQcaQb+BRgN2cP5Gb6dq/kZDdKBx4WSgEdwYaFyAHvy88eNWLd84SaimNX7oBhonm9Xr1KXkmdS4eDPQCK4NNC5iV+/zXyPoN9B49kW1fCPQONBo2FafNYbFGWjcVTfQ+CEenLd+0biYPNC4gDLQaNDWkwYaJwsDjQs8A427Bwcad5BW+TVOhgc/T3kaAe+BRi+UalrKMmvWrIF6nkYPgYGXvexlA40L39V8+W4l1TY/+9nPBhrBvoFGcLyanu9cvnuNCzrV+/zXuIuwmtbo9VVNa1x8GXjqU59a5Tk40zS8aGf9amfe00Az6VWkrmV/Ny4ADubRXM8bgY6BxoPXBz9rBK6r+lRPGKv+zVRdqcvXKX/bVb/alW873XLcTJ067LDDBlfT6DE30LjAMNB4Nmk1baxjYaNX1UDjokQ1byNYPfCsZz1roHHTz0Cj98dAjtc5Zua4lZTfiUZvhOp1/suxN3W+caG4mtZc38dab8reCPJVyzUuJA80boKofkNyfB7Pb0i1YBf914761Y48Z4o09aVxo9FgW6Bx001VtxpBiYHGXbVVPWwE5qriNXqZDDQuXFevR2s/NC4oVnk0TpqreRu9Wwe/F5nQGEas+jztmqRGwKb6m//Slmn0zh/8/R/aVh6rHTSYURe/aFf9ale+qR9peza3TWv+kc5rGjcxDNa5xs2MVX246KKL6sUGGjckDLZHR6sf9blW6m3Sr371qyqvww8/fDCvRjBt8Dwqx8zm9kK9fCM4Xc1fn6vl+JyU9miOjfW/us080bZ7fi8aN4tUeea/HHvzXUrbOinfw8ZIHgNZf1LW0xihY6ARDK3ef/WrX63Kne9HnRpBzsHtav7OzdR3pB31qx151n75m/OL+ne4eXpeN24MrM61x/JsjFQysNlmmw3+rtb51PW6uW2a85zUncZoI9U+HqsdMVb7NHk1f5ey7rqu5m99LlbX8/F+T9IWSHumPu9Lvo3eFFUdbARYBuptaz7Pqr/r9XnWWMf9xs0eg+2asbYz629Hakf9mmyeE91Ho5mNZ/80+6eOj9QujHuOwY0hQqu2Ys6d0wbNMSxpsvU/yw49vxrruzbS8Tj55DtY1/fG0KRVXW0ECLKa6jvRuGlpoNE7aPB7N5XjcaNHYZV/I8Bd5Z//ss78DtZpaLt8pHZWPf94/062fo03/3q+ya5nssvV6/WXwFCBRseZ6vuWa6ON0b6qa5CNG1irc5TM27jpZvC3eqy2Vn2czTlOnTKtMerJQH678h3+2Mc+Vn9Utc1G+u4Od01zcEEvCLRAYLzH0/HON1KRsrxhP1sQqs1dy+mhlZRhbHLnUd2DayLZ10MuZZkMd5Q807NK6g2BRlB4cENSRzJkUj0URIauSEq9yZ2/6fmRu12+853vVNNzl3PuBM7QFrmz/v/9v/832Gs0MzQuKFfzDfdfls1dfLlTrnGCV/L8vAyJWafczZm7kjMcbe5cTY+TSxq9ANNjpXHwqHoL1vPWf3Pnd3r+1cMSZXrqb3rZZViQOiXvOjVOUqp1Nw+bl6E8m+fPvOmxlTtn0zsyPfsaJz7VHX3Nfpmvfi5ghtyp03AOmZY8pf4WGE/9U1f6u44M3foMjZk7/ho3JQx+lJ6n9fE6E8c6Fub41LjAVvUWbFz0ru6uT6+rHGNzV3HjIkh1R329gsYNEfXL0rjgV71OGTJUaHMaa70ZVSDrzSgE6Z2Q34GkrHOivyHN6/W6OwVy/Ev7ov5Nzm97UtqYGV0gd9Pnrtr0/kidadzAVn0+Vvuhmmmc/+VO3MbJd9X7KUOCpk2TXqjDpbHaQXVPsuGWNa09Auk9kfZbhjvLEIEZtr25/TXcWl/4whcOjriQY1ZShplNmzQpPaPqO7LHqh8ZhjAjpiQ1LtxUf5uPl2lP13eIVx8O+S/navUQ+TlXyzEyw8wn5Q7wtDnr1LjAW7beeuvqbXPbc7S2e9rnQ38vMoxihu1Pr8OklC+/J1l/Unq4brzxxlVP3GrCBP7zHZkA1giz5lwrvZFTr8byTO/51InUo+ZU93au60s+y2gTjYuT1bMFx9OOGE/7tPm7lHOn9DKsU3ptZQi0pIl8T1L2jIrSCGDUWVX1NW/STqmH/mz+nqe+TjaNZzsnm3c3LTeRfTSa2XDnwaPtn7Q3R2oXZijclCtDz2YkohyjMyRuegtm2NnJ1v96vzSfX431XUtP05GOx/le1dcecjxOqn8Hsg0ZYSttnek+Hqcco7Wz8rlEgMDIAvmNy4hNuSaZ73iudWbEkpwvZ6SH9GBOu3M83+2sJe2s+pEb9VpzzpHjW3rvZ0jfOo323a2v8dfnT/Uy/hLoRgHBvxbstboRUme12GKL1S8n9Hfocmm81Bf/JpSRmTtSoLme5IS/+X3zvq+fv5eLLBkWqTmlUZvgXT1P/Vka5yOlBNDyQ5mLefkBy1BwacQ3p5QlQ2OkvmVIrpxE1hcH67/N82f9OYloTilXUi7kpO4mNV+wzjIpf7rgN6fG3dnNb6vXeRZHuvQnIJnhboYbWz8XsZOaLYZzyAUricB46p+6op40CzTuLq7eNh9jMqE5YJHPRjsWZiiiHAfz3IIMj5VnluTCdYYNynJbbrnlQsfJkX4XmsuV12OtN89IyLE+Q9vldyTH/Dw3NmmivyHVQv7raoHUl1wgy3BuzSk3AiWYnZt38vzJtE2SMkR40njaD9WMjf+yjrodkGmNHin1R1WbIDf1NO7ar4Ydz3DMOfkeKSWvpJHaQSMtZ3p7BTJk/Ktf/epq+OIMAZr2XC4Mj5SGtgEzX45DzdNzsSdtxrHqRx0wSx51PR3v8TLLNM+b983t7mxHo4d3Jlcpz12vU/Ny42m7J6jdnBq9WAYDnMMde4f+nmTZzBeXpObvUTXh//7zHWnWmNzrDHGZlAuEY3lmnwx3PlSvOfu5OeV9buQdbztirPOj5u9MhtptjIYyuLrm70bz6/F8T4a2X+r3I5V96HnWaMf9wQL+34vMO9Z2Dl2mF99PZB+NZlbf7FDX3VgN3T/NfqO1C5vna/T6q4Z/ze9vzsVzjJ9s/a/zbT6/qss70u/7aMfj8drV62jF8bj+DmdbRjoe57Osc6R2Vj6XCBAYWSA31uRmqQT/knLTSYaiznP+Gr31qjZbfqvrRwmM9t3O8rmZobmdl2l5n5t90iEi10bra5CjfXdzs01S829wNcF/BLpQ4B9n+V1Y8G4pcn3QqQ9UKXfdGG+elum5s6E+kOVuvPS8yvjrUn8J5EJceqo1ho2pnhmR50bkXxqU+SFLozx3+zWG5axgcqKWh2aPlPKMkdyRmjySd8bMr9N3v/vdhRqy9R2tqaP1XaV5JlWd6sZ/7uBLUK6+azqfpwz5Ea1/SOtl6r+5Wy/blIt+9Tbl2Su5s2doyja++MUvrgKWyS/zD025WzUpFyzrNJpDPY+//SGQOlw/byVbPJH61x9CtnIsgfQkyTHxG9/4xuCseR5ac70a61iYC8c5eUkP5jy7pTHEcvU+x+UcQ/MMocmksdab/NPLJcGeHCsbw4wOrmaivyGDC3rRtQK58SfPAc7vav37mzZFfed8nj+W9kCev5ZnW9YX6kZrPwzFyEXd3D1bp/oEPu/r3qcJGOXkPRfQmke2GNpWHqsdVK/D3+kTSFszN12l51p6sqVHXC7IJI10XtNcuvwGJyUoUtfBXNxJW3Os+tGcTztep76nt1b9Lz1IJprSVl1llVWqZxPW53LxSo/afNeScizOiB71zWu5qJTflDpl/Uk5/0tKr7T0shwu+Y4MpzK+aTmXyUgluajYGIq1Gg1lLM/0qMpvdnp31ilBgUzPhcM8Q6hOOT9LYCb7fTztiIm2T/N9q+tq/k52dJO0I9LDr7mO5Twq29MYHqqqr9mm5nOr+hnG9baOdtyv56n/TnQ76+X6+e9oZvV58Gj7p9lutHZhY6i9hXpOpw4kAFz/Nk+2/jevv3491netU47HCbLnu1YfjxP8b27X1NtT/x2rnVXP5y8BAsMLpH2ZZ3bmhtm0E3PceeITn1j1SE7PwHQwGE9ba/jc/9FBofEoperjnPfU5/O+uyOJmd5rAnr+tXmP5u7RDBOWu61yl0GGVsqFtzSq8oDw9ArIsApJuTM/d1vngl3j2UDVnQlD79Juc3Fl3wECaWg2nvVY/bvjjjtKhnNJw3PFFVesTlZTJzJsR+6YazwnpLrYNjSQ3LwZ+eHMSWnuBqy7tdcXGHLimwuCCTLnYkd+bJ/S6P2XYGHucElvwA9/+MNVV/s01jNsXS4QHnnkkVVX/Fy4ycXrxvMlSh4qnnLVF4Gay5DXu+66a8lQSttvv31Vz3PSnOHFciKZgODQlC7+CYinDM13+tXzpQdBeivkDsEMBZDhyerhd+p5/O1fgZwUZ7il1KMEXyZa//pXzpbXAgncHXjggaXxXIDqTsP02MsxsrlXyHiOhTlO5uJMjn05zuY3Pu2CDHOX4ZMnk8Zab477n/zkJ0vjWbNVz4P58+cPrmaivyGDC3rRtQKN595UQ3rntz3Hwxwb87uZf0mZngt9ubCV9medRms/1PPUfxvPy6hu2Nljjz2qi9FXXHFF/VHVrkib4uijj66CHfltz/rqNFxbebR2UL2cv9MncOedd5bs4wwNm+BV2lv1+ctI5zXNpUtbNoHlDLWUuvGkJz2pqguN51BXdXO0+tGcz3heZ/SIpJNOOmnaRlDJeV3jWbDVsFTpHZnASi5ipWdf6nJSetDsvPPOlWFuBMn3oPn3JMGiBBDnzJlTte+///3vD158rzJo+m+sc4WmWb1sCOQu//wGp5fpjTfeWJk0njlZnYvnzVie2YcZgiwXJ/ObnmNozl0az5eu2pnpZZ/f2QTD0rM/+zIXF3P+MlY7Yqbap6mLOT984xvfWNnkpoy0VTK0WuPZaZVRzrPe+c53VjeO5jyy7m1Wfdj4b7Tjfj1P/XemtrNefzf+Hc0sdWys/dO8zaO1C3MtIPUh1wPWWWed6rw+wcKPfOQjVRaTrf/N669fj/Vdq+ebyt9WHI9zDpDvekbRyPEjAdIEy0dKY7WzRlrOdAIE/iGQ71t+b9IOyvEqx4oXN25abDwPuRqJJHON57s9mmfyzshiaY82niNa3bDluzuamM96SWCxRvT86AzrM9mUcbmnsvxk19tJy+WuvubhGXNnUE5yc1KQA1RO8NJDKie6uWshB500qnMCkhPmNLQSHGw8uL7qBZVnoeTgl3HX09Orn1O76le78h1pX6VOpB7kbpWkvM8zFnJnZZ3SyMwd8akn+cFLcCv1Js+kyPucjOXiSC6Y5bl8uQs7dSgXYvbdd9/qhDPL54eyeX0veclLqjutExzLMFs5+U2AL3nmInTqWC7kJO8EFPPcv/qu/wT2EkRJGdJrJevNBY3cDZchmrKeBChTj3Pim22sU/JIeeo6nIveWSYnwmlEp0dNyp3tTJmTcsKRciXleSxZZvfddx8cMinrS3ny/UrKtmQ9uXs603LRMXekJ+CTZypm/tzNk+2cztTO+tXOvKfTaDLryvE0vUVzcSWpuZ7ndfOxOPs8dSwX3hoPjK7qzWj1b6bqymQc2rlMu+pXu/Jtp0XyzjEtv9e5wSL1Lhe7U89y7M4xvH5GaerPSMfC3DiRIdzybLX8BqQe5/iUY2lz8K+5PtfblTseU+ezfPPnY603x9VcVM5djTmm5sQm5c8xOcfMsX5D6vV3y9921K925DlTngk252ahXNzNRevUyQRhUg+T0v5IcDt1Mr+rdRqt/ZB63Pw7n7Zs6ne+K+s0fstzY07aCqlzqXsvetGLqjZLlssQi+n1n/WlPZJpQ9vKubA5UjuoLl83/21X/WpXvmmPJeUcJfUlAaoME599l/089Lym+XhV76e0V1P3cqxMGzbHv/wup/05Wv3I8s2/73mf9dZ1K++zvpQhPQl///vfV0Mqp71Yt1mHLp9l0ntxuJvP8lnS0G3I+9Ha7llf2s1pL+fYmyGschNG/T1LT9tcrK+H+szNGZmnLndcE4hPmzz/EhjN/PmuZIjebHPzdy7H9un+jrSjfrUjz3/swX/+H/vsu9SPnCvktzzWzTcXjuaZOp7f8PTqTCA89SnBvdyYmYuT2T859uXGxsz3/ve/f3Co2bHaEWOdHw2th//cqse+GlrPR/uepFdXvn8578x3Mm2GtBXSQ7tO9XlW6nPOs+KW+fLdy3KjHffrwHZ6r6VNPtZ21uts9d921K+p5DmRfTSW2Vj7J5a1/2jtwhyjUq7UiRx7cu6c5/7VI+9Mpf6n/g49Fx/tuzbS/h8un7SFUxfrYZIzT9rn6zTaIFM9HqccCfbnuJzvdo7Fub6Qdk6G7E9q/m6O1c6qFhjnf1OpX+NcRTXbZNcz2eUmUjbz9p9A2oJp4+QGqhy3knJsyr9cw6xHKBvru53lhh5nm6fV5yb5fcwxL9fxRztHam53JR+JQCsFxns8He98I5Utyy/S+IEcaL4jfKSZR5qek/OpLD9Svv02PeMP50JJgiHSPwXaVb/ale8/S+7VdAik0Z0f7jp94hOfqJ6plR6OaUDMVGpn/Wpn3jPlZb2dI9Cu+tWufDtHTklmUqAd9asdec6kkXV3lkC76le78u0sPaWZKYF21K925DlTPtbbeQLtqF/tyLPz5JRopgSmq35Ndj2TXW6mPK2XAAECnSow3uPpeOcbaTuzvGE/R9IxnQCBjhfIHda54zZ34SXg95WvfKUaXmcmA38dj6aABAgQIECAAAECBAgQIECAQF8KpCejRIAAAQL9ISD41yH7OcN6pXuyRIDA+AXynIo8g/AHP/hByZA+J554YjWc3fhzMCcBAgQIECBAgAABAgQIECBAoD8EMny3RIAAAQKdL9CKmzUE/zpkP59xxhkdUhLFINA9Amm0arh2z/5SUgIECBAgQIAAAQIECBAgQIAAAQIECBAYXaAV17wXHX0VPiVAgAABAgQIECBAgAABAgQIECBAgAABAgQIECBAoFsEBP+6ZU8pJwECBAgQIECAAAECBAgQIECAAAECBAgQIECAAIExBAT/xgDyMQECBAgQIECAAAECBAgQIECAAAECBLpdYN68ed2+CcpPgAABAuMUEPwbJ5TZCBAgQIAAAQIECBAgQIAAAQIECBAg0K0Cc+fO7daiKzcBAgT6SqAVN2sI/vVVlbGxBAgQIECAAAECBAgQIECAAAECBAgQIECAAAECnSrQips1BP86de8qFwECBAgQIECAAAECBAgQIECAAAECBAgQIECAAIEJCgj+TRDM7AQIECBAgAABAgQIECBAgAABAgQIECBAgAABAgQ6VUDwr1P3jHIRIECAAAECBAgQIECAAAECBAgQIECAAAECBAgQmKCA4N8EwcxOgAABAgQIECBAgAABAgQIECBAgAABAgQIECBAoFMFFp9qwZZaaqkya9asqWbTN8vfd999Zdlll+2b7Z3qhqZ+tSOptxNTVW8n5tWueptSqLsT2xfq7sS82lV31duJ7Qf1dmJe7ai36uzE9oE6OzGvdtTZlEC9ndh+UG8n5tWOeqvOTmwfqLMT81JnJ+bVjrnV2YmptqPOTqwEo8/dzcdsdXH0fdtLn9rXvbQ3R96Wbt/P03m8X2TTTTcdmD9//siaPmmpwBprrFFuvfXWluYpMwLtFlBv2y0s/3YJqLvtkpVvOwXU23bqyrsdAupsO1Tl2W4B9bbdwvJvtYA622pR+bVbQJ1tt/Dk8k8Hjn67DqwuTq6udONS9nU37rWJl7lf9vNUj9dZ3rCfE69fliBAgAABAgQIECBAgAABAgQIECBAgAABAgQIECDQkQKCfx25WxSKAAECBAgQIECAAAECBAgQIECAAAECBAgQIECAwMQFBP8mbmYJAgQIECBAgAABAgQIECBAgAABAgQIdJXA7Nmzu6q8CkuAAAECkxcQ/Ju8nSUJECBAgAABAgQIECBAgAABAgQIECDQFQJz5szpinIqJAECBPpdoBU3awj+9Xstsv0ECBAgQIAAAQIECBAgQIAAAQIECBAgQIAAAQIdIdCKmzUE/zpiVyoEAQIECBAgQIAAAQIECBAgQIAAAQIECBAgQIAAgakLCP5N3VAOBAgQIECAAAECBAgQIECAAAECBAgQIECAAAECBDpCQPCvI3aDQhAgQIAAAQIECBAgQIAAAQIECBAgQKB9AvPmzWtf5nImQIAAgY4SEPzrqN2hMAQIECBAgAABAgQIECBAgAABAgQIEGi9wNy5c1ufqRwJECBAoOUCrbhZQ/Cv5btFhgQIECBAgAABAgQIECBAgAABAgQIECBAgAABAgQmLtCKmzUE/ybubgkCBAgQIECAAAECBAgQIECAAAECBAgQIECAAAECHSkg+NeRu0WhCBAgQIAAAQIECBAgQIAAAQIECBAgQIAAAQIECExcQPBv4maWIECAAAECBAgQIECAAAECBAgQIECAAAECBAgQINCRAoJ/HblbFIoAAQIECBAgQIAAAQIECBAgQIAAAQIECBAgQIDAxAUE/yZuZgkCBAgQIECAAAECBAgQIECAAAECBAgQIECAAAECHSkg+NeRu0WhCBAgQIAAAQIECBAgQIAAAQIECBAgQIAAAQIECExcQPBv4maWIECAAAECBAgQIECAAAECBAgQIECAAAECBAgQINCRAoJ/HblbFIoAAQIECBAgQIAAAQIECBAgQIAAAQIECBAgQIDAxAUE/yZuZgkCBAgQIECAAAECBAgQIECAAAECBAh0lcDs2bO7qrwKS4AAAQKTFxD8m7ydJQkQIECAAAECBAgQIECAAAECBAgQINAVAnPmzOmKciokAQIE+l2gFTdrCP71ey2y/QQIECBAgAABAgQIECBAgAABAgQIECBAgAABAh0h0IqbNQT/OmJXKgQBAgQIECBAgAABAgQIECBAgAABAgQIECBAgACBqQsI/k3dUA4ECBAgQIAAAQIECBAgQIAAAQIECBAgQIAAAQIEOkJA8K8jdoNCECBAgAABAgQIECBAgAABAgQIECBAoH0C8+bNa1/mciZAgACBjhIQ/Ouo3aEwBAgQIECAAAECBAgQIECAAAECBAgQaL3A3LlzW5+pHAkQIECg5QKtuFlD8K/lu0WGkxU4/fTTy5lnnjnZxavlWpHHlArQAwvffvvtPbAVNoEAAQIECBAgQIAAAQIECBAgQIAAAQIECHSfQCtu1hD867793rMlPvXUU8uvfvWrKW1fK/KYUgF6YOEtt9yyvPe97y133HFHD2yNTSBAgAABAgQIECBAgAABAgQIECBAgAABAv0lsHh/ba6t7QSB9M77+te/XhYsWFCe9axnlfe9733lgAMOKLfccku56KKLSnqevfWtby0bbbRROe2008q3v/3tctddd5X11luvvOMd7yjrrLNOueGGG8pHPvKRsvvuu5ezzjqrrL766uUPf/jDY/JI/tLEBB588MHy2c9+tpxxxhmVb/aNRIAAAQIECBAgQIAAAQIECBAgQIAAAQIECHSHgJ5/3bGfeqaUX/3qV6sA3qabblre9KY3lfvuu68sssgiVWDv8Y9/fFl++eWr18sss0y5//77ywknnFCe/exnlze/+c3lmmuuqYKEwbj33nvLeeedVw4++OCy1FJLlRVWWGHYPHoGbgY2pA4CbrHFFtXa9QScgZ1glQQIECBAgAABAgQIECBAgAABAgQIECBAYIICev5NEKwVs6+xxhqtyKbr8lh88cXLfvvtV5Zccsnylre8pQrY7brrrtV2vP3tby/f+ta3ymabbVbyOunvf/97+d73vlcF9wYGBqpA4Qc+8IHy0EMPVZ/nv5122qkceeSRg++b88h8/Wo9CNKCFwkCJr34xS8u//3f/1023HDDFuQqCwIECBAgQIAAAQIECBAgQIAAAQIECBAgQKAdAoJ/7VAdI89bb711jDl69+PrrruuGk7yuc99btltt92qIOBKK6007AY/+uij5ZRTTqmCgtdff33561//Ws33wAMPDM6fgNRIaYkllij9bD2Sy1jThwZM0yMzAcBLLrmkrLbaamMt7nMCBAgQIECAAAECBAgQIECAAAECBAgQIEBgBgUM+zmD+P246g022KDqzbf33ntXz+p7+ctfXg3hOZzF8ccfXz75yU9Ww4NmiM/jjjvuMbMtu+yyj5lmQmsEEvTbZ599ypVXXlllKPDXGle5ECBAgAABAgQIECBAgAABAgQIECBAgACBdgoI/rVTV96PEfjb3/5WVl555Wqozk9/+tMlz5FLb8CkxRZbrNxzzz2Dy/z0pz8tT3/606vg39Oe9rRy9dVXD3420ouheYw0n+kjCzQH/TLMqqDfyFY+IUCAAAECBAgQIECAAAECBAgQIECAAAECnSZg2M9O2yM9Xp6jjz663HbbbeWpT31qufzyy8uaa645+Ay5BPguuOCCcuCBB5Y999yzbLzxxlXPvzwfMM/vmz9//pg6Q/PIMwSliQmkp5+A38TMzE2AAAECBAgQIECAAAECBAgQIECAAAECBDpFQPCvU/ZEn5Rj5513LmeffXbV4y9Dfua5f0984hOrrU9gcJVVVikLFiwoK6ywQjnooIPKMsssU37+85+XjTbaqBx66KFVcDA90xKcOuyww6pehM10Q/No/szr8QkI/I3PyVwECBAgQIAAAQIECBAgQIAAgW4SmD17djcVV1kJECBAYAoCgn9TwLPoxAVmzZpV8m+4lMBfgnfNac6cOc1vS54ZmLT66quXI444YqHP8ma4PB4zkwkECBAgQIAAAQIECBAgQIAAAQIE+kxg6HW2Ptt8m0uAAIGuEWjFzRqe+dc1u1tBCRAgQIAAAQIECBAgQIAAAQIECBAgQIAAAQIEelmgFTdrCP71cg2xbQQIECBAgAABAgQIECBAgAABAgQIECBAgAABAn0lIPjXV7vbxhIgQIAAAQIECBAgQIAAAQIECBAgQIAAAQIECPSygOBfL+9d20aAAAECBAgQIECAAAECBAgQIECAAIGGwLx58zgQIECAQJ8ICP71yY62mQQIECBAgAABAgQIECBAgAABAgQI9K/A3Llz+3fjbTkBAgS6SKAVN2sI/nXRDldUAgQIECBAgAABAgQIECBAgAABAgQIECBAgACB3hVoxc0agn+9Wz9sGQECBAgQIECAAAECBAgQIECAAAECBAgQIECAQJ8JCP712Q63uQQIECBAgAABAgQIECBAgAABAgQIECBAgAABAr0rIPjXu/vWlhEgQIAAAQIECBAgQIAAAQIECBAgQIAAAQIECPSZgOBfn+1wm0uAAAECBAgQIECAAAECBAgQIECAAAECBAgQINC7AoJ/vbtvbRkBAgQIECBAgAABAgQIECBAgAABAgQIECBAgECfCQj+9dkOt7kECBAgQIAAAQIECBAgQIAAAQIECBAgQIAAAQK9KyD417v71pYRIECAAAECBAgQIECAAAECBAgQIECAAAECBAj0mYDgX5/tcJtLgAABAgQIECBAgAABAgQIECBAgAABAgQIECDQuwKCf727b20ZAQIECBAgQIAAAQIECBAgQIAAAQIEKoHZs2eTIECAAIE+ERD865MdbTMJECBAgAABAgQIECBAgAABAgQIEOhfgTlz5vTvxttyAgQIdJFAK27WEPzroh2uqAQIECBAgAABAgQIECBAgAABAgQIECBAgAABAr0r0IqbNQT/erd+2DICBAgQIECAAAECBAgQIECAAAECBAgQIECAAIE+ExD867MdbnMJECBAgAABAgQIECBAgAABAgQIECBAgAABAgR6V0Dwr3f3rS0jQIAAAQIECBAgQIAAAQIECBAgQIBAJTBv3jwSBAgQINAnAoJ/fbKjbSYBAgQIECBAgAABAgQIECBAgAABAv0rMHfu3P7deFtOgACBLhJoxc0agn9dtMMVlQABAgQIECBAgAABAgQIECBAgAABAgQIECBAoHcFWnGzhuBf79YPW0aAAAECBAgQIECAAAECBAgQIECAAAECBAgQINBnAoJ/fbbDbS4BAgQIECBAgAABAgQIECBAgAABAgQIECBAgEDvCgj+9e6+tWUECBAgQIAAAQIECBAgQIAAAQIECBAgQIAAAQJ9JiD412c73OYSIECAAAECBAgQIECAAAECBAgQIECAAAECBAj0roDgX+/uW1tGgAABAgQIECBAgAABAgQIECBAgAABAgQIECDQZwKCf322w20uAQIECBAgQIAAAQIECBAgQIAAAQIECBAgQIBA7woI/vXuvrVlBAgQIECAAAECBAgQIECAAAECBAgQIECAAAECfc6da5oAAEAASURBVCYg+NdnO9zmEiBAgAABAgQIECBAgAABAgQIECBAgAABAgQI9K6A4F/v7ltbRoAAAQIECBAgQIAAAQIECBAgQIAAgUpg9uzZJAgQIECgTwQE//pkR9tMAgQI9IPAwMBAufDCC8tee+1VNt5442qTN9988/Ke97yn3Hrrrf1AMG3b+Mgjj5QFCxa0bX0PPfRQeeCBB6acf7vLOeUCyoAAAQIECBAgQIAAAQLTJDBnzpxpWpPVECBAgMBUBFpxs4bg31T2gGUJECBAoGMEEijad999ywknnFB23HHH8u1vf7sq2xe/+MWy4oorlle96lXlnHPOmbby3nXXXeWss84q733ve8vhhx9ejj322PKTn/xk0uu/7LLLyvHHH1/9O+mkk8oFF1wwowHNk08+ucyaNWvS2zPWgu985zvL61//+mq2P/7xj9V233LLLQstlsBeTH7+858vNL35TbvL2bwurwkQIECAAAECBAgQIECAAAECBAhMVaAVN2ssPtVCWJ4AAQIECMy0QHr8HXzwwWW11VYrp5xySll00X/e27LuuuuWQw45pLzuda8ru+22W1XU1772tW0t8je+8Y3yjne8ozz66KNlo402Kosttli5+OKLq3/f+ta3xlz3gw8+WI455piy7bbbls0226ya/5JLLimf//znyzOe8Yzyt7/9rdx0000l2507gY444ojyhCc8Ycx8u3WGO++8s3zsYx8rz3nOc8qaa645uBkPP/xwNX2VVVYp66+//uD0bnlx++23V3W2W8qrnAQIECBAgAABAgQIECBAgAABAt0hIPjXHftJKQkQIEBgFIFLL7203HzzzeU//uM/Fgr8NS+y1lprlTPPPLO85jWvqYJIa6yxRvPHLXv905/+tLz1rW+tehomgLfssstWeaeX2rXXXjuu9SS495nPfGYw8FcvtPrqq1c9/vI+w2KeccYZ5UMf+lC55557yqc+9al6Nn+7RGDLLbcsu+++eznggAPKqquu2iWlVkwCBAgQIECAAAECBAgQIECAAIFOF/hn14hOL6nyESBAgACBEQQS1EsPuMUXH/2elgQA99hjj5JhM9uV3v3ud5d11lmnHHfccYOBv6wrZdtkk00GV1sPWZleiBneMtuQnnwZwvLQQw+t5ks599tvv2GfrbfEEkuUffbZp2R9X/rSl8rVV19dLZN8582bV3bdddeyzTbblMMOO6zqJZgPv/CFL5QMp1mnBCOT/4033lhNSk+6DCtw5ZVXVs9OTDl+8IMflDe/+c3lla98ZRVc/fvf/14vvtDf0dabGX/9619Xw58mnwRgP/e5zy20fMqfYVvT2/F973tfFdxcaIZxvMnzHlPmBIPTy/PrX//6OJaauVnSw/Ozn/1s2WKLLarhYe+4446ZK4w1EyBAgAABAgQIECDQ8wI5V5QIECBAoD8EBP/6Yz/bSgIECPS0QAJH6UU1nrT99tuX73znO+OZdcLzpDdeev4lmPf4xz9+1OUPOuigaojS7bbbruqJmGFCE8RbaqmlSoYqTUpPv/XWW2/E3oyZ5w1veEP+lPnz51d/k+9HP/rRarjRfJbnDCYImOfmZWjQ0047rdRBpgxPet5551WBviycec8999xqaM3f/va35ctf/nJ517veVZ73vOeVtddeu+plWD9LsVpZ03+jrTez/dd//Ve57777yi677FI22GCD8p73vKcaBjWfxSzDsv7lL38pO+20U7n++uvL2WefnY8mlFLmPNcxZU55l1xyyQktP1MzDw0CzlQ5rJcAAQIECBAgQIAAgd4WmDt3bm9voK0jQIBAjwi04maN0btI9AiUzSBAYOoCT3va08pf//rXqWckBwJtEFh66aXLyiuvPK6cn/zkJ5c//elPpR3DfiaAlR5wWUed8gzCs846q35bBdp+85vfVEGqDNv50pe+tPosz/BLgGznnXcuBx54YMlJ2Q477FD1hBtceJgXGVY0/37/+99XvQYT/Dr++OMHg4L1MKcJ+u29995VIPGyyy6rPr/ooovKv/zLv1Q95fbff/9y+eWXl3zX6/Knl196Hz796U8ve+65Z7niiiuqXoEJJjan9FYcbb3pfXj44YeX7KekBLvSKy9B25e85CXl05/+dBWsi1N6SKZ35stf/vLmVYz7dfLO8wFf8IIXVMvEuk4JimZdnZrqIGDKl16ZG264YacWVbkIECBAgAABAgQIECBAgAABAgTaJJDrghmtaypJ8G8qepYl0EcCOdgcccQRfbTFNrVXBRJcyhCU7Uj33ntv1WPtzjvvHMx+o402Ko8++mj50Y9+VL75zW8ODu2ZGd773vdWQ1zmdXrmTaanWgKZ6VGX3oK//OUvk1XZeuutq7/5b6WVVirPeMYzSoJgT3rSk8qzn/3skuDfc5/73PKrX/2qCjIm2LhgwYLyve99r7zsZS8bXDa9EBP4S4pbgoJ//vOfBz+vX4y13syXXnknnnhi1cvv1ltvLQks5tmGSb/4xS+q9WYdSYsuumjZeOONB/dT3idlWNLmFNekxRZbbHBy8si2DZfSuzL/OiUNDUCnt+ib3vSmakhUgb9O2UvKQYAAAQIECBAgQIAAAQIECBDoPgHBv+7bZ0pMYEYEBP5mhN1Ku0xg+eWXr4bqzLPnEjBfZJFFyuabb179y/P2EvxLyvSkQw45ZKHnAo41VGi10JD/Tj/99GpKAl51EC69D5tT3mfIz6QE99IbMUHAzTbbrAoU5vmB6QX44x//eKFnAj7ucY9rzmahINtCH/zfm5HWm+E8MwRp1pdnIWYo0/SSrFOCerVJPa0ODOb9qquuWk2++eab64+rvwkiJq255prV3/yX3oXNwcDBDzr4RR30O+CAA8pqq632mOchdnDRFY0AAQIECBAgQIAAAQIECBAgQKADBTzzrwN3iiIRIECAQPcKZIjLH/zgB+XjH/94NQRovSUDAwP1y6onXt4kWJYhNPMvw1yml2BSHby65557qvfD/ZeA2cknn1w+9alPlTe/+c1l/fXXr3rLJYj2xS9+cXCR9PhLz7pZs2ZV017xileU9ExMADDrTIAvQ2SmvMsss0zZdNNNB5cd74v00httvXmGX4YNztChCVJmeMsMc1qnDDWa5zA+8MAD1aS77767GoK0/jxB1TzDL4HOOigYz8997nNVUDM9G7sxJei3zz77VEOpfuADH6gCf924HcpMgAABAgQIECBAgAABAgQIECDQWQJ6/nXW/lAaAgQIEOhygV122aXqgZcebl/+8per57Y99NBD5fvf/35JD7sEyTbYYIOSZ/G9/e1vr56jl+E487y9PJMvAbLllluu6u2WZ/ddeeWV5ZhjjqlUbrvttrL99tuX9KS78cYbq2npLXbQQQdVr5/61KeW2bNnlw996ENl/vz51XMQzzvvvCrwt9NOOw3Os84665Tf/e53VdAxE7faaquqV+KOO+5YDe9ZzTiB/8ZabwJ2eS7h0UcfXW3nJZdcMtgTMat529veVj3rcNttty1bbLFFyecxaE7vfve7y1ve8pbywhe+sGyyySaDzzg86qijygorrNA8a9e8zr5NTz+JAAECBAgQIECAAAECBAgQIECAQCsFBP9aqSkvAgQIEOh7gTyf7oMf/GDZYYcdqkBXgmwJ8Lz0pS+tAncJACbl+XcJZF199dXV8/b22muv8vrXv776LAHCU089tWSo0ATN0hPwRS96UTWkZWbIswEzdOaznvWsxwSPEmBLAC3BxPSkyzPudt5554WCegmkpTde8khKb8AEFlPGOmVY0AQWm1PySaAyKZ+/9a1vHfx4tPU+8YlPrAKhZ555ZvWsvwQ1f/7zn1fPEEwG6Q341a9+tXzta1+rnomYYGeeQZgegHXabrvtqgDl+eefXzL854tf/OLKOcOq1mm4Mg8tZz1vJ/wV+OuEvaAMBAgQIECAAAECBAgQIECAAIHeE1ikMbzXQHoHSNMjsMYaa5T6GUXTs0ZrITB1AfV26oZymBkBdXdm3K11agLq7dT8LD39Aurs9Jtb49QF1NupG8phegXU2en1trapC6izUzdsRw55HES/XQdWF9tRkzozT/u6M/dLq0vVL/t5qsfrLO+Zf62uffIjQIAAAQIECBAgQIAAAQIECBAgQIAAAQIECBAgMEMCgn8zBG+1BAgQIECAAAECBAgQIECAAAECBAgQIECAAAECBFotIPjXalH5ESBAgAABAgQIECBAgAABAgQIECBAoMMEZs+e3WElUhwCBAgQaJeA4F+7ZOVLgAABAgQIECBAgAABAgQIECBAgACBDhGYM2dOh5REMQgQIEBgNIFW3Kwh+DeasM8IECBAgAABAgQIECBAgAABAgQIECBAgAABAgQITJNAK27WEPybpp1lNQQIECBAgAABAgQIECBAgAABAgQIECBAgAABAgTaLSD4125h+RMgQIAAAQIECBAgQIAAAQIECBAgQIAAAQIECBCYJgHBv2mCthoCBAgQIECAAAECBAgQIECAAAECBAjMlMC8efNmatXWS4AAAQLTLCD4N83gVkeAAAECBAgQIECAAAECBAgQIECAAIHpFpg7d+50r9L6CBAgQGASAq24WUPwbxLwFiFAgAABAgQIECBAgAABAgQIECBAgAABAgQIECDQaoFW3Kwh+NfqvSI/AgQIECBAgAABAgQIECBAgAABAgQIECBAgAABAjMkIPg3Q/BWS4AAAQIECBAgQIAAAQIECBAgQIAAAQIECBAgQKDVAoJ/rRaVHwECBAgQIECAAAECBAgQIECAAAECBAgQIECAAIEZEhD8myF4qyVAgAABAgQIECBAgAABAgQIECBAgAABAgQIECDQagHBv1aLyo8AAQIECBAgQIAAAQIECBAgQIAAAQIECBAgQIDADAkI/s0QvNUSIECAQOsFBgYGyoUXXlj22muvsvHGG1cr2Hzzzct73vOecuutt7Z+hXJsucCCBQvKI4880vJ8ZUiAAAECBAgQIECAAAECBAgQIECgXwQE//plT9tOAgQI9LjAAw88UPbdd99ywgknlB133LF8+9vfrrb4i1/8YllxxRXLq171qnLOOef0uEL3b94znvGMctppp3X/htgCAgQIECBAgAABAgQIECBAgAABAjMksPgMrddqCRDoEYE77rijrLrqqj2yNTajWwXS4+/ggw8uq622WjnllFPKoov+896WddddtxxyyCHlda97Xdltt92qTXzta1/brZs6qXI/+OCD5Zhjjinbbrtt2WyzzSaVh4UIECBAgAABAgQIECBAgAABAgQIEOgOgX9eHe2O8iolAQIdIpCg31FHHVW23HLLDimRYvSzwKWXXlpuvvnm8r73vW+hwF+zyVprrVXOPPPM8v73v7/vhgD929/+Vj7zmc+Uu+66q5nEawIECBAgQIAAAQIECBDoI4HZs2f30dbaVAIECPS3gJ5//b3/bT2BCQsk6HfSSSeVM844o2SYRYlAJwgkqJeTmMUXH/1nLQHAPfbYo6rDH/zgBzuh6JMqw6c//enyuMc9rvp3/vnnl0984hMlPRzPPffc8qUvfance++95fnPf37V4/H666+vev1lRfnufu1rXyvHH398+fCHP1w22WSTaojUfJZnIh599NHl7W9/e1lvvfXKcOs477zzqnU+8YlPrPJJj8v99tuvvOIVr0gWj0l51uJE1/GYTEwgQIAAAQIECBAgQIAAgZYIzJkzpyX5yIQAAQIE2ivQips1Rr9K2t7yy50AgS4SEPTrop3Vh0W9+uqry3iDedtvv33ZZZddxj1/J3JeddVV5dprr62eZfjsZz+76u2YgPy73vWukpO5NdZYoxx33HHltttuK4ceemgVGMx2rL766lVgL8OiXnzxxWXJJZcc3Lz77ruvJLiX5yYmDbeOTMu/Zz3rWWW77barAo37779/+eEPf1hWWWWVwbzqF5NZR72svwQIECBAgAABAgQIECBAgAABAgT6UaAVN2sI/vVjzbHNBCYhsNVWW1W9iYZbNIEGicBMCiy99NJl5ZVXHlcRnvzkJ5c//elPVYBsXAt02EzpvZe0YMGC8tWvfrUsv/zy5e9//3v56Ec/WvXC+/d///fq8yWWWKIceeSR5dhjjy0HHnhgmTt3btlhhx2q5/5VM4zjv+Z11LMvs8wyVc/fxz/+8WXzzTcvL33pS8tPfvKTsvXWW9ezTOjvcOuoM0hDJ70Z+yGlDv/mN7/ph021jQQIECBAgAABAgQIECBAgAABAm0WEPxrM7DsCfSKwCWXXFJOPPHE8oUvfKE8+OCDC21WhguUCHSLQIYG/fWvf90txR22nF/5yleq3ncJ/CXdcsstVUDz7LPPLt/5zneqaX/961+roGB6/y233HLVtIn+lx5+9TrqZTfYYIOSwF9ShhpNyjCjk03DraPO6+STTy751w/p4x//eD9spm0kQIAAAQIECBAgQIAAAQIECBCYBgHBv2lAtgoCvSCw6qqrlg984APlbW9724hBwF7YTttAoFsE0gOvTossskj1cscddyzPec5z6snV3/SIHBqwzwdZ5uGHHx6cd7h5mtdRz9j8XMXFFlusnjzs38muY9jMenziEUcc0eNbaPMIECBAgAABAgQIEJhpgXnz5lUjxsx0OayfAAECBNovsGj7V2ENBAj0kkAdBPzBD35Q9tlnn8EeQL20jbaFQLcJZOjd9NC76667yjbbbDP4b9asWSXDSdZBunvuuWdw0xIUvO666wbfX3bZZYOvW/ViOtbRqrLKhwABAgQIECBAgAABAr0ukMdBSAQIECDQ+QK5WWOqSc+/qQpankCfCtRBwAMOOKBPBWw2gc4RWHTRRcs73vGO6t8dd9xRMjTntddeW1ZcccVq2MwM+5nv7PHHH1+uvPLKcswxx5RXvvKV5aijjip77LFHFTi84oorWr5B07GOlhdahgQIECBAgAABAgQIECBAgAABAgRmUCA3a+y3335TKoHg35T4LEyAwGqrrQaBAIFpFthhhx1K8/CbWX2CeGuvvXb1zL+77767PO95zytvfOMbq5Jl+M1TTz21embnsssuW/UETM/dpZZaqlx11VXVchnS99xzzy1rrrlmtcxw6xg6LUHHww47rKy//vrVMkP/m8w6Dj744LLJJpsMzcp7AgQIECBAgAABAgQIECBAgAABAgTGKbDIpptuOjB//vxxzm62qQpkaLZbb711qtlYnsC0Cqi308ptZS0UUHdbiCmraRNQb6eN2opaJKDOtghSNtMqoN5OK7eVtUBAnW0BoiymVUCdnVbuca8sj4bot+vA6uK4q0fXz2hfd/0uHNcG9Mt+nurxOst75t+4qpSZCBAgQIAAAQIECBAgQIAAAQIECBAgQIAAAQIECHS+gOBf5+8jJSRAgAABAgQIECBAgAABAgQIECBAgAABAgQIECAwLgHBv3ExmYkAAQIECBAgQIAAAQIECBAgQIAAAQIECBAgQIBA5wsI/nX+PlJCAgQIECBAgAABAgQIECBAgAABAgQIECBAgAABAuMSEPwbF5OZCBAgQIAAAQIECBAgQIAAAQIECBAgQIAAAQIECHS+gOBf5+8jJSRAgAABAgQIECBAgAABAgQIECBAgAABAgQIECAwLgHBv3ExmYkAAQIECBAgQIAAAQIECBAgQIAAAQLdKzB79uzuLbySEyBAgMCEBAT/JsRlZgIECBAgQIAAAQIECBAgQIAAAQIECHSfwJw5c7qv0EpMgACBPhRoxc0agn99WHFsMgECBAgQIECAAAECBAgQIECAAAECBAgQIECAQOcJtOJmDcG/ztuvSkSAAAECBAgQIECAAAECBAgQIECAAAECBAgQIEBgUgKCf5NisxABAgQIECBAgAABAgQIECBAgAABAgQIECBAgACBzhMQ/Ou8faJEBAgQIECAAAECBAgQIECAAAECBAgQaKnAvHnzWpqfzAgQIECgcwUE/zp33ygZAQIECBAgQIAAAQIECBAgQIAAAQIEWiIwd+7cluQjEwIECBBor0ArbtYQ/GvvPpI7AQIECBAgQIAAAQIECBAgQIAAAQIECBAgQIAAgXEJtOJmDcG/cVGbiQABAgQIECBAgAABAgQIECBAgAABAgQIECBAgEDnCwj+df4+UkICBAgQIECAAAECBAgQIECAAAECBAgQIECAAAEC4xIQ/BsXk5kIECBAgAABAgQIECBAgAABAgQIECBAgAABAgQIdL6A4F/n7yMlJECAAAECBAgQIECAAAECBAgQIECAAAECBAgQIDAuAcG/cTGZiQABAgQIECBAgAABAgQIECBAgAABAgQIECBAgEDnCwj+df4+UkICBAgQIECAAAECBAgQIECAAAECBAgQIECAAAEC4xIQ/BsXk5kIECBAgAABAgQIECBAgAABAgQIECBAgAABAgQIdL6A4F/n7yMlJECAAAECBAgQIECAAAECBAgQIECAAAECBAgQIDAuAcG/cTGZiQABAgQIECBAgAABAgQIECBAgAABAt0rMHv27O4tvJITIECAwIQEBP8mxGVmAgQIECBAgAABAgQIECBAgAABAgQIdJ/AnDlzuq/QSkyAAIE+FGjFzRqCf31YcWwyAQIECBAgQIAAAQIECBAgQIAAAQIECBAgQIBA5wm04mYNwb/O269KRIAAAQIECBAgQIAAAQIECBAgQIAAAQIECBAgQGBSAoJ/k2KzEAECBCYu8OCDD5b8a2V65JFHyoIFC1qZpbwIECBAgAABAgQIECBAgAABAgQIECBAoIsFFu/isis6AQIEJizwwAMPlLPPPrtcd911VSBu9dVXL3vttVdZeeWVy8EHH1wWWWSRctxxx0043/EssPfee5elllqqfPaznx1z9i9+8YvlzjvvXGi+rbbaqjztaU8r2223XVXm3XffvZx88snlpJNOKr/4xS8WmtcbAgQIECBAgAABAgQIECBAgECzwLx588p+++3XPMlrAgQIEOhRAcG/Ht2xNosAgccK3HvvveXVr351uemmm8omm2xSll122XLhhReWLbbYogr+rbXWWo9daIamnHrqqeUPf/hDefKTnzxYgn/9138tz3zmM8u6665bVlpppcHpzS9OP/30sthii5XddtuteXLPv7799tvLaqut1vPbaQMJECBAgAABAgQIECBAgMBkBebOnSv4N1k8yxEgQGAaBVpxs4bg3zTuMKsiQGBmBb72ta+V3/3ud+U73/lOWX/99avC3H///SVDZyYdccQR1d9O+W+bbbYpn/zkJx9TnFNOOeUx0+oJCRq+4AUvqN/2zd8tt9yypCfkAQccUFZdddW+2W4bSoAAAQIECBAgQIAAAQIECBAgQIBAbwm04mYNz/zrrTphawgQGEUgQ34mJeBXpwzDudxyy1Vvjz/++GoYzby54YYbqrvhrrjiiiqgtP3225fPf/7z5aGHHiof+tCHyqte9aqyzz77VPPVeb3tbW+rAosJ2GX+N73pTeXSSy+tP37M3z/+8Y/lHe94R9l2223LnnvuWX74wx8+Zp7hJiTAdfHFFy/00cMPP1yV95ZbbikXXXRR9fqaa66p5hltPSnz+eefX9773veWnXfeeaE8u+lNnqWY4VTTizPbcscdd3RT8ZWVAAECBAgQIECAAAECBAgQIECAAAECLRMQ/GsZpYwIEOh0gQz5+aQnPakKtJ122mklAbPmlODbj370o2pShgg977zzSoJjG264YVl77bXLu9/97vKa17ym3HjjjdXfq666qhx22GGDWXzzm98shxxySPX8vR133LEKMmb4zTxfcGhasGBBFUCcP39+FSRcZpllyhve8IaqZ2I9bwJaf/7znwf//f3vf68+SrAuwcnmlGcVrrfeeuXxj398WX755avXyXOs9aTM73rXu8r1119f1llnneYsu/L10CBgV26EQhMgQIAAAQIECBAgQIAAAQIECBAgQGAKAob9nAKeRQn0k8AnPvGJkn/dmvKMvJ/97GdVQC/De77zne+sevkde+yx5fnPf/6Im5XgXoaTfPTRR8tll11W/va3v1XL5bl66UGYXn4Jyi266D/updhggw2qHmjJcKeddirPec5zyplnnlk+8pGPLLSOs846q9x5553lG9/4RvX8vvS6S/DxK1/5SjnyyCOreTNMaf7V6corr6yCkPX75r+LL754efvb316+9a1vlc0226x6nc8/97nPjbmePEMwzwrMNtx1111l4403bs66K1/XQcAU/tprr60CuF25IQpNgAABAgQIECBAgAABAgQIECBAgACBCQoI/k0QzOwE+lXg8MMPL/nX7ekpT3lKOfvss8sll1xSDQ+5yy67VO8TpBsubbTRRtXkBPvWWGONqkddXietueaaVe/BDCea4UOTmp+394QnPKE885nPLDfddFP1WfN/6Q2YnofpIVinu+++u9x888312/Lyl798oZ6Fq6222uBn430xnvW88IUvHAxerrzyyuXWW28db/YdM1/2TXNKD8gMu5rgZ3puSgQIECBAgAABAgQIECBAgAABAgQIEOgXAcG/ftnTtpMAgYUEttpqq3LuueeWZz/72SW98EYK/j3ucY8bXC4945rf10HAwRkaL4ZO+8tf/lIScByaMkxnAm0ZcrM5rb766oNvV1xxxSn3whvPepZddtnBdXb7izrol+ciJlia4J9EgAABAgQIECBAgAABAgQIECBAgACBfhIQ/OunvW1bCfS5wI9//OOy1lprVUG3UCSQt8QSSzwmYDcVpvQo3H///auedL/85S+rISebe/fVeT/jGc+ohvjMc/ryL+m+++5bKLhYzzuRvwk+3nPPPYOLtGs9gyvokBdDg34dUizFIECAAAECBAgQIECAAAECBAgQIECAwLQLCP5NO7kVEiAwUwL/8z//U+bOnVtmzZpVVlllleoZe3k23J577tmyIl1zzTVlhx12KE9/+tPL+eefX/I8vQw/OTTtuuuu5dRTTy3bb799Nf9DDz1UPa/vnHPOGQwGDl1mPO+f9rSnlQsuuKAceOCB1Xa1az3jKct0zpPnIU5mWNTpLKN1ESBAgAABAgQIECBAgAABAgQIECBAYDoEBP+mQ9k6CBDoCIEEwvIcvhtuuKE88sgjJc/722mnnapn+aWAr3vd68rii//jsJhA0mGHHTbYSzCfZ/mVVlopL6uUAF/maR4K9NBDD616EuZZe/vtt1/Ze++9q3Vmgeb8l1566SpI95//+Z/lN7/5TVluueXKscceOzhE6O67777Quv+xxn/8f/DBB5dNNtmkepNhS9/61rcOfnz00UdXgc0FCxaUFVZYoYy1noMOOqhsuummg8t36wuBv27dc8pNgAABAgQIECBAgAABAgQIECBAgECrBRZpXPQdmD9/fqvzld8IAmussUa59dZbR/jUZAKdKaDejm+/pJdfnuG37777jm8Bc7VdQN1tO7EVtEFAvW0DqizbKqDOtpVX5m0SUG/bBCvbtgmos22jlXGbBNTZNsFOMduTTz65zJkzZ4q5dNfi6mJ37a+plNa+nope9yzbL/s5I9dNJW6X5Rftnt2qpAQIECBAgAABAgQIECBAgAABAgQIECAwGYF+C/xNxsgyBAgQ6ASB2bNnT7kYgn9TJpQBAQIE/iHwvOc9r6y55po4CBAgQIAAAQIECBAgQIAAAQIECBAgQIDApARacbOGZ/5Nit5CBAgQeKzAGWec8diJphAgQIAAAQIECBAgQIAAAQIECBAgQIAAgWkU0PNvGrGtigABAgQIECBAgAABAgQIECBAgAABAgQIECBAgEA7BQT/2qkrbwIECBAgQIAAAQIECBAgQIAAAQIECHSAwLx58zqgFIpAgAABAtMhIPg3HcrWQYAAAQIECBAgQIAAAQIECBAgQIAAgRkUmDt37gyu3aoJECBAYLwCrbhZQ/BvvNrmI0CAAAECBAgQIECAAAECBAgQIECAAAECBAgQINBGgVbcrCH418YdJGsCBAgQIECAAAECBAgQIECAAAECBAgQIECAAAEC0ykg+Ded2tZFgAABAgQIECBAgAABAgQIECBAgAABAgQIECBAoI0Cgn9txJU1AQIECBAgQIAAAQIECBAgQIAAAQIECBAgQIAAgekUEPybTm3rIkCAwBCB++67r/ziF78oDzzwwEKfPPLII2XBggULTZuJNyOVbybKYp0ECBAgQIAAAQIECBAgQIAAAQIECBAgMLaA4N/YRuYgQIBAWwTOOeecstFGG5WXvexl5eKLLy4vfelLyxlnnFGt6+STTy6zZs1q2XoTXGzOfzwZN5fviiuuGM8i5iFAgAABAgQIECBAgAABAgQIECBAgACBGRYQ/JvhHWD1BLpd4I477uj2TSinn356OfPMM6d9O97//veXF77wheWaa64pz3/+88u6665bVlpppWHL8b3vfa988IMfHPaz8UxcfPHFR81/uDyay7flllsON4tpBAgQIECAAAECBAgQIECAAAECBAgQINBhAoJ/HbZDFIdAtwgk6HfUUUeVXggKnXrqqeVXv/rVtNJnWM/bb7+9vOIVryirrLJKWW655copp5xStt1222HLccEFF5Tvfve7w342nokJ/o2W/9A8hpZvqaWWGjqL9wQIECBAgAABAgQIECBAgAABAgQIECDQgQKCfx24UxSJQCcLNAf9Ekwa+qy6mS77hRdeWA499NBy6aWXlt122618/etfr4p03XXXlf33379svfXW5eCDDy633HJLefjhh8t+++1Xvb7ooouq1+mFd9VVV1Wv83md5s6dWz71qU9Vb2+44Ybq88svv7y85S1vqXrk1dOuvvrqav3bbLNNOfLII8tf/vKXOovBv9dff/3/Z+8+4Oyqyr0Bv6F3QoeEDkIiTen90kSalFBFpA8MvSkinYtwFRRpAhNQUJogXVronUuX3pEioSNICT2f7/ruGSeTmWQyc2bmnJln/X6TOWefvdda+1kH0Pz3WisaGxvL+/POO6/U9c0338Qee+xRlv9sPvH/Xvzyl7+Mm2++OV599dVy7sUXX1w+ee+99+Kggw4qgeF2220X9913X/Ole+65Z1xzzTVx+OGHx1ZbbVWOt6y/4vS///u/seOOO8Z6660Xv/vd7yL70V7/MhAcPnx4bL311pH3t//++5c+NTfqBQECBAgQIECAAAECBAgQIECAAAECBAj0uoDwr9eHQAcI1IdArYd+FcUXXnghcq+6gw8+OOaZZ56YYoop4qmnnooNNtggRo8eHRmSPffcc7H55puX8G/BBReMySefPAYOHBj5eppppilh4NVXX12CsEq9Dz30UGRQluWDDz6I/DxDxJwRN+OMMzYfyzBx7rnnjtVXXz0uuOCC+PWvf12povl39mmBBRYo72ebbbbSbr7JsC5DxNZlzjnnLP3LfmYfc2nQUaNGlXvKfm2zzTal33lPL774Yrn82muvLQYZ5M0777zlWMv60+kvf/lLOWellVYqVsccc0zccMMNxayt/u29996RQWTuU5htPfLIIyUEzBBSIUCAAAECBAgQIECAAAECBGpboKGhobY7qHcECBAgUDWBSapWk4oIEOjTAhlmZejVVhk0aFBbh3v82EYbbRSLLrpofP755/GrX/0qVlllldKHnXbaKRZZZJE444wzYqKJJorll1++7LGXwdmBBx4Y1113XSy99NLldV7w+OOPd6jvW265ZZndlydnEJZlr732KjPp8nUGbJXAMN9XSnr95Cc/iVNOOSXWX3/9EqRVPmvrd4Z7zzzzTOTMu+xvlt///vfx9ttvx1//+tcSBubsvpz5d8kllzT3KfcQzP0M857bKjnL77TTToshQ4aUUPTuu++Oe++9twR6rfv35JNPllD1pJNOau5vei+77LLxxz/+Meabb74yc7GtdhwjQIAAAQIECBAgQIAAAQIEel+gsgpR7/dEDwgQIEBgXALVeFhD+DcuYZ8RINAscOutt8app54auUxlhmsty8iRI1u+7dXXuXRl7m+34oorNvcjl/zM5TdXW221cixnAGbJZTS7Uir1taxjqaWWan6bgdhjjz3W/L6aL/KeclnSYcOGNVf77rvvxmuvvdb8ftVVV203+MuTctZiBn9Z0ixnLH744Yflfes/nn766XIol02tlJyBOHTo0Hj++efLEqCbbLJJ5aOa+V0rwXTNgOgIAQIECBAgQIAAAQIECBAgQIAAAQI1LVCNhzWEfzU9xDpHoHYEcnnKo48+OnIvufZCwFrp7dRTTx0TTzxxc3cGDBgQGcrlDLqWJWcDtlXy/CwZruVSm1laB555bNppp81fY5RJJ520+X0Gat1Vso+zzDJLWbazZRtzzDFH89u2+tf84b9ftOxrHm9p1vK8lq9z9mHLku+nnHLKloe8JkCAAAECBAgQIECAAAECBAgQIECAAIFeFGh7Lbhe7JCmCRCobYFKCJjLWeZympVwrJZ7/e1vf7vspZcz9dZZZ53yk2HgXHPNVbqdodf777/ffAs5oy1LZfnPjz76KB5++OHmz3vjRS7d2XJvvZxx984775Q9ACv3lHv3Lbzwwt3SvSWWWCIycLzwwgub688Zf7mfYsvZjs0fekGAAAECBAgQIECAAAECBAgQIECAAAECvSLQfdNSeuV2NEqAQE8JVELAPfbYo6ea7HQ7++23X2y88caRS1bm3oVvvvlmPPjgg+UnK11ooYXi+uuvL/v1bbfddiXMmnXWWSOnV+eefPfcc0+HZsV1uoMduDD7mP3O9Z7zHrbeeus4++yzY8MNN4xcbvOLL74oexdeccUVJRDsQJUTdMq3vvWt0vYxxxwTuVdizjq8+uqri1XufagQIECAAAECBAgQIECAAAECtS0wfPjw2GWXXWq7k3pHgAABAlUREP5VhVElBPqvwOyzz15TN7/MMstE60ByscUWixEjRsTFF18cr7/+egwePDh222235n4feeSRkWHfqFGjYsYZZyzLWF5++eVxzjnnxCeffBKHHHJI+ayy9Gfe8/77718CsEolbR3LfQcHDhxYOWWM3zmTL+toufToPvvsE9/97nfLeXkfu+++e/M1W2yxRXzwwQfx4osvRu5jl0ubZmCZfcwZeNNNN10cf/zxkfsMZtl7771jySWXbL4+X7Suv7XTVlttFTPMMEO5pq3+pdPyyy8fd955Z3z22Wdx0EEHRV7TncubjnED3hAgQIAAAQIECBAgQIAAAQKdFmhqahL+dVrPhQQIEOg5gWo8rDHg3385PDpncSg9I5B/aT9y5MieaUwrBKok4HtbJUjV9LiA726Pk2uwCgK+t1VAVEWPCvjO9ii3xqok4HtbJUjV9JiA72yPUWuoSgK+s1WCrHI1uW1Hf/t7YN/FKn+Jarg6Y13Dg1PFrvWXce7qv6/zenv+VfGLpyoCBAgQIECAAAECBAgQIECAAAECBAgQIECAAAECvSkg/OtNfW0TIECAAAECBAgQIECAAAECBAgQIECAAAECBAgQqKKA8K+KmKoiQIAAAQIECBAgQIAAAQIECBAgQIAAAQIECBAg0JsCwr/e1Nc2AQIECBAgQIAAAQIECBAgQIAAAQIECBAgQIAAgSoKCP+qiKkqAgQIECBAgAABAgQIECBAgAABAgQIECBAgAABAr0pIPzrTX1tEyBAgAABAgQIECBAgAABAgQIECBAgAABAgQIEKiigPCvipiqIkCAAAECBAgQIECAAAECBAgQIECAAAECBAgQINCbAsK/3tTXNgECBAgQIECAAAECBAgQIECAAAECBAgQIECAAIEqCgj/qoipKgIECBAgQIAAAQIECBAgQIAAAQIECNSiQENDQy12S58IECBAoBsEhH/dgKpKAgQIECBAgAABAgQIECBAgAABAgQI1JJAY2NjLXVHXwgQIECgHYFqPKwh/GsH12ECBAgQIECAAAECBAgQIECAAAECBAgQIECAAAECPSlQjYc1hH89OWLaIkCAAAECBAgQIECAAAECBAgQIECAAAECBAgQINCNAsK/bsRVNQECBAgQIECAAAECBAgQIECAAAECBAgQIECAAIGeFBD+9aS2tggQIECAAAECBAgQIECAAAECBAgQINALAsOHD++FVjVJgAABAr0hIPzrDXVtEiBAgAABAgQIECBAgAABAgQIECBAoAcFmpqaerA1TREgQIBAZwWq8bCG8K+z+q4jQIAAAQIECBAgQIAAAQIECBAgQIAAAQIECBAgUEWBajysIfyr4oCoigABAgQIECBAgAABAgQIECBAgAABAgQIECBAgEBvCgj/elNf2wQIECBAgAABAgQIECBAgAABAgQIECBAgAABAgSqKCD8qyKmqggQIECAAAECBAgQIECAAAECBAgQIECAAAECBAj0poDwrzf1tU2AAAECBAgQIECAAAECBAgQIECAAAECBAgQIECgigLCvypiqooAAQIECBAgQIAAAQIECBAgQIAAAQIECBAgQIBAbwoI/3pTX9sECBAgQIAAAQIECBAgQIAAAQIECBAgQIAAAQIEqigg/KsipqoIECBAgAABAgQIECBAgAABAgQIECBAgAABAgQI9KaA8K839bVNgAABAgQIECBAgAABAgQIECBAgAABAgQIECBAoIoCwr8qYqqKAAECBAgQIECAAAECBAgQIECAAAECtSjQ0NBQi93SJwIECBDoBgHhXzegqpIAAQIECBAgQIAAAQIECBAgQIAAAQK1JNDY2FhL3dEXAgQIEGhHoBoPawj/2sF1mAABAgQIECBAgAABAgQIECBAgAABAgQIECBAgEBPClTjYQ3hX0+OmLYIECBAgAABAgQIECBAgAABAgQIECBAgAABAgQIdKOA8K8bcVVNgAABAgQIECBAgAABAgQIECBAgAABAgQIECBAoCcFhH89qa0tAgQIECBAgAABAgQIECBAgAABAgQI9ILA8OHDe6FVTRIgQIBAbwgI/3pDXZsECBAgQIAAAQIECBAgQIAAAQIECBDoQYGmpqYebE1TBAgQINBZgWo8rCH866y+6wgQIECAAAECBAgQIECAAAECBAgQIECAAAECBAhUUaAaD2sI/6o4IKoiQIAAAQIECBAgQIAAAQIECBAgQIAAAQIECBAg0JsCwr/e1Nc2AQIECBAgQIAAAQIECBAgQIAAAQIECBAgQIAAgSoKCP+qiKkqAgQIECBAgAABAgQIECBAgAABAgQIECBAgAABAr0pIPzrTX1tEyBAgAABAgQIECBAgAABAgQIECBAgAABAgQIEKiigPCvipiqIkCAAAECBAgQIECAAAECBAgQIECAAAECBAgQINCbAsK/3tTXNgECBAgQIECAAAECBAgQIECAAAECBAgQIECAAIEqCgj/qoipKgIECBAgQIAAAQIECBAgQIAAAQIECBAgQIAAAQK9KSD86019bRMgQIBAVQVGjx4dI0aMiO233z6WWGKJUvdyyy0Xhx12WIwcObKqbfXlykaNGhVfffVVt9xijtGnn34aX3/9dbfUr1ICBAgQIECAAAECBAgQIECAAAEC/V1gkv4O4P4JECBAoG8IfPbZZ7HHHnvEW2+9Fbvsskv86le/iu9+97tx4YUXxlVXXRUbbLBBHH744bHxxht36Yb//ve/l/raqmT22WePLbfcsq2P2j32xRdfxOmnn978+SyzzBILLrhgLLnkkjHJJL3zn+mhQ4eWwHSnnXZq7le1Xrzxxhux9NJLx3nnnRdrrLHGWNU+/vjjcfXVV5dxHDx4cPzoRz+KQYMGjXVeewf22WefGDBgQJx44ontneI4AQIECBAgQIAAAQIE+qVAQ0NDv7xvN02AAIH+KNA7f6vYH6XdMwECBAh0m0DOJsvQJ8O3M888Myaa6D8T2+eff/7Yd999Y9NNNy1BUnaiKwHg22+/Hdddd125lwwa82fxxRcv7xdeeOEJDv8+//zzElTOOeecMXDgwMhw7L333oshQ4bE//zP/0TOXOxP5eCDD44ZZpgh5phjjrjgggvi3HPPjVtuuSVmnnnmsRjS7rjjjot11123BIp5wlxzzTXWebV64M033yzf2Vrtn34RIECAAAECBAgQINC3BBobG/vWDbkbAgQI9FGBajysIfzro18Ot0WAAIH+JHDbbbfFa6+9Fr/73e/GCP5aGmQodP7558dGG20Uyy677ATNJmtZT4Zx119/fTl08sknxymnnNL8vuV5E/r6pz/9aWy++eblsmeffTYyBNt6661L3d/61rcmtLq6Pf/ss89uDvq23Xbb+N73vhd33nlnbLLJJmPd0yeffFJmTeZMwkr5yU9+UnlZ879XWGGF+PGPf1xmrM4222w1318dJECAAAECBAgQIECAAAECBAgQ6H6Bajys8Z+pEd3fXy0QIECAAIFuEchQL5+IGd8ymRkAZqB02mmndUs/stJcFjSXHc3AarfddosMo/L97bffPkabGfb9+c9/HuNY5U3OIDznnHNKCJb7FVbKc889V2Y45ky3DAZzVtw333wTH374YWnjnnvuqZwaxx57bAkmKweuvPLKEijm+z333LOEinnO+uuvHzvssEO88MILlVPH+t1eu3litp+B3Q9/+MNYa621Iv/Hycsvv9xcR2V23g9+8IMSdN19993Nn7X1ouUMv6mmmqqcMtNMM4116pNPPhn77bdfOZ7jmca5V+FJJ50UZ5xxRjleGYtsM5eE3XDDDeMPf/hD5FKrxxxzTFkKNpc2zfMqJfc6zDpyduhmm21WAuOcWZol7ytnmK699trlezS+e6nU2d7vtDnrrLNi+eWXL0vS5ixShQABAgQIECBAgAABAgQIECBAgEBXBYR/XRV0PQECBAj0usADDzwQOYuqIyUDoBtvvLEjp3bqnA8++KDsWZchUYZXuezoM888U0KnSoWPPvpoCZXmnnvuyqGxfk877bSx3nrrxcMPP1wCtqeeeqqETq+++mpsscUWMd9888XPf/7z+PWvfx3TTz995F55V1xxRanno48+iqamphJyfv311+VYLqH58ccfl9fXXntt7L333vHPf/6zhFwPPfRQCSrH6sS/D4yr3Tz/008/LSHjMsssEzvuuGP87W9/K0Fbpa4MQIcPHx6rrbZamXF5xBFHVD5q83fWlyHmpZdeGrvuumusvPLKJRxrfXLFNo/nEqG5T2Iu93rffffFgw8+WE6vjEWGnYsttljMM888ceihh5bZnxnk5SzQ+++/P/bff//m6tMll47NUDRniB500EFx0UUXRYaC2223XWTomAFyLvWaS8BWo7QOAatRpzoIECBAgAABAgQIECBAgAABAgT6r4BlP/vv2LtzAhMk8Jvf/CbyRyFQiwJTTz11zDLLLB3qWgZuGXoNGjSoQ+e3PilnkB1yyCGtD4/1fsstt4yf/exn5XiGUrl/X4ZRua9fBlsZCuaMr1y6sr2SfczA7v333y///OW+gBdffHFMOumk5ZLJJ5+8LHuZexrmbLQRI0aU4znrcMYZZyzXPfLII7HooouWkCuXKa2UVVddNY4//vjyduKJJy6hWIaGGTq2LPnP/bjazRDurrvuKkFnzpDLOo4++ugyu+75558vMwyz3ZxFlyXve1zrlv/jH/+I7bffvtx31p3hW/avdcnwc6+99iohZy4JmrMh2ysZ7uXymhmE3nHHHcU8ZwdmvRk2nnDCCSVgffrpp0uAmjMq11xzzVJdhq05Q3ODDTaIl156qcww3GabbZqbOvXUU8ssy+YDXXhRCQGzigxzM7BUCBAgQIAAAQIECBAgUC2BfDAzV01RCBAgQKDvCwj/+v4Yu0MCVRE44IADIn8UAvUukEuD5jKW3V1yplul5F5+Gf5dc801kaFgztDL/8OVoeC4SgZPGRZmkJczzjLgqwR/ed0qq6xSlrjM/Q5zb7ycsfbKK6/ETTfdVMKwvM9bb701PvvssxJ8tezTUkst1dx0BmlZMpxsHf6Nr90MU7Pd6667roRjldmF2WbOeMySfauUJZZYovKyzd8LLbRQGZ+8/rLLLisBai4t2pX/g5qz9LJk2JeBas4SrASKgwcPji+//LIY5b1mOfzww+Ooo44qr997772YYoopYppppolhw4aVsDVnY+6+++7lvnJWYf50prQOoDPMzWDx97//veCvM6CuIUCAAAECBAgQIEBgnAK5QkxX/r/VOCv3IQECBAhUTaAaD2uM+28dq9ZVFREgQIAAgf4l0DJEyz3r1llnnch993LmWYZsGQKOq+TsxDw/ZwdmSDhgwIAS4LW8JkOrLBlOLbfcciW4u+222+KWW24p7a2xxhol/MuZebksass+tQwRK0FYy7orr8fXbu6PlzPnMrS6+uqr48QTT6xcWmb/5Zuso1Jypl1HSt5T7mu45JJLlv0TO3JNe+e0vNe0bPm+5b1X+pkzKQ8++ODykzMfc2nVLHlvf/rTn8rekrkEaM76q0bJ0C/3Hrz33nvLrMlq1KkOAgQIECBAgAABAgQIECBAgACB+hTIhzW6WoR/XRV0PQECBAgQ6IBABlm5l10uN5kz+Ma1TOmzzz5b9pXLZSCPPPLIUvt3vvOdyL36Pvzww+bWrrrqqrLfXe55l4HW6quvHmeddVaMGjWqhIb5PvcXzOsqy1g2X9zBF+NrN+sfMmRICf9y1l7uv1gp+T5L9rNSKvsSVt63/J3BYC5xWim5hGjOfsz7a6tUgruW17R1XkePDR06tJya+/tlWJs/OWsxZw7mkqE5G3GttdaKv/zlL2Vm3s0339zRqts8r3XoN/vss7d5noMECBAgQIAAAQIECBAgQIAAAQIEJkTAsp8TouVcAgQIECDQSYFcojOXmMxZeBdccMFYteTsuXPOOSdyz7t33nmnBE65v18uq5kl9w/MfecyjMog78UXX4z77ruvLLlZWT40P8ugbcMNN4zJJpushHKzzTZbvPDCCyVwHKvRDhwYX7u5jGf2fbfddisz/R566KHmWnNp0bzvn//852XPwQz3nnrqqebPW7/I5Uuz7xmOTj/99HHjjTeWJTmz7rbKdNNNF3l/OfswZ80dd9xxbZ3W4WO5N+JGG20UBx54YNx9990xwwwzlFmHO+ywQ+nTeuutV5ZTzRAw9wc89NBDO1x3WydmnwV+bck4RoAAAQIECBAgQIAAAQIECBAg0BUB4V9X9FxLgAABAv1aIJfaHD169BgGGebsv//+Y83sy4Aul97M8zMQq5Sc/ZXnV0rOcssZc7ncZWVmW34277zzliU8zzvvvLK3Xs7Iy33pKrPV8pwMBbOuXO4zSy5jecQRR5RAMa+vlL333rvUX3k/zzzzlOsycMuyzz77xHe/+93yenztZl25H17ul5cz5Pbbb7+4/vrrI+8rSy6T+Yc//KHs/5d1Zn8uuuiiqOwzWE76vz+yrVxu87HHHouc9ZdLieZPhnBtlby/s88+O9IklzRNr0033bQsy5nntzUWOQNz5plnbq4uZy2mWWUp0FzKc9VVVy0zGHMG5fbbbx+bbbZZqXPnnXcu95H3dsopp8QPfvCD5no680Lw1xk11xAgQIAAAQIECBAgQIAAAQIECIxPYMC//3JxdMun9Md3gc+7JjBo0KAYOXJk1ypxNYEeFvC97WFwzVVNoJa+u7lcZ4aFjY2NkXvKKQTaE6il7217fXScQEsB39mWGl7Xi4Dvbb2MlH5WBHxnKxJ+14uA72xtjlSuztLf/h7Yd7E2v4vd0Stj3R2qtVdnfxnnrv77Oq8386/2vr96RIAAAQJ9TCBnieX+cFNMMUXkEpIKAQIECBAgQIAAAQIECBAgQIAAAQIEuktgou6qWL0ECBAgQIDA/xfIvesGDhwYF154YdnLjgsBAgQIECBAgAABAgQIECBAgAABAgS6S8DMv+6SVS/fFEDaAABAAElEQVQBAgQIEPg/gauuuooFAQIECBAgQIAAAQIECBAgQIAAAQIEekTAzL8eYdYIAQIECBAgQIAAAQIECBAgQIAAAQIECBAgQIAAge4XEP51v7EWCBAgQIAAAQIECBAgQIAAAQIECBAg0KsCDQ0Nvdq+xgkQIECg5wSEfz1nrSUCBAgQIECAAAECBAgQIECAAAECBAj0ikBjY2OvtKtRAgQIEJgwgWo8rCH8mzBzZxMgQIAAAQIECBAgQIAAAQIECBAgQIAAAQIECBDoFoFqPKwh/OuWoVEpAQIECBAgQIAAAQIECBAgQIAAAQIECBAgQIAAgZ4XEP71vLkWCRAgQIAAAQIECBAgQIAAAQIECBAgQIAAAQIECHSLgPCvW1hVSoAAAQIECBAgQIAAAQIECBAgQIAAgdoRGD58eO10Rk8IECBAoFsFhH/dyqtyAgQIECBAgAABAgQIECBAgAABAgQI9L5AU1NT73dCDwgQIEBgvALVeFhD+DdeZicQIECAQL0IjB49OkaMGBHbb799LLHEEqXbyy23XBx22GExcuTIermNmu3nW2+9Fc8++2ykc8vy+eefR/70VGmvHz3VvnYIECBAgAABAgQIECBAgAABAgQIdJdANR7WEP511+iolwABAgR6VOCzzz6LnXfeOU455ZQYNmxY3HDDDaX9Cy+8MGaaaabYYIMN4oorrujRPvWlxo444oj47ne/G6uvvno88MADseKKK8Zjjz1WbnGHHXaIPfbYY4JvN69vWU9HKmjZjxxzhQABAgQIECBAgAABAgQIECBAgACBMQWEf2N6eEeAwAQK5AwchUBvC+RMtH322Sdmn332uOqqq2LDDTeM2WabrXRr/vnnj3333TeuvPLKOOGEE+o6AMzZdUcffXQ8+OCDPUr+97//Pc4888w48MAD49FHHy1h6gILLBBTTz11l/oxzTTTxITU07ofk08+eZfadzEBAgQIECBAgAABAgQIECBAgACBvigwSV+8KfdEgED3C2Tod9ppp8W5554bL730Uvc3qAUC4xC47bbb4rXXXovf/e53MdFEbT/XMtdcc8X5558fG220USy77LIxaNCgcdRYmx998skncfrpp8fSSy/dox1M2yxpN8sss5Sf/Ge/qyWD2Qmpp3U/utq+6wkQIECAAAECBAgQIECAAAECBAj0RQHhX18cVfdEoBsFWoZ+ltzrRmhVT5BAhnoNDQ0xySTj/s9aBoDbbrttCa5/8YtfTFAb3XHyySefHJNOOmn5ueaaa+I3v/lNZCCWsxcvuuii+OCDD2LllVcuMxczZD/uuONKNzJ4v/zyy+Okk06KSy65JF5//fU46KCDmrt4wAEHxBprrBHrr79+2QPx+uuvL8Fdzt7bYost4pVXXiltTj/99KWenDm5yy67xNprr91cR+VF7qGYgWOW3Dsx91LcdNNN45e//GXkEpyDBw+unNr8+4knnijLr7788ssxZMiQMmOwrfPynlrWU/Foq19t9eOnP/1pMUqHhx9+OAYMGBC5x+Pee+/d5VmJzTfjBQECBAgQIECAAAECBAgQIECAAIE6E2h7ekSd3YTuEiDQ/QIZ+uVf9K+wwgpl+T/BX/eba6HjArkHXX43O1JySdAbb7yxI6d2+zn3339/nHHGGXHBBRfEQgstVGYt5ky43D/v29/+dmy22Wbx5z//OX72s5/FVFNNVYLB7NQcc8wRCy64YDk/98276667xuhrBmXPP/98OfbCCy+UpU4PPvjgmGeeeWKKKaaIbPe3v/1tOZ4BYc4o3HXXXePtt98eo558M3DgwOaAb955540555wz/vnPf8bVV18d//rXv8Y6/6mnnir7K2aguN1228Vzzz0Xm2++eXzxxRdjndu6nnH1q61+fPrpp7HuuuuWvuTv3I/wT3/6U2yzzTaR7SsECBAgQIAAAQIECBAgQIAAAQIE+qPAuKdI9EcR90yAQJsC+ZfqOQuprVKPyye2dR+O1a9A7j2Xy1F2pMw999wlvOrt723O8ssyatSouOyyy0rI9s0335SZcDkL75BDDimfTzbZZCX8O/7442OvvfaKpqam2GSTTUroVU7owB+5V+CvfvWrWGWVVcrZGTDmfnv5O/fNy9lya665ZjzyyCPx/e9/f4wa87O8Pmca7r777mW51IceemiMc1q+yftaZJFFSqiZS7Auv/zyZfbifffd19x+y/Nbvx5Xv1r346yzziqzHu+8884SbGZdGZpm6JjtXXzxxSU8bd1GLb7ff//94yc/+Uktdk2fCBAgQIAAAQIECBAgQIAAAQIE6kxA+FdnA6a7BHpL4NZbb41TTz01zjvvvBIEtOzHyJEjW771mkBNC+TSoDkbrRZKLvX5ne98pwR/2Z9cvjNnw1166aXNsxM//vjjyFDwjTfeiOmmm65T3c57XnHFFce4dtFFFy3BXx7MpUaztBfwlw87+Ecu+ZkzAldbbbVyRWUG3quvvtqhGiakX08//XSZMZkzGisll0nNkmN8wgknlJ/KZ34TIECAAAECBAgQIECAAAECBAgQ6A8Cwr/+MMrukUAVBGabbbY4+uijY88992w3BKxCM6og0O8EcqZbpeSedVmGDRsWyy67bOVw+Z0zG3PmW+uS13z55ZdjHG59Xs6MnHjiicc4p+X+iK0/G+PECXyT/VlqqaXK0pstL83ZgB0pE9qvr7/+eoxqK++nnHLKMY57Q4AAAQIECBAgQIAAAQIECBAgQKC/CAj/+stIu08CVRJoKwSsUtWqIdDvBXIp0tzb7p133ol11lmn2SPfZ4D31VdflWPvv/9+82cZCr700kuRMwQzSMwlOXMPv94quezms88+W2b+5f6CWbL/HV2WdUL6nbMmc0/Ehx9+OJZccsly6VVXXRUZQFbeT0h9ziVAgAABAgQIECBAgEBfFmhoaOjLt+feCBAgQKCFgPCvBYaXBAh0XKASAu6xxx4dv8iZBAiMUyD3yDvooIPKz1tvvRW5BObjjz8eM800U9lDL5f9zH/2TjrppLj33nvjuOOOKyHhiSeeWGYL5oy722+/vXk5z3E21k0f7rfffrHxxhuXvQNzr9A333wzHnzwwfJT7Sa32mqruPDCC2OLLbaIDTfcsMyMzPAv9yZcYIEFqt2c+ggQIECAAAECBAgQIFDXAo2NjXXdf50nQIBAfxGoxsMawr/+8m1xnwS6SWD22WfvpppVS6DvC2yyySbRcpnLvONtt902cg+7G2+8Md59991YaaWVSriVn+WMtrPPPrvsvTnttNOWpTwXW2yxMvstQ6/JJpsszjrrrMg9OjMIzLLMMstE65C+dbsZOu6///7R3tKc2Z/8PNvMkjMU8/3MM89c3m+66abN95H9GTFiRFx88cVlD8PBgwfHbrvtVs5r/UfresbXr9b9mHTSSeOKK66ICy64IB577LGYYYYZ4pxzzok111yzdVPeEyBAgAABAgQIECBAgAABAgQIEKgLgWo8rDHg38tijc4lwpSeEci/6Bw5cmTPNKYVAlUS8L2tEqRqelzAd7fHyTVYBQHf2yogqqJHBXxne5RbY1US8L2tEqRqekzAd7bHqDVUJQHf2SpBqqbLAr6LXSasmwqMdd0MVZc6apw7xpeTAibq2KnOIkCAAAECBAgQIECAAAECBAgQIECAAAECBAgQIECg1gWEf7U+QvpHgAABAgQIECBAgAABAgQIECBAgACBLgoMHz68izW4nAABAgTqRUD4Vy8jpZ8ECBAgQIAAAQIECBAgQIAAAQIECBDopEBTU1Mnr3QZAQIECPSkQDUe1hD+9eSIaYsAAQIECBAgQIAAAQIECBAgQIAAAQIECBAgQIBAOwLVeFhD+NcOrsMECBAgQIAAAQIECBAgQIAAAQIECBAgQIAAAQIE6k1A+FdvI6a/BAgQIECAAAECBAgQIECAAAECBAgQIECAAAECBNoREP61A+MwAQIECBAgQIAAAQIECBAgQIAAAQIECBAgQIAAgXoTEP7V24jpLwECBAgQIECAAAECBAgQIECAAAECBAgQIECAAIF2BIR/7cA4TIAAAQIECBAgQIAAAQIECBAgQIAAAQIECBAgQKDeBIR/9TZi+kuAAAECBAgQIECAAAECBAgQIECAAAECBAgQIECgHQHhXzswDhMgQIAAAQIECBAgQIAAAQIECBAgQIAAAQIECBCoNwHhX72NmP4SIECAAAECBAgQIECAAAECBAgQIECAAAECBAgQaEdA+NcOjMMECBAgQIAAAQIECBAgQIAAAQIECBDoKwINDQ195VbcBwECBAiMR0D4Nx4gHxMgQIAAAQIECBAgQIAAAQIECBAgQKDeBRobG+v9FvSfAAEC/UKgGg9rCP/6xVfFTRIgQIAAAQIECBAgQIAAAQIECBAgQIAAAQIECNS6QDUe1hD+1foo6x8BAgQIECBAgAABAgQIECBAgAABAgQIECBAgACBDgoI/zoI5TQCBAgQIECAAAECBAgQIECAAAECBAgQIECAAAECtS4g/Kv1EdI/AgQIECBAgAABAgQIECBAgAABAgQIdFFg+PDhXazB5QQIECBQLwLCv3oZKf0kQIAAAQIECBAgQIAAAQIECBAgQIBAJwWampo6eaXLCBAgQKAnBarxsIbwrydHTFsECBAgQIAAAQIECBAgQIAAAQIECBAgQIAAAQIE2hGoxsMawr92cB0mQIAAAQIECBAgQIAAAQIECBAgQIAAAQIECBAgUG8Cwr96GzH9JUCAAAECBAgQIECAAAECBAgQIECAAAECBAgQINCOgPCvHRiHCRAgQIAAAQIECBAgQIAAAQIECBAgQIAAAQIECNSbgPCv3kZMfwkQIECAAAECBAgQIECAAAECBAgQIECAAAECBAi0IyD8awfGYQIECBAgQIAAAQIECBAgQIAAAQIECBAgQIAAAQL1JiD8q7cR018CBAgQIECAAAECBAgQIECAAAECBAgQIECAAAEC7QgI/9qBcZgAAQIECBAgQIAAAQIECBAgQIAAAQIECBAgQIBAvQkI/+ptxPSXAAECBAgQIECAAAECBAgQIECAAAECBAgQIECAQDsCwr92YBwmQIAAAQIECBAgQIAAAQIECBAgQIBAXxFoaGjoK7fiPggQIEBgPALCv/EA+ZgAAQIECBAgQIAAAQIECBAgQIAAAQL1LtDY2Fjvt6D/BAgQ6BcC1XhYQ/jXL74qbpIAAQIECBAgQIAAAQIECBAgQIAAAQIECBAgQKDWBarxsIbwr9ZHWf8IECBAgAABAgQIECBAgAABAgQIECBAgAABAgQIdFBA+NdBKKcRIECAAAECBAgQIECAAAECBAgQIECAAAECBAgQqHUB4V+tj5D+ESBAgAABAgQIECBAgAABAgQIECBAoIsCw4cP72INLidAgACBehEQ/tXLSOknAQIECBAgQIAAAQIECBAgQIAAAQIEOinQ1NTUyStdRoAAAQI9KVCNhzWEfz05YtoiQIAAAQIECBAgQIAAAQIECBAgQIAAAQIECBAg0I5ANR7WEP61g+swAQIECBAgQIAAAQIECBAgQIAAAQIECBAgQIAAgXoTEP7V24jpLwECBAgQIECAAAECBAgQIECAAAECBAgQIECAAIF2BIR/7cA4TIAAAQIECBAgQIAAAQIECBAgQIAAAQIECBAgQKDeBIR/9TZi+kuAAAECBAgQIECAAAECBAgQIECAAAECBAgQIECgHQHhXzswDhMgQIAAAQIECBAgQIAAAQIECBAgQIAAAQIECBCoNwHhX72NmP4SIECAAAECBAgQIECAAAECBAgQIECAAAECBAgQaEdA+NcOjMMECBAgQIAAAQIECBAgQIAAAQIECBAgQIAAAQIE6k1A+FdvI6a/BAgQIECAAAECBAgQIECAAAECBAgQIECAAAECBNoREP61A+MwAQIECBAgQIAAAQIECBAgQIAAAQIE+opAQ0NDX7kV90GAAAEC4xEQ/o0HyMcECBAgQIAAAQIECBAgQIAAAQIECBCod4HGxsZ6vwX9J0CAQL8QqMbDGsK/fvFVcZMECBAgQIAAAQIECBAgQIAAAQIECBAgQIAAAQK1LlCNhzWEf7U+yvpHgAABAgQIECBAgAABAgQIECBAgAABAgQIECBAoIMCwr8OQjmNAAECBAgQIECAAAECBAgQIECAAAECBAgQIECAQK0LCP9qfYT0jwABAgQIECBAgAABAgQIECBAgAABAl0UGD58eBdrcDkBAgQI1IuA8K9eRko/CRAgQIAAAQIECBAgQIAAAQIECBAg0EmBpqamTl7pMgIECBDoSYFqPKwh/OvJEdMWAQIECBAgQIAAAQIECBAgQIAAAQIECBAgQIAAgXYEqvGwhvCvHVyHCRAgQIAAAQIECBAgQIAAAQIECBAgQIAAAQIECNSbgPCv3kZMfwkQIECAAAECBAgQIECAAAECBAgQIECAAAECBAi0IyD8awfGYQIECBAgQIAAAQIECBAgQIAAAQIECBAgQIAAAQL1JiD8q7cR018CBAgQIECAAAECBAgQIECAAAECBAgQIECAAAEC7QgI/9qBcZgAAQIECBAgQIAAAQIECBAgQIAAAQIECBAgQIBAvQkI/+ptxPSXAAECBAgQIECAAAECBAgQIECAAAECBAgQIECAQDsCwr92YBwmQIAAgfoTGD16dIwYMSK23377WGKJJcoNLLfccnHYYYfFyJEj6++G9LhfCPje9q1h/uqrr2LUqFF966bcDQECBAgQIECAAAECBAgQIFBXAsK/uhounSVAgACB9gQ+++yz2HnnneOUU06JYcOGxQ033FBOvfDCC2OmmWaKDTbYIK644or2LnecQK8I+N6OyX7HHXfESSedFM8+++yYH/z73UUXXRQ33njjWMe7cqDSXrZZ+bn22mu7UmWcccYZsdRSS3WpDhcTIECAAAECBAgQIECAAAECBLoiMElXLnYtAQIECBCoBYGcObXPPvvE7LPPHmeeeWZMNNF/nm2Zf/75Y999941NN900fvSjH5XubrzxxrXQbX3o5wK+t2N/AW699dZoamqKDOCuueaamGSS//xP1XPPPTcWWGCB+N73vjf2hZ08ku394Q9/iKFDhzbX8Mknn8R6663X/L43X9x1111x2223xaGHHtqb3Rij7TfffLP8u3aMg94QIECAAAECBAjUhUBDQ0Nd9FMnCRAgQKDrAv/529Gu16UGAgQIECDQKwL5l+OvvfZaHHXUUWMEfy07M9dcc8X5558f//3f/20J0JYwXveagO9t2/TTTDNNPPnkkyUEbPuM6h6dY4454vrrr2/+Ofjgg6vbQBdqy37dfvvtXaih+peusMIKcfjhh8dbb71V/crVSIAAAQIECBAg0K0CjY2N3Vq/ygkQIECgOgLVeFhD+FedsVALAQIECPSiQIZ6+R/FlrOE2upOBoDbbrttnHbaaW197BiBHhXwvW2be5ZZZilL+P7mN7+Jl19+ue2T/n30vffei4MOOijWXXfd2G677eK+++4r5+Yen+ecc07zdZdeemnstdde8c0335RjTz/9dOyyyy7x/vvvN5/T+kUuB5rnvP32280fPf/88+XYM888E88991wccMABZYbgRhttFL///e+bz2v54oMPPijXZJhZKRn67rbbbpW3ccstt5T7zRmNP/zhDyPbzvLLX/4ybr755nj11VdLHRdffHE5nnsK5hKlOYN5s802Kw815CzSniqff/55nHXWWbH88ssLAXsKXTsECBAgQIAAAQIECBAg0K8EqvGwhvCvX31l3CwBAgT6psADDzwQORulI2XDDTes+r5hHWnXOQRaC/jethb5z/sDDzwwZp111sjfbQVbo0aNKvt4PvTQQ7HNNttEzhbcfPPN48UXX4xPP/10jDAul/XMAPCpp54qDYwYMSIeeeSRmGGGGcr7DLMeffTR5p8MBRdccMGy7Ohf//rX5k5l+HbPPfdELiX85z//OT766KMS1i266KKRgWOGeK1L7ul49dVXjxEiZqCZxyrl5JNPjpx9uOOOO5Z73WGHHUqwOeecc8bAgQNj8sknL/2ZeeaZyyV77713Wd54/fXXj2WXXbYEoLkfYk+XliFgtm0mYE+PgPYIECBAgAABAgQIECBAgED7Av/ZSKX9c3xCgACByBkY+aMQqEWBqaeeOnK2UEfK3HPPHf/85z9j0KBBHTndOQS6TcD3dkzalrPnpppqqjjuuONiq622igy28nfLcsEFF5RALcO5DMXy85z5d8kll5Q9AS+88MJ4/fXXY4oppoi//e1vkUFahnMZ1OU+emuttVYMGDCgVJmhVc4erJT8b13OwFtllVXiqquuip122qnMGrz88stLwDjZZJOVWX85flkyBLvyyisjw9w11lijUk2Hf+cM0EpdiyyySKyzzjolqMxQM2cZ5ky/DEGz5AzCK664InL/wzXXXLMcy5mBGUamQQaIuVRoT5a8/yyrrbZaZEC62GKL9WTz2iJAgAABAgQIECBAgAABAgTaEBD+tYHiEAECYwvk8mb5oxCod4FcGjSX7FMI1JNAf/ne3n///c3Dsuqqq5ZAK/fyrARdlQ+feOKJ+PLLL2PYsGGVQ/Huu++WvT9zic+cLZfLZ0466aSx8MILl1mCt956a1ke+MEHH4zdd9+9+brBgwfHDTfc0Pw+g8csW265Zeyxxx5lj9BXXnml/M5ALssLL7wQp556apktOHLkyBIOfvLJJ+WzCf0jl/bMMC+DvlzKNMvHH3/cZjWV5UNzz710yZLXZMiZJWc5dndp/eBEWmcAmL6zzz57dzevfgIECBAgQIAAgS4IDB8+vCwp34UqXEqAAAECdSIg/KuTgdJNAgQIECBAgEB/E8iQK8OxQw89dIxbz1l7Odv34IMPHuN4Lp+Z4d3KK6/cvHde7qW3+uqrx29/+9tS18QTTxwrrrhi83X5vrIEaPPBf7/IGXjTTjttmdX30ksvlT3uFlhggfjXv/5VZgAuvfTSceKJJ5YlOTfddNOWlza/rswu/OKLL5qPVWbK5YG77747ch3/XXfdtdxjLl+aMw7bK5X69t1339K3ynkZwPV0yTYzDM2AdMkllxT89fQAaI8AAQIECBAg0AmBpqYm4V8n3FxCgACBnhaoxsMawr+eHjXtESBAgAABAgQIdEgg97w79thjy4y9XBozw7csQ4cOLUt85t58+ZMl9+DLmX5ZclnPX//612XJzFwidIkllojpp58+jj/++MgZhZWZcuXkdv6YcsopY6ONNoprr7227CV49NFHlzMzCMyZedttt10JEV977bXIpTfbKjPOOGNMNNFE8fjjj8f3v//9sqdfzkislMcee6y83G+//WK66aaLXFq0ZclrK7MB83jed5ZcCjTDySxff/11fPDBB+V1T/zRMvQz068nxLVBgAABAgQIECBAgAABAv1NoBoPawj/+tu3xv0SIECAAAECBOpIYP311y978l133XXNvd56663j7LPPjg033DA22WSTyJl1+Xnuh5dhYM72+/nPfx6zzjprCf4yRFvt33vSXXbZZWWWXXNF/37xxhtvlHoqx3JGYWX/wS222KJ8liFk9iPLfPPNV2bdHXnkkXHnnXeW5S4zKGyrZBiZfTnllFNKO//4xz/GWHZ48cUXL5f9+Mc/jiFDhsTtt98+RjULLbRQvPnmmyX8zNmLed8ZSOYegDlrMGcsZh922GGHEkaOcXE3vbn33nvN8usmW9USIECAAAECBAgQIECAAIFqCQj/qiWpHgIECBAgQIAAgS4J/Nd//VfMOeecY9WRs/9y1tsiiyxSPstZgNdff32cc8458fzzz5dZczmrL4O5LLkv3RFHHFFCqgz+suy4444x77zzxtprr13e5x/ZXtbVsuRSn5Wy1FJLlRBxnnnmaZ4tmDMI//KXv8T5559f9vo76aSTIvfim3vuuctlyyyzzBh7Cmbwl8t1vPzyy2W2XgZ3lZBvpZVWKp/ddNNNJcjLOnP237e+9a1SV4aPOavvxRdfLPeUB3OvwZy9+MADD8SoUaNi++23j80226yc3xN/mO3XE8raIECAAAECBAgQIECAAAECXRMY8O89OkY/9NBDXavF1R0WyL+MGjlyZIfPdyKBWhDwva2FUdCHzgj47nZGzTW9LeB729sjoP0JFfCdnVAx59eCgO9tLYyCPkyIgO/shGg5txYEfGdrYRTG7kM+3Nbf/h7Yd3Hs70FfPWKs++rIjnlf/WWcu/rv67z+/z8KPaafdwQIECBAgAABAgQIECBAgAABAgQIECBAgAABAgQI1KGA8K8OB02XCRAgQIAAAQIECBAgQIAAAQIECBAgQIAAAQIECLQlIPxrS8UxAgQIECBAgAABAgQIECBAgAABAgQIECBAgAABAnUoIPyrw0HTZQIECBAgQIAAAQIECBAgQIAAAQIECBAgQIAAAQJtCQj/2lJxjAABAgQIECBAgAABAgQIECBAgAABAgQIECBAgEAdCgj/6nDQdJkAAQIECBAgQIAAAQIECBAgQIAAAQITItDQ0DAhpzuXAAECBOpYQPhXx4On6wQIECBAgAABAgQIECBAgAABAgQIEOiIQGNjY0dOcw4BAgQI9LJANR7WEP718iBqngABAgQIECBAgAABAgQIECBAgAABAgQIECBAgEAKVONhDeGf7xIBAgQIECBAgAABAgQIECBAgAABAgQIECBAgACBPiIg/OsjA+k2CBAgQIAAAQIECBAgQIAAAQIECBAgQIAAAQIECAj/fAcIECBAgAABAgQIECBAgAABAgQIECDQxwWGDx/ex+/Q7REgQIBARUD4V5HwmwABAgQIECBAgAABAgQIECBAgAABAn1UoKmpqY/emdsiQIBA3xKoxsMawr++9Z1wNwQIECBAgAABAgQIECBAgAABAgQIECBAgAABAnUqUI2HNYR/dTr4uk2AAAECBAgQIECAAAECBAgQIECAAAECBAgQIECgtYDwr7WI9wQIECBAgAABAgQIECBAgAABAgQIECBAgAABAgTqVED4V6cDp9sECBAgQIAAAQIECBAgQIAAAQIECBAgQIAAAQIEWgsI/1qLeE+AAAECBAgQIECAAAECBAgQIECAAAECBAgQIECgTgWEf3U6cLpNgAABAgQIECBAgAABAgQIECBAgAABAgQIECBAoLWA8K+1iPcECBAgQIAAAQIECBAgQIAAAQIECBAgQIAAAQIE6lRA+FenA6fbBAgQIECAAAECBAgQIECAAAECBAgQIECAAAECBFoLCP9ai3hPgAABAnUrMHr06BgxYkRsv/32scQSS5T7WG655eKwww6LkSNH1u196XjfFvC97f7x/fzzzyN/FAIECBAgQIAAAQIECBAgQIBAfxAQ/vWHUXaPBAgQ6AcCn332Wey8885xyimnxLBhw+KGG24od33hhRfGTDPNFBtssEFcccUV/UDCLdaTgO9tz4zWDjvsEHvssUfPNDaOVh577LFYccUVI38rBAgQIECAAAECBHpaoKGhoaeb1B4BAgQI9JKA8K+X4DVLoK8IvPXWW33lVtxHHQvkzKl99tknZp999rjqqqtiww03jNlmm63c0fzzzx/77rtvXHnllXHCCScIAOt4nPta12v9e/vKK6/EfvvtF5988klfo+/S/fzpT3+K888/v1N1TDPNNLHAAgvE1FNP3anrKxcZm4qE3wQIECBAgAABAhMi0NjYOCGnO5cAAQIEekmgGg9rCP96afA0S6DeBTL0O+KII2KFFVao91vR/z4gcNttt8Vrr70WRx11VEw0Udv/aZtrrrnKX9j/93//tyVA+8CY94VbqPXv7RNPPBEXXXRRfPXVV32Bu2r3cPbZZ8ezzz7bqfryYYRzzz23BICdquD/LjI2XdFzLQECBAgQIECAAAECBAgQqG2Bajys0fbfkNb2fesdAQK9KNAy9DvzzDMjl6xTCPS2QM7CySdiJplkknF2JQPAbbfdNk477bRxnudDAj0h0JPf27///e+xyy67xJ133hm77bZb/OIXvyi3+N5778VBBx0U6667bmy33XZx3333leOXX355nH766eV1zqo9+uij44MPPih1PPnkk808GWBmfZWy5557xjXXXBOHH354bLXVVuVwHrv++uvj2GOPjfXXXz9yCc4XXnihcslYv9vrU/4358ADDxzj/Gwr2//yyy/jlltuKUv/fu9734sf/vCHcccdd4xxbuXN/fffX+4jr6mUpqam+O1vf1vefvPNN5EBX9ax1lprRf4P7pdffrm0kYavv/563HTTTaWOv/3tb+Wa9vpcqb/y+6WXXirXZR1ZTj755OJ8wQUXxOabbx6bbbZZ85LF+Xm2m/5rr712+XfX3XffHW2NTZ773HPPxQEHHBDrrbdebLTRRvH73/8+D5cyvnbypHvuuafc6/e///3yuzJGHb23/9+SPwkQIECAAAECBAgQIECAAIFaEBD+1cIo6AOBOhAQ+tXBIPXjLj7wwAMdnoWaS4LeeOON/VjLrdeKQE9+bzO4u/rqq0uQNNVUU8WMM84Yo0aNKnthPvTQQ7HNNttELkmZAdSLL75YPp9jjjkKVc5Wm3vuucvDHlnH22+/3UyY4VQeq5Rrr702Dj744MiQa9555y2H89jee+8d//znP2PjjTeObK9lYFi5Nn+Pq0+5d+d5550XTz/9dPMlGeTnNZNOOmkJ0rLPO+64Y+SSqhkyZnDVumTwln3OkK9Ssk//+7//W95++umnZe/QZZZZptSVAV/uFzhgwIBYcMEFY/LJJ4+BAweW12k2rj5X6q/8ToNs+1//+lc5lEFkho65H2kGo7nE6q677lqMc8ZlBrIZtuZDC4svvng5nmPXemyysj//+c/x0UcfldBy0UUXjcMOO6wEovnZuNrJz3O55Bz7L774Irbeeusy/jnOE3JvWY9CgAABAgQIECBAgAABAgQI1IbAuKdI1EYf9YIAgRoQWH311cusj7a6MmjQoLYOO0agxwRy/6xZZpmlQ+1liJF/Ae972yEuJ3WjQE99bzO0qgR0W265ZfzsZz8rd5UzwzLg+etf/xozzzxzmamXM/8uueSScs7HH39cZvHlzLPpp58+3nzzzQ5pZFiY++K1XIJ31VVXjeOPP75cP/HEE8ehhx5agqppp512jDpzBlx7fcoAMc/P/TuHDh0aOZvxkUceiT/+8Y+ljpxJWdlLb5FFFol11lknnnrqqVhllVXGaGN8bzIcveuuuyJ/Z4iYgVrOfMywMGceXnfddbH00ks3z0Icn+P42ssAMZcCzVBxueWWizXXXLPc10orrVRC1JxtmOFsy9J6bPKznPVXuf/PP/+8OGXAvMYaa5RL22snZxXmMt45YzBnV7Ys47q3n/70p2Uf1Z/85CctL/GaAAECBAgQIECghgWGDx9eVqKo4S7qGgECBAhUSUD4VyVI1RDo6wK33nprnHrqqWXWRf6lYssycuTIlm+9JlDTArk0aC6PpxCoJ4Gufm8zJMuy2mqrld/5R+4bl0tfDhs2rPnYu+++W/bPbD7QiRcZ9LUM/rKKpZZaqrmm+eabr7zO2Yitw79x9WnKKacsy1lmWJkBZi5/mTPg8uGULDfffHMJ0Z555pnmGX8Zkk1o+frrr0sIliFfzmCs1JHLXE822WRjVTeuPo91chsHcpZeBn9ZMjjNkjYZ1uXY5PKrDz/8cOy+++6RS5q2V3KZzvzv9KOPPlr2Nc2wMmcSVkp77eTM/vzJWZmty7juLcdY8NdazHsCBAgQIECAQG0L5HL3+XCZQoAAAQK1LVCNhzWEf7U9xnpHoGYEZptttjLzIfduai8ErJnO6ggBAgQItCnQMmzLGYE5YzaX6WxZKktKtjyWr/P8LLk0ZKW0fhgkj7dso3JeLstZKTnzr70yvj5tscUW5SGUxx57LC677LIyWzGD0dwLL/fmyyUzc1ZhBmftzfir3EcGn5XQreV9nHTSSWXZz2OOOSaWXXbZyGU/99133/a6XFwmxLF1RS33Km1tc+KJJ8YPfvCDyL+kySVAc6zyv8OtSy4jmst25ozEvCaXJ910003HOK29dirjmbMcW5fxjUfr870nQIAAAQIECBAgQIAAAQIEui5QjYc17PnX9XFQA4F+JVAJAXNvpJ122qn5L077FYKbJUCAQB8QyKUz33nnnRIU5RKZ+ZNLTS688MLl7iqz995///3yPveay2OPP/54eZ9h0R133FFVifH1KWcQLrDAAvHrX/+6LPuZ+9NlyTAwy3777RdLLLFE8/tysNUfucRplsp95LKeObOuUnLm3JAhQ8pSmwsttFDk0pktSwZ0FZM8Pr4+t7x2Ql7nDMScbbjWWmvFX/7yl1hsscXK7Maso/XYVGYoZkC44oorRoaZr776aoeam3POOSP3U7zooosi28ySY5uhYHfdW4c65iQCBAgQIECAAAECBAgQIECg0wJm/nWazoUE+rdAJQTcY489+jeEuydAgECdCmRwdvbZZ8eGG24Ym2yySQl7cqnLK664ogSC3/rWt8qsttxrL/eiyxl1uezkKaecEm+88Ub84x//qPoSuuPrU85Ey9l///M//1OW+xw8eHDRX3zxxcvvH//4xyW4u/3229sdlQwQZ5111jJTcP3114977rknWs64y/DwhBNOiN12262YPPTQQ2PUlYHg9ddfH3vttVeZjTe+Po9x8QS8yb0Pcx++ddddt4SATz/9dBmDrKL12GRfcsblkUceGXfeeWfkUt25TGpHSgaJuadh1rHBBhuUJVpzmdj9998/uuveOtIv5xAgQIAAAQIECBAgQIAAAQKdFxD+dd7OlQQI/Ftg9tln50CAAAECNS6Q/67OMCeXp6yUqaeeuoRY55xzTjz//PMx3XTTxfHHHx+VPfly6cjf/e53cdttt0UlZMvgL9edf/nll8tMwQMPPDBaBm0ZFC655JKVJsrv1sfmmWee0pfpp59+jPPyzfj6lOdsueWWZWbbmmuumW9LyRmL2a+bbropZphhhjj//PPLnoAZkmXJJTAry15mKJb7BeZ95554hxxySIwaNarUmedmf3PZ0CeffDIyVMzZhBn2VZYIzYAtw8O8JmdDdqTPWW+WQYMGlXuvzD7M0LXSr/w8g7gcp0UWWaTUvfPOO0fuYZhtp30uAZql9dikZc4OzPvOvf5y6dLs/9xzz13OH1c7eULu95fnXn311ZGhY4a8OY4Tcm+lIX8QIECAAAECBAgQIECAAAECNSEw4N//x3506yeaa6JnfbQT+Zc+I0eO7KN357b6qoDvbV8d2b5/X767fX+M++Id+t72xVHt2/fkO9u3x7ev3p3vbV8d2b57X76zfXds++qd+c7W5sjmKhj97e+BfRdr87vYHb0y1t2hWnt19pdx7uq/r/N6e/7V3vdXjwgQIECAAAECBAgQIECAAAECBAgQIECAAAECBAh0SkD41yk2FxEgQIAAAQIECBAgQIAAAQIECBAgQIAAAQIECBCoPQHhX+2NiR4RIECAAAECBAgQIECAAAECBAgQIECAAAECBAgQ6JSA8K9TbC4iQIAAAQIECBAgQIAAAQIECBAgQIAAAQIECBAgUHsCwr/aGxM9IkCAAAECBAgQIECAAAECBAgQIECAQFUFGhoaqlqfyggQIECgdgWEf7U7NnpGgAABAgQIECBAgAABAgQIECBAgACBqgg0NjZWpR6VECBAgED3ClTjYQ3hX/eOkdoJECBAgAABAgQIECBAgAABAgQIECBAgAABAgQIdEigGg9rCP86RO0kAgQIECBAgAABAgQIECBAgAABAgQIECBAgAABArUvIPyr/THSQwIECBAgQIAAAQIECBAgQIAAAQIECBAgQIAAAQIdEhD+dYjJSQQIECBAgAABAgQIECBAgAABAgQIEKhfgeHDh9dv5/WcAAECBCZIQPg3QVxOJkCAAAECBAgQIECAAAECBAgQIECAQP0JNDU11V+n9ZgAAQL9UKAaD2sI//rhF8ctEyBAgAABAgQIECBAgAABAgQIECBAgAABAgQI1J5ANR7WEP7V3rjqEQECBAgQIECAAAECBAgQIECAAAECBAgQIECAAIFOCQj/OsXmIgIECBAgQIAAAQIECBAgQIAAAQIECBAgQIAAAQK1JyD8q70x0SMCBAgQIECAAAECBAgQIECAAAECBAgQIECAAAECnRIQ/nWKzUUECBAgQIAAAQIECBAgQIAAAQIECBAgQIAAAQIEak9A+Fd7Y6JHBAgQIECAAAECBAgQIECAAAECBAgQIECAAAECBDolIPzrFJuLCBAgQIAAAQIECBAgQIAAAQIECBAgQIAAAQIECNSegPCv9sZEjwgQIECAAAECBAgQIECAAAECBAgQIECAAAECBAh0SkD41yk2FxEgQIAAAQIECBAgQIAAAQIECBAgQIAAAQIECBCoPQHhX+2NiR4RIECAAAECBAgQIECAAAECBAgQIECgqgINDQ1VrU9lBAgQIFC7AsK/2h0bPSNAgAABAgQIECBAgAABAgQIECBAgEBVBBobG6tSj0oIECBAoHsFqvGwhvCve8dI7QQIECBAgAABAgQIECBAgAABAgQIECBAgAABAgQ6JFCNhzWEfx2idhIBAgQIECBAgAABAgQIECBAgAABAgQIECBAgACB2hcQ/tX+GOkhAQIECBAgQIAAAQIECBAgQIAAAQIECBAgQIAAgQ4JCP86xOQkAgQIECBAgAABAgQIECBAgAABAgQI1K/A8OHD67fzek6AAAECEyQg/JsgLicTIECAAAECBAgQIECAAAECBAgQIECg/gSamprqr9N6TIAAgX4oUI2HNYR//fCL45YJECBAgAABAgQIECBAgAABAgQIECBAgAABAgRqT6AaD2sI/2pvXPWIAAECBAgQIECAAAECBAgQIECAAAECBAgQIECAQKcEhH+dYnMRAQIECBAgQIAAAQIECBAgQIAAAQIECBAgQIAAgdoTEP7V3pjoEQECBAgQIECAAAECBAgQIECAAAECBAgQIECAAIFOCQj/OsXmIgIECBAgQIAAAQIECBAgQIAAAQIECBAgQIAAAQK1JyD8q70x0SMCBAgQIECAAAECBAgQIECAAAECBAgQIECAAAECnRIQ/nWKzUUECBAgQIAAAQIECBAgQIAAAQIECBAgQIAAAQIEak9A+Fd7Y6JHBAgQIECAAAECBAgQIECAAAECBAgQIECAAAECBDolIPzrFJuLCBAgQIAAAQIECBAgQIAAAQIECBAgQIAAAQIECNSegPCv9sZEjwgQIECAAAECBAgQIECAAAECBAgQIFBVgYaGhqrWpzICBAgQqF0B4V/tjo2eESBAgAABAgQIECBAgAABAgQIECBAoCoCjY2NValHJQQIECDQvQLVeFhD+Ne9Y6R2AgQIECBAgAABAgQIECBAgAABAgQIECBAgAABAh0SqMbDGsK/DlE7iQABAgQIECBAgAABAgQIECBAgAABAgQIECBAgEDtCwj/an+M9JAAAQIECBAgQIAAAQIECBAgQIAAAQIECBAgQIBAhwSEfx1ichIBAgQIECBAgAABAgQIECBAgAABAgTqV2D48OH123k9J0CAAIEJEhD+TRCXkwkQIECAAAECBAgQIECAAAECBAgQIFB/Ak1NTfXXaT0mQIBAPxSoxsMawr9++MVxywQIECBAgAABAgQIECBAgAABAgQIECBAgAABArUnUI2HNYR/tTeuekSAAAECBAgQIECAAAECBAgQIECAAAECBAgQIECgUwLCv06xuYgAAQIECBAgQIAAAQIECBAgQIAAAQIECBAgQIBA7QkI/2pvTPSIAAECBAgQIECAAAECBAgQIECAAAECBAgQIECAQKcEhH+dYnMRAQIECBAgQIAAAQIECBAgQIAAAQIECBAgQIAAgdoTEP7V3pjoEQECBAgQIECAAAECBAgQIECAAAECBAgQIECAAIFOCQj/OsXmIgIECBAgQIAAAQIECBAgQIAAAQIECBAgQIAAAQK1JyD8q70x0SMCBAgQIECAAAECBAgQIECAAAECBAgQIECAAAECnRIQ/nWKzUUECBAgQIAAAQIECBAgQIAAAQIECBAgQIAAAQIEak9A+Fd7Y6JHBAgQIECAAAECBAgQIECAAAECBAgQqKpAQ0NDVetTGQECBAjUroDwr3bHRs8IECBAgAABAgQIECBAgAABAgQIECBQFYHGxsaq1KMSAgQIEOhegWo8rCH8694xUjsBAgQIECBAgAABAgQIECBAgAABAgQIECBAgACBDglU42GNSTrUkpMIEOj3Ar/97W/j3HPPjcGDB8ecc85Zfufryk8em2666WLAgAH93goAAQIECBAgQIAAAQIECBAgQIAAAQIECBDoLQHhX2/Ja5dAnQnsueeesdlmm8Xrr78e//jHP8rP008/HTfddFM5lscz+GsZBubrueeeO+aff/6Yb775Yppppqmzu9ZdAgQIECBAgAABAgQIECBAgAABAgQIECBQXwLCv/oaL70l0GsCk046acw111zlp61OjB49Oj788MPmIDADwgwEH3vssXjppZfi73//e0w//fQlCMwwMH+GDh0aiy66aMw888xtVekYAQIECBAgQIAAAQIECBAgQIBAlQSGDx8eu+yyS5VqUw0BAgQI1LKA8K+WR0ffCNSRQM76GzhwYPlZZJFFxur5N998E2+88UYJAl988cXIn5w1+OSTT8aUU05ZQsAMAvPaJZdcMgYNGjRWHQ4QIECAAAECBAgQIECAAAECBAh0TqCpqUn41zk6VxEgQKBHBarxsIbwr0eHTGME+q/ARBNN1Lwk6CqrrNIMkTMGc4bgE088UX4uvfTSOOigg8r+gSuuuGLkzworrBBzzDFH8zVeECBAgAABAgQIECBAgAABAgQIECBAgACBvihQjYc1hH998ZvhngjUkUDOGJxzzjnLzzrrrFN6nrMEn3vuubjnnnvi+uuvjyOPPDKmnXbaWGONNWLdddeNZZddNiaZxL++6miYdZUAAQIECBAgQIAAAQIECBAgQIAAAQIEekjA3573ELRmCBDouEDOEhwyZEj52XHHHSNnB2YYOGLEiPjFL34Rr776amy88cax+eabx+KLLx4ZICoECBAgQIAAAQIECBAgQIAAAQIECBAgQIBAxEQQCBAgUOsCGe4tvPDCsffee8e1114b1113Xcw000yx++67x9prrx0XX3xxfP7557V+G/pHgAABAgQIECBAgAABAgQIECBAgAABAgS6XUD41+3EGiBAoNoCc801V+y3335x5513xiGHHBJXXnllLL/88nH22WfHF198Ue3m1EeAAAECBAgQIECAAAECBAgQIECAAAECBOpGQPhXN0OlowQItBbI5UFXW221OP/88+Pcc8+Nm2++OVZdddW48cYbW5/qPQECBAgQIECAAAECBAgQIECAAAECBAgQ6BcCwr9+McxukkDfF1h00UXjvPPOi+OPPz6OOOKIsiToBx980Pdv3B0SIECAAAECBAgQIECAAAECBAgQIECAAIEWAsK/FhheEiBQ/wKrrLJKmQGYewKus8468eSTT9b/TbkDAgQIECBAgAABAgQIECBAgAABAgQIECDQQQHhXwehnEaAQP0ITDnllHH00UfHz372s9hiiy3irrvuqp/O6ykBAgQIECBAgAABAgQIECBAgAABAgQIEOiCgPCvC3guJUCgtgU22WSTaGpqisbGxrj33ntru7N6R4AAAQIECBAgQIAAAQIECBDoRoGGhoZurF3VBAgQIFBLAsK/WhoNfSFAoOoCK6+8cpx++umx6667xquvvlr1+lVIgAABAgQIECBAgAABAgQIEKgHgXw4WiFAgACB2heoxsMawr/aH2c9JECgiwK5D+A+++wTO+20U3zxxRddrM3lBAgQIECAAAECBAgQIECAAAECBAgQIECgewSq8bCG8K97xkatBAjUmMCOO+4YgwcPjjPOOKPGeqY7BAgQIECAAAECBAgQIECAAAECBAgQIECgegLCv+pZqokAgRoWGDBgQBx77LFx5plnxsiRI2u4p7pGgAABAgQIECBAgAABAgQIECBAgAABAgQ6LyD867ydKwkQqDOBQYMGxVFHHRVPP/10nfVcdwkQIECAAAECBAgQIECAAAECXRMYPnx41ypwNQECBAjUjYDwr26GSkcJEKiGwLBhw2LNNdesRlXqIECAAAECBAgQIECAAAECBAjUjUBTU1Pd9FVHCRAg0J8FqvGwhvCvP3+D3DsBAgQIECBAgAABAgQIECBAgAABAgQIECBAgEDNCFTjYQ3hX80Mp44Q6L8Cn332WXz55ZftAnzxxReR5/RkGTVqVHz11Vc92aS2CBAgQIAAAQIECBAgQIAAAQIECBAgQIBAlwWEf10mVAEBAl0VWH311eO4445rt5qf//znsdlmm7X7eXd8MHTo0PjjH//YHVWrkwABAgQIECBAgAABAgQIECBAgAABAgQIdJuA8K/baFVMgACBiM8//zyOPvroePDBB3EQIECAAAECBAgQIECAAAECBAgQIECAAIFuFxD+dTuxBggQ6M8Cn3zySZx++unxzjvv9GcG906AAAECBAgQIECAAAECBAgQIECAAAECPSQwSQ+1oxkCBPqRwC233BIXXHBBvPLKKzHzzDPHbrvtFquuumqzwEUXXRSXX3552cdv2LBhzccrLx544IHITU1ff/31WH755SP3/BtXee+99+L444+PRx99NGadddbYfffdY7nllouf/vSnMWTIkNhpp52aLz/hhBPi66+/jgMOOKAs63nDDTeUYG7BBReMgw46KOadd97mcysvzj333NKX/LxS8vo11lgj1l9//Xj//fdLf++///7IvQIrbef9V5YzPe2008o9n3TSSTHllFPGE088Eaecckq8/PLLpY8HHnhgDB48uFT/pz/9Ka688spS13e+85049thjK836TYAAAQIECBAgQIAAAQIECBAgQIAAAQIExilg5t84eXxIgEBnBE4++eSYY445Yscdd4zRo0fHDjvsEBnQZTnrrLNiv/32i7nmmis22mij+MMf/lBCwko7GeBtuumm8a9//Su23HLLeOmll+LSSy+tfDzW7wzbNthgg3jooYdim222iWmmmSY233zzePHFF8u5J554Ynz11Vfl9YcffhjZt+mmmy4+/fTTEr4ts8wypZ9/+9vfYo899hir/jzw2GOPxV133TXGZyNGjIjnn3++HMu277jjjlh33XVjk002iQzvst2pppoq5p9//nJOemTAONFEE8VTTz1V+pw22223XTz33HOlzxlyXnbZZSWEXHLJJcv9fPTRR2O06w0BAgQIECBAgAABAgQIECBAgAABAgQIEBiXgJl/49LxGQECnRI4//zzY+qppy7XLrLIIrHOOuuUwGullVaKnHn3wx/+sMzUyxPWW2+9yACuUjKcm2eeecrMwUkmmSS23Xbb+N73vlf5eKzfOcPw7bffjr/+9a9lluFWW20V9913X1xyySWxxRZbRPblnnvuKTMPr7nmmnJ9hoMZzGWgl78zhMuQLffmywBusskmG6udcR1YeeWVY8011yzBXs4qzPZzj79DDz009tprrzIrMEPBDAez/OY3v4l0OeOMM8o1Obsx68jrMhicYoopymzJGWecMbbeeutxNe0zAgQIECBAgAABAgQIECBAgAABAgQIECAwhoDwbwwObwgQqIbAzTffHLlU5jPPPNM84+/jjz+ON998Mz744INYa621mpuZbbbZYtCgQc3vM/zKzzP4y5Iz5ZZYYokyO675pBYvcvnML7/8MlouH/ruu+/Ga6+9FksvvXSZeZdLaOayJgotewAAQABJREFUozmrLsPGDNXymjPPPDOuu+66Mrsw+5fls88+m+DwL6896qij4t577y3LeGbdGe61V7LPObNxtdVWK6dk+Jjl1VdfjY033rjYrbjiivGjH/2ohIC5dKpCgAABAgQIECBAgAABAgQIECBAgAABAgQ6IiD864iScwgQ6LDA3XffHY2NjbHrrruWmW+5DOcqq6xSrq/s3TdgwIAx6vvkk0+a32dwNq7Pm0/8vxd57iyzzBIHH3zwGB/lMpv5Wc7+yxl2e++9dwnnLr744nJe7r2Xe+4dc8wxseyyy0Yu+7nvvvuOUUflTdaT/WpZPv/88+a3ea9vvPFGHHHEEfHtb3+71Jv1tVeyvqWWWqos69nynAwMcznUnJGYy6Gec845JbC89dZbY+DAgS1P9ZoAAQIECBAgQIAAAQIECBAgMEECDQ0NE3S+kwkQIECgfgXs+Ve/Y6fnBGpSIPfHy5L7+uWMvcr7PDZ48OCyzGYu0Vkpd955Z/PswDy20EILxY033lhm4OX7nMWX57RXhg4dGu+8807ZTy+XF82fXF504YUXLpdsttlmZZbdYYcdFvPOO2+ssMIK5XjuLThkyJASwGWbDzzwQHtNlHAx9x6szA7MPf5aBpZZ1/e///3/x959gNlVlQsD/kJoSu8hApEqPUiHINIiVQhVek8IEkMVkCZeOlwQBIEEkE5oSugJCIQm0hSESC9SAhFDhwQM5Pdb/z3jZEiZyZyZOTPzruc5M/vsssq7N2HO+VYpZecoxscee6wur65du5bt999/v25fBghfe+21MvKvUucMBmbgL/PNYOYRRxxR1iccPXp05EhBiQABAgQIECBAgAABAgQIECDQHIHsrC0RIECAQO0LVKOzhpF/tX+f1ZBAuxJYccUVS3132223Ely7//776+o/wwwzlDXwTjvttMhg2EILLRQjRoyI2Wefve6cAQMGRK7bl+vj5Vp4Oeqt/vG6E/9vI9fEu/TSS2PLLbeMXFcvRxfmVJ5Dhw4tAcEMxuXIwz/+8Y9x9NFHl2lE89IMTOb6g/vvv3+5JgN6k0sZoDv77LPL1KIZpMs2zTTTTHWnZ15DhgyJzz//vATqckrPylSdWfec2jRHGua0oKeffnoJjOb0nhkwXH/99ct0qLlGYL6OP/74MopwySWXLEHPDJiusMIKdWXZIECAAAECBAgQIECAAAECBAgQIECAAIGOK1CNzhqCfx33+dAyAm0ikKPuBg8eXIJtc801V1x99dVx0003RQazMh144IHRo0ePeOCBB2KeeeYpx3M7R99lyrXucm2+vCbXwstg2dixY8sIwHJCgx+zzDJLDBs2rEyR+dJLL5VA4RlnnBGLLrpo3ZmHHnpomWbzJz/5Sd2+nAY0pyQdOXJkZMAyRypmPpWgXtbz+9//fjk/g2/XXntt3HLLLWU9wIsvvrgEJTMQmGnQoEGlzTlKsV+/fqUOb731VjmWU3xmcPKqq66K2WabLXIkYOY3fPjwyClI33777TIiMoOQmTLw+fvf/z5yxF/v3r3Lun9zzDFHOeYHAQIECBAgQIAAAQIECBAgQIAAAQIECBCYmkCXlVdeecKURrxMLQPHmyaQo5BGjRrVtIucTaCNBTy3bXwDFD/NAp7daaZzYRsKeG7bEF/R0yTgmZ0mNhe1sYDnto1vgOKbLOCZbTKZC9pYwDPbxjdA8XUCnsU6ig6/4V53+FtcGug+N+4+56AVa/41zspZBAgQIECAAAECBAgQIECAAAECBAgQaLcCOVOTRIAAAQKdQ0Dwr3PcZ60kQIAAAQIECBAgQIAAAQIECBAgQKATC+SyJRIBAgQI1L5ANTprCP7V/n1WQwIEqijw8ccfx5AhQ8p6glXMVlYECBAgQIAAAQIECBAgQIAAAQIECBAgQKDZAtXorDF9s2shAwIECLQjgQsvvDA++uij6NKlSzuqtaoSIECAAAECBAgQIECAAAECBAgQIECAAIHGCQj+Nc7JWQQIdACBUaNGxVVXXRXDhg3rAK3RBAIECBAgQIAAAQIECBAgQIAAAQIECBAg8E0B035+08QeAgQ6oMCECRPi6KOPjn322Se6d+/eAVuoSQQIECBAgAABAgQIECBAgAABAgQIECBAIMLIP08BAQKdQuDSSy+NN998M6oxX3KnANNIAgQIECBAgAABAgQIECBAgAABAgQIEGiXAoJ/7fK2qTQBAk0ReOihh+Lss8+OW2+9NWacccamXOpcAgQIECBAgAABAgQIECBAgAABAgQIECDQrgQE/9rV7VJZAgSaKvDwww9H//79y4i/Hj16NPVy5xMgQIAAAQIECBAgQIAAAQIECBAgQIAAgXYlYM2/dnW7VJYAgcYK5Bp/Q4YMib59+8aFF14YvXr1auylziNAgAABAgQIECBAgAABAgQIECBAgAABAu1WwMi/dnvrVJwAgckJjBkzJo455ph47rnn4g9/+EMsvfTSkzvVfgIECBAgQIAAAQIECBAgQIAAAQIECBAg0KEEjPzrULdTYwh0boGvv/46rr322lh//fVjgQUWiDvvvFPgr3M/ElpPgAABAgQIECBAgAABAgQI/J9Azo4kESBAgEDnEDDyr3PcZ60k0KEFcorP+++/P0466aT41re+FVdeeWX07NmzQ7dZ4wgQIECAAAECBAgQIECAAAECTRHo379/U053LgECBAi0kUA1OmsI/rXRzVMsAQLNF/jqq6/irrvuinPPPTc+/fTTOPzww2OzzTaL6aYzqLn5unIgQIAAAQIECBAgQIAAAQIECBAgQIAAgdYWqEZnDcG/1r5ryiNAoNkCb731VgwZMqRM8dm9e/cYMGBAbLLJJoJ+zZaVAQECBAgQIECAAAECBAgQIECAAAECBAi0dwHBv/Z+B9WfQCcRyJF99957b1x33XXx1FNPxTbbbBNXX321Nf06yf3XTAIECBAgQIAAAQIECBAgQIAAAQIECBBonIDgX+OcnEWAQBsIjB49ukzrOXz48Hj88cdjtdVWi6233jouueSSmHnmmdugRookQIAAAQIECBAgQIAAAQIECLRPgcGDB0e/fv3aZ+XVmgABAgSaJCD41yQuJxMg0FBgwoQJ0aVLl4a7p+n9Rx99FI899lj8+c9/jj/96U/xj3/8IzbYYIP4yU9+EhdeeGHMOuus05SviwgQIECAAAECBAgQIECAAAECnV1g0KBBgn+d/SHQfgIE2oVANTprCP61i1utkgRqTyCDftdee20J0B155JFNruDXX38dr732WjzzzDPxl7/8JR555JF4/fXXY+WVV4611lorjj/++LI9wwwzNDlvFxAgQIAAAQIECBAgQIAAAQIECBAgQIAAgfYoUI3OGoJ/7fHOqzOBNhZ466234vDDD48RI0ZE7969p1qbzz77LF555ZV48cUXS7Dvb3/7W4wcOTLmnnvuWGGFFaJnz55x6qmnxoorrhiCfVPldAIBAgQIECBAgAABAgQIECBAgAABAgQIEJisgODfZGkcIECgoUCO1rviiivipJNOigzoZXr77bfL7/Hjx8eoUaPKSMAcwffyyy/HSy+9VF5jxoyJxRZbLJZccslYfvnl45BDDilBvznnnLNc6wcBAgQIECBAgAABAgQIECBAgAABAgQIECBQHQHBv+o4yoVAhxfIKToPPfTQsh5f/cZmgC+n6czA37zzzhs9evQoryWWWCJ69eoVSy21VCy88MLRtWvX+pfZJkCAAAECBAgQIECAAAECBAgQIECAAAECBFpAQPCvBVBlSaAjCmy22Wbx0UcffaNp//73vyPnIP7e974XM8000zeO20GAAAECBAgQIECAAAECBAgQIECAAAECBAi0nsB0rVeUkggQaM8CjzzySJx++umxxhprRJcuXSZqyswzzyzwN5GINwQIECBAgAABAgQIECBAgAABAgQIECBAoG0EBP/axl2pBNqdQK7Pt+uuu8ZNN91Upv48/PDDI6f2zPTWW2+1u/aoMAECBAgQIECAAAECBAgQIECAAAECBAgQ6IgCgn8d8a5qE4EWFsg1/A466KC4//77484774zu3bu3cImyJ0CAAAECBAgQIECAAAECBAgQIECAAAECBBojYM2/xig5hwCBSQrk9J89e/ac5DE7CRAgQIAAAQIECBAgQIAAAQIECBAgQIAAgdYXMPKv9c2VSIAAAQIECBAgQIAAAQIECBAgQIAAgVYV6Nu3b6uWpzACBAgQaDsBwb+2s1cyAQIECBAgQIAAAQIECBAgQIAAAQIEWkWgf//+rVKOQggQIECgeQLV6Kwh+Ne8e+BqAgQIECBAgAABAgQIECBAgAABAgQIECBAgAABAlURqEZnDcG/qtwKmRAgQIAAAQIECBAgQIAAAQIECBAgQIAAAQIECBBoewHBv7a/B2pAgAABAgQIECBAgAABAgQIECBAgAABAgQIECBAoCoCgn9VYZQJAQIECBAgQIAAAQIECBAgQIAAAQIEaldg8ODBtVs5NSNAgACBqgoI/lWVU2YECBAgQIAAAQIECBAgQIAAAQIECBCoPYFBgwbVXqXUiAABAgS+IVCNzhqCf99gtYMAAQIECBAgQIAAAQIECBAgQIAAAQIECBAgQIBA6wtUo7OG4F/r3zclEiBAgAABAgQIECBAgAABAgQIECBAgAABAgQIEGgRAcG/FmGVKQECBAgQIECAAAECBAgQIECAAAECBAgQIECAAIHWFxD8a31zJRIgQIAAAQIECBAgQIAAAQIECBAgQIAAAQIECBBoEQHBvxZhlSkBAgQIECBAgAABAgQIECBAgAABAgQIECBAgACB1hcQ/Gt9cyUSIECAAAECBAgQIECAAAECBAgQIECAAAECBAgQaBEBwb8WYZUpAQIECBAgQIAAAQIECBAgQIAAAQIECBAgQIAAgdYXEPxrfXMlEiBAgAABAgQIECBAgAABAgQIECBAgAABAgQIEGgRAcG/FmGVKQECBAgQIECAAAECBAgQIECAAAECBAgQIECAAIHWFxD8a31zJRIgQIAAAQIECBAgQIAAAQIECBAgQKBVBfr27duq5SmMAAECBNpOQPCv7eyVTIAAAQIECBAgQIAAAQIECBAgQIAAgVYR6N+/f6uUoxACBAgQaJ5ANTprCP417x64mgABAgQIECBAgAABAgQIECBAgAABAgQIECBAgEBVBKrRWUPwryq3QiYECBAgQIAAAQIECBAgQIAAAQIECBAgQIAAAQIE2l5A8K/t74EaECBAgAABAgQIECBAgAABAgQIECBAgAABAgQIEKiKgOBfVRhlQoAAAQIECBAgQIAAAQIECBAgQIAAgdoVGDx4cO1WTs0IECBAoKoCgn9V5ZQZAQIECBAgQIAAAQIECBAgQIAAAQIEak9g0KBBtVcpNSJAgACBbwhUo7OG4N83WO0gQIAAAQIECBAgQIAAAQIECBAgQIAAAQIECBAg0PoC1eisIfjX+vdNiQQIECBAgAABAgQIECBAgAABAgQIECBAgAABAgRaREDwr0VYZUqAAAECBAgQIECAAAECBAgQIECAAAECBAgQIECg9QUE/1rfXIkECBAgQIAAAQIECBAgQIAAAQIECBAgQIAAAQIEWkRA8K9FWGVKgAABAgQIECBAgAABAgQIECBAgAABAgQIECBAoPUFBP9a31yJBAgQIECAAAECBAgQIECAAAECBAgQIECAAAECBFpEQPCvRVhlSoAAAQIECBAgQIAAAQIECBAgQIAAAQIECBAgQKD1BQT/Wt9ciQQIECBAgAABAgQIECBAgAABAgQIECBAgAABAgRaREDwr0VYZUqAAAECBAgQIECAAAECBAgQIECAAAECBAgQIECg9QUE/1rfXIkECBAgQIAAAQIECBAgQIAAAQIECBBoVYG+ffu2ankKI0CAAIG2ExD8azt7JRMgQIAAAQIECBAgQIAAAQIECBAgQKBVBPr3798q5SiEAAECBJonUI3OGoJ/zbsHriZAgAABAgQIECBAgAABAgQIECBAgAABAgQIECBQFYFqdNYQ/KvKrZAJAQIECBAgQIAAAQIECBAgQIAAAQIECBAgQIAAgbYXEPxr+3ugBgQIECBAgAABAgQIECBAgAABAgQIECBAgAABAgSqIiD4VxVGmRAgQIAAAQIECBAgQIAAAQIECBAgQKB2BQYPHly7lVMzAgQIEKiqgOBfVTllRoAAAQIECBAgQIAAAQIECBAgQIAAgdoTGDRoUO1VSo0IECBA4BsC1eisIfj3DVY7CBAgQIAAAQIECBAgQIAAAQIECBAgQIAAAQIECLS+QDU6awj+tf59UyIBAgQIECBAgAABAgQIECBAgAABAgQIECBAgACBFhEQ/GsRVpkSIECAAAECBAgQIECAAAECBAgQIECAAAECBAgQaH0Bwb/WN1ciAQIECBAgQIAAAQIECBAgQIAAAQIECBAgQIAAgRYREPxrEVaZEiBAgAABAgQIECBAgAABAgQIECBAgAABAgQIEGh9AcG/1jdXIgECBAgQIECAAAECBAgQIECAAAECBAgQIECAAIEWERD8axFWmRIgQIBAWwhMmDAhhg8fHnvuuWf07NmzVGGNNdaIY489NkaNGtUWVVImgakKeG6nStTqJ3z99dfx+eefR/6WCBAgQIAAAQIECBAgQIAAAQLtTUDwr73dMfUlQIAAgUkKjBs3Lvbdd98499xzY5tttom77rqrnDdkyJCYZ555YosttoihQ4dO8lo7CbSVQEd8bkePHh3nnXdeHHrooXHYYYfFoEGDWjSI9uWXX8Y555zzjdf7778/zbf1r3/9ayyxxBLxwgsvTHMeLiRAgAABAgQIECBAgAABAgQItJXA9G1VsHIJECBAgEC1BHLk1IEHHhjdunWLiy66KKab7r99WxZbbLE46KCDYtttt41ddtmlFNmnT59qFS0fAtMs0BGf2wyabb/99uW/wdVWWy0yMHfDDTeUwHxCPfTQQzFixIg45phjptmtYR5ffPFFnHbaabHQQgvF3HPPXZfv1ltvPdH7ugOtvJH1O/3002PTTTeNVVddtZVLr35x7777bvm3tvo5y5EAAQIECBAgQIAAAQIECBColoDgX7Uk5UOAAAECbSaQwYQ333wzfvvb304U+KtfoYUXXjiuvvrq2GqrrWL11VeP7t271z9sm0CrC3TE5/b888+POeaYI+6///6YddZZi+k///nP6NKlS9keNmxYPProo80K/k0uj5///Ocl8NjqN3IqBX722WdxwQUXdIjAXzZ1rbXWit122y0OOOCAWGCBBabSeocJECBAgAABAgRqSaBv3761VB11IUCAAIEWFPjv0IgWLETWBAgQIECgJQUyqJcfYqaffsp9WjIAuPvuu0cGKCQCbS3QEZ/bHOWWwa5KsC+N559//hKUP/XUU+Oee+6JN954I/r16xfXX399mQ700ksvjZ122ik22mij6N+/f7z++ut1t2bAgAFx++23x3HHHRc77rhjTCqPupMbbOQItSznwQcfrDsyfvz4ErS6+eabp1p23UX/2ch1Q//whz/U7co1RDPvl19+uex78cUXyzSnm222WelgcMkll5T9I0eOjIMPPrhs5787ec3YsWPL+1tuuaWMRt58883jlFNOqdtfDtbwj7zHF198cay55prlvuQ0rxIBAgQIECBAgED7EMi/tyUCBAgQqH2BanTWEPyr/fushgQIECAwFYHHH3+8jEaZymnl8JZbbhl33313Y051DoEWFeiIz+2uu+4an376aWRA67777pvIL6flnHPOOWOmmWYq6+nNO++88fnnn5d1OnOK0L333jueeuqpEpyrXHjHHXfEUUcdFa+++mp897vfLVN7Nsyjcu4//vGPePrpp8vr73//exmVlr8vv/zyyiklEHjTTTfF4osvPtWy6y76z8a9994bzz33XN2uTz75JG677baorCt47bXXRu7LIObyyy9fgoV5zbe//e3IqYczLbjggqXdOS3xlVdeWdq57LLLxnbbbRd5/RFHHFGXf3vYqB8EzPoKAraHu6aOBAgQIECAAAECBAgQINAeBKrRWWPKQyTag4I6EiDQKgJLLbVU+UK3VQpTCIEmCswyyywx33zzNeqqRRZZJD744APTfjZKy0ktKdDRntsM3p144olx1VVXxS9+8Ysyqq1Xr17xv//7v9GjR4/IwODzzz8fOfru8MMPL7Rff/11WQcwg2S5BmIG0E444YSyVuCMM85Yzsng2RVXXFE3pW/DPPKaTGeddVZ55XZO6/vEE0/EDjvsEL/+9a/L/79yGtIcvdezZ88SoJtS2ZlHU9Khhx4aeT8zZVAsRxZmcHeDDTaIn/3sZzFo0KDINQhz3b8sN0cw5ijAo48+ulyTbc3g3xlnnFH8cqRhe0nZ3kzrrbdeGc25wgortJeqqycBAgQIECBAgAABAgQIEOiwAoJ/HfbWahiB6grkl5SHHXZYdTOVG4E2EMipQXOKPolAexJoT89tBoEeeOCBssZmBrn69OlTRgHmiL2G6auvvoqLLroo7rzzzjK6L0cNZho3blxUgn/rrrtuXeCv4fX135900kmlrNyXo+sy5ai6008/PYYPH14Cb1nOL3/5y3JsSmWXE5rwI6f/PO+888qow5wSNAN8Of3ppNLbb79dOiD8/ve/rxuFnO3Oa955553YZ599ymtS19bCvobrpeZIzgwA5kjPbt261UIV1YEAAQIECBAgQIAAAQIECHR6AcG/Tv8IACDQOAGBv8Y5OYsAAQIEImaYYYbYc889Y9FFFy1TYd51111lFF5Dm3POOadM+5mBu9VXX71M+3nQQQdNdNpss8020fvJvcmRfXPNNddEhzNQ9YMf/KCMxKsEBHMEXqbGlF3JLNcw/Pe//115W4JdlTcff/xxbL/99rHqqqvG2WefXab23HbbbSuHv/G7sh7iNttsU9pc/4TGjmCuf01bbWfQL0dzHnDAAbHyyisL/LXVjVAuAQIECBAgQKAJAoMHDy4zUDThEqcSIECAQDsV+P/dottp5VWbAAECBAgQIECgdgTuv//+iQJjOZ1npkrgLX+PGTOmrsK5Rt/SSy9dgkg5vXROlTm11DCPqZ3/k5/8JLJe1113XWy11VaRQcJMTSk7g3LPPvtsXVE5srGScj3CHLm3xx57xNprr13a/8Ybb1QOR9euXct2ZX3ADEjmKMj33nsvNtlkk7rXKqusUjd1aN3FNbiRQb8cnfjII4+UKVqN9qvBm6RKBAgQIECAAIHJCOR09BIBAgQI1L5AdtZobjLyr7mCridAgAABAgQIECgCub7ea6+9Ft///vfLtJ0jRowoo/823njjcjwDfO+++2707ds31l9//bL+Xq7Vt//++5d1/p588smpSjbM48c//nG5JvO58sor667PtfZ69+4dWfa3vvWtMhXp7bffXnc81/5rbNmbbbZZmS509913L4G7hx9+uC6fHN2YoxOPP/74ePDBB8v0l1leJc0+++yxwAILlJGGGTDLaUiPPPLI8ho9enRZf/CZZ56JeeaZJy688MLKZTX7O9sg4Fezt0fFCBAgQIAAAQIECBAgQKADCGRnjVyGqzlJ8K85eq4lQIAAAQIECBCoE8gAWE7x+eabb5aA21FHHVWmxJxlllnKOTvssEN8+OGH8corr0SOgMs1+XIk3siRI2PFFVeMgw8+OIYNGxY5uizTwIEDy5SS5c3//WiYR557yCGH1D+lbFcCVBmIy7UHc629DEpWUuY9ubKzbpnnvPPOW07PkW45ivGxxx6LHj16xIABA+KWW26J73znOzHHHHPEDTfcUNY4zHX7cjrRbM8iiyxSrs1pPi+99NK46qqrSpAwRwJmEDHzufvuu+Nf//pX9OrVa5LTolbqWku/K661VCd1IUCAAAECBAgQIECAAAECBCYW6PKfNTomNKaX9cSXeTetAvll0qhRo6b1ctcRaBMBz22bsCu0CgKe3SogyqLVBTy3rU6uwGYKeGabCejyNhHw3LYJu0KbIeCZbQaeS9tEwDPbJuxTLTSnmu9s3wN7Fqf6WHSYE9zrDnMrp9iQznKfm/vvdV5vzb8pPkoOEiBAgAABAgQIECBAgAABAgQIECBAgAABAgQIEGg/AoJ/7edeqSkBAgQIECBAgAABAgQIECBAgAABAgQIECBAgACBKQoI/k2Rx0ECBAgQIECAAAECBAgQIECAAAECBAgQIECAAAEC7UdA8K/93Cs1JUCAAAECBAgQIECAAAECBAgQIECAAAECBAgQIDBFAcG/KfI4SIAAAQIECBAgQIAAAQIECBAgQIAAAQIECBAgQKD9CAj+tZ97paYECBAgQIAAAQIECBAgQIAAAQIECBAgQIAAAQIEpigg+DdFHgcJECBAgAABAgQIECBAgAABAgQIECDQ/gX69u3b/huhBQQIECDQKAHBv0YxOYkAAQIECBAgQIAAAQIECBAgQIAAAQLtV6B///7tt/JqToAAgU4kUI3OGoJ/neiB0VQCBAgQIECAAAECBAgQIECAAAECBAgQIECAAIHaFahGZw3Bv9q9v2pGgAABAgQIECBAgAABAgQIECBAgAABAgQIECBAoEkCgn9N4nIyAQIECBAgQIAAAQIECBAgQIAAAQIECBAgQIAAgdoVEPyr3XujZgQIECBAgAABAgQIECBAgAABAgQItKDAgAEDYtiwYXHyySfH5ptvHnvttVe8/PLLdSWOHz8+zjnnnOjTp09st912cfXVV8eECRPisccei379+sWYMWPKuePGjYv99tsvhg8fXnft6aefHpdffnnd+7beGDx4cFtXQfkECBAg0EoCgn+tBK0YAgQIECBAgAABAgQIECBAgAABAgRqS+COO+6IgQMHxgcffFACfE8++WTsv//+dZXMYxdddFEJDK6++upx5JFHxnXXXRcLLbRQ3HbbbfHAAw+Ucx955JG49dZbY8iQIeX9l19+GYMGDYoZZ5yxLq+23sj6SAQIECBQ+wLV6Kwxfe03Uw0JECBAgAABAgQIECBAgAABAgQIECDQMgLrrrtunHHGGSXzrl27xjHHHBOffPJJvPHGGzF06NC48sorY8MNNyzHc9+1114bO+64Yyy33HIl+Lf11lvHPffcUwKCDz/8cGTgL4OIORpwo402aplKy5UAAQIEOqxAdtbI0eXNSUb+NUfPtQQIECBAgAABAgQIECBAgAABAgQItGuBVVZZpa7+iy66aNn+8MMPY+TIkWX7uOOOiwwQ5uu+++6LN998s+zv3bt3PPjgg2U7g3+HH354fPXVV2VK0IceeihWWmmlmG+++cpxPwgQIECAQGsKGPnXmtrKIkCAAAECBAgQIECAAAECBAgQIECgpgRmmGGGuvrkyL9K6tKlS9k86KCDYrbZZqvsjplmmqlsZ/Dv7LPPLmsGvvPOO7HJJpvEzTffXAKEjz/+uFF/dWI2CBAgQKC1BYz8a21x5REgQIAAAQIECBAgQIBAqwpMmDAhhg8fHnvuuWf07NmzlL3GGmvEscceG6NGjWrVuiiMQGMF8tnMZzSf1Uye2cbKOa+tBBo+s/nv7R577FECY/nvcHtMyyyzTKn2+PHjS2Avg3sZ8FtxxRXL/mxjjuw76aSTolevXjHrrLPGeuutV9r817/+NX70ox+1x2arMwECBAh0AAHBvw5wEzWBAAECBAgQIECAAAECBCYtkOst7bvvvnHuuefGNttsE3fddVc5cciQITHPPPPEFltsUdZzmvTV9hJoG4FcY2zzzTcvz+g111xTKuGZbZt7odTGCUzqmc1/b7fbbrs477zzyr/DY8eObVxmNXTW8ssvH1tttVWZznPAgAElIJ9r/912222lltNNN10Z3ffKK6/UBfo22GCDeO2112KBBRaIZZddtoZaoyoECBAg0JkETPvZme62thIgQIAAAQIECBAgQKATCeRIkwMPPDC6desWF110UeSXtJW02GKLRU7jtu2228Yuu+xSdvfp06dy2G8CbSaQQZSzzjorbrnlllh44YXr6uGZraOwUWMCk3tmM/j14x//uASyc828gQMHxuDBg6MylWatNCPrtfLKK9dVp0ePHnHIIYfEHHPMUfZl8DLX+stpPDOAmaPIM6hZSfl+wQUXjM0226zsyjUDjzrqqFhkkUXarK3vvvtu+X9fpY5+EyBAgEDnExD863z3XIsJECBAgAABAgQIECDQKQRGjBgRb775Zvz2t7+dKPBXv/EZXLn66qvLyI7VV189unfvXv+wbQKtKpDTJv7qV7/6RuCvfiU8s/U1bLe1QGOe2ex4kc91BgLvu+++yJFxtZSyI0j9lMG/ww47rG5XrgG40047lVfdznobK6ywQuSrfspRgm2Z1lprrdhtt93igAMOKCMQ27IuyiZAgACBthH4b7fHtilfqQQIECBAgAABAgQIECBAoEUEMqjXt2/fmH76Kfd7zWDK7rvvHueff36L1EOmBBorcMEFF5Q10uqP+JvUtZ7ZSanY1xYCjX1mM4DWr1+/0tmiLerZ2cr84osv4uKLL44111wzctTl6NGjOxuB9hIgQKDTCwj+dfpHAAABAgQIECBAgAABAgQ6pkBO0ZajHxqTttxyy7j77rsbc6pzCLSYQD6D+Sw2JnlmG6PknJYWaMozm4GoJ554oqWrJP96Ag2DgOPHj6931CYBAgQIdGSBKXd/7Mgt1zYCBAgQIECAAAECBKoqcOaZZ0a+JAK1IjDLLLPEfPPN16jq5NpMH3zwgWk/G6XlpJYSyGd2aqP+KmV7ZisSfrelQFOe2fz3ONfMa63plXMqzt69e0+WZ8UVV4wf/ehHkz1ezQNPP/30FDuY5PF77rmnmkVOlFclCDjzzDPHM888841pSic62RsCBAgQ6BACgn8d4jZqBAECBAgQIECAAIG2Fzj00EMjXxKB9iiQU4O++OKL7bHq6txJBTyznfTGt+Nm59SfnfXf2Z49e0a+Wis1DLDONNNMseuuu5Y1ALt169Za1VAOAQIECEyjQC5d0Nwk+NdcQdcTIECAAAECBAgQIECAAAECBAgQIECgxgQE/WrshqgOAQIEGinQv3//Rp45+dME/yZv4wgBAgQIECBAgAABAgQIECBAgAABAgQmKZDTmM4wwwyRI3FrKQn61dLdUBcCBAi0jcB0bVOsUgkQIECAAAECBAgQIECAAAECBAgQINB+BZZbbrm47LLLaq4BjzzySJxwwglhis+auzUqRIAAgVYTEPxrNWoFESBAgAABAgQIECBAgAABAgQIECBAoGUFJhf0Gzx4cMsWLHcCBAgQqBkBwb+auRUqQoAAAQIECBAgQIAAAQIECBAgQIAAgZYRGDRoUMtkLFcCBAgQqKpANTprCP5V9ZbIjAABAgQIECBAgAABAgQIECBAgACBthZ47LHHol+/fjFmzJhSlXHjxsV+++0Xw4cPr6va6aefHpdffnl5/+GHH8avfvWr2GqrraJPnz5xyimnxGeffVZ37oABA+L222+P4447Lnbccce6/ZWNd955J/bff//4zW9+U3aNHz8+zjnnnJLXdtttF1dffXVMmDChHMtzLrjggrj44otj6623jldffbWSjd8ECBAgQCCq0VmjtlajdVMJECBAgAABAgQIECBAgAABAgQIECDQTIGFFloobrvttth0001LgC3Xwbv11lvjiy++iI033ji+/PLL8uXqiSeeGJ9//nk5LwN2++yzTznnwgsvjAwg/uEPf4guXbrEHXfcEQ8++GCssMIK8d3vfnei2n388cexyy67RAYYM4CYaeDAgfHAAw/EgQceGB988EEceeSR0bVr1xI4zHyfeeaZmGeeeWK11VaL6aYzPmMiUG8IECBAoNkCgn/NJpQBAQIECBAgQIAAAQIECBAgQIAAAQK1JNC9e/dYbrnlSgAuR9fdc889kQHBhx9+uAT+nnzyyRKs22ijjeKaa66Jt99+uwT3evToUZqx7LLLxh577BGPPvporLnmmmXfYostFldcccVEwboMImbA8KOPPoqhQ4fG/PPPHyNHjizbV155ZWy44Ybl2jfeeCOuvfbaulGDY8eOLYHFOeecs5bY1IUAAQIEOoiAbiUd5EZqBgECBAgQIECAAAECBAgQIECAAAEC/xXo3bt3Cejlngz+HX744fHVV1+VEX0PPfRQrLTSSjHffPPFc889F0sttVRUAn95/jrrrJO/4sUXXyy/88e66647UeAv9+UUnk888URcd911sfDCC+euEvzL3zlFaF6Tr/vuuy/efPPN3F1Sli3wV9HwmwABAgSqLWDkX7VF5UeAAAECBAgQIECAAAECBAgQIECAQJsLZPDv7LPPjmHDhkWuybfJJpvEzTffXAJxjz/+eOSov0rKoGD9VHn/rW99q273bLPNVrdd2VhyySUjRxHmeoA5xWemnCY000EHHRT1r5lpppnK/vwx66yz1m3bIECAAAEC1RYQ/Ku2qPwIECBAgAABAgQIECBAgAABAgQIEGhzgZ49e5aRfSeddFL06tWrBNzWW2+9+N3vfhc5Decpp5xS6pij8HJKzr/85S+x8sorl3233HJLCeJV3k+uMVtttVVZQ/Dkk0+O2WefPfbaa69YZpllyum5hmAGHDNlMPHDDz8s234QIECAAIGWFhD8a2lh+RMgQIAAAQIECBAgQIAAAQIECBAg0OoC0003XRndN2TIkNh3331L+RtssEEce+yxkWsC5rp+mXbcccfIc3bYYYfYcsst44svvogM/v30pz+NxRdfvJwzpR8DBgyIUaNGxTHHHFNG+m233XaRQcGcZjTXGJxrrrnK9KMZGMx1BCUCBAgQINDSAoJ/LS0sfwIECBAgQIAAAQIECBAgQIAAAQIE2kRgzz33jAUXXDA222yzUv6iiy4aRx11VCyyyCJ103POMMMMMXTo0Ljmmmvib3/7WwnWXXbZZbHhhhvW1XngwIF1owIrO+vvO+GEE0qeua7fuHHj4rzzzitr/eX0omPHjo2sRwYFM2299dYx/fS+lq04+k2AAAEC1Rfwf5nqm8qRAAECBAgQIECAAAECBAgQIECAAIEaEFhhhRUiX/VTjtRrmGacccYSoGu4v/I+1+9rmOrv69q1a/Tv33+iU3baaafIV8O07bbbNtzlPQECBAgQqKrAdFXNTWYECBAgQIAAAQIECBAgQIAAAQIECBAgUHMCffv2rbk6qRABAgQItIyA4F/LuMqVAAECBAgQIECAAAECBAgQIECAAAECNSPQcGRizVRMRQgQIEBgIoFqdNYQ/JuI1BsCBAgQIECAAAECBAgQIECAAAECBAgQIECAAAECbSNQjc4agn9tc++USoAAAQIECBAgQIAAAQIECBAgQIAAAQIECBAgQKDqAoJ/VSeVIQECBAgQIECAAAECBAgQIECAAAECBAgQIECAAIG2ERD8axt3pRIgQIAAAQIECBAgQIAAAQIECBAgQKDVBAYPHtxqZSmIAAECBNpWQPCvbf2VToAAAQIECBAgQIAAAQIECBAgQIAAgRYXGDRoUIuXoQACBAgQaL5ANTprCP41/z7IgQABAgQIECBAgAABAgQIECBAgAABAgQIECBAgECzBarRWUPwr9m3QQYECBAgQIAAAQIECBAgQIAAAQIECBAgQIAAAQIEakNA8K827oNaECBAgAABAgQIECBAgAABAgQIECBAgAABAgQIEGi2gOBfswllQIAAAQIECBAgQIAAAQIECBAgQIAAAQIECBAgQKA2BAT/auM+qAUBAgQIECBAgAABAgQIECBAgAABAgQIECBAgACBZgsI/jWbUAYECBAgQIAAAQIECBAgQIAAAQIECBAgQIAAAQIEakNA8K827oNaECBAgAABAgQIECBAgAABAgQIECBAgAABAgQIEGi2wPTNzkEGBAgQIECAAAECBAgQaAcCEyZMiPvuuy+eeuqpeP3116Nbt26x9tprx3rrrVcTtR85cmTceuut8e6778Yss8wS66yzTmy66aY1Ubf6lXj00Ufjz3/+c9k133zzxc4771z/sG0CBAgQIECAAAECBAgQaGMBI//a+AYongABAgQIECBAgACBlhd47733Ytdddy2vW265JT766KMSCPyf//mfFin8oYceihNPPLHReV922WXRu3fvuOGGG0rd/vKXv8SgQYPqrr/iiivi6quvrnvflhtvvPFGZH1+/etfx1//+te2rMoUy84gqkSAAAECBAgQIECAAIHOKGDkX2e869pMgAABAgQIECBAoJMJHHTQQSVQddVVV8UGG2xQ1/rRo0fXbVdzY9iwYZEj5I455phGZXvGGWfEJptsEpdcckl06dKlXFO/bpdeemn84Ac/aFReLX3S9ttvH3//+9/jzjvvjKx3raa11lordttttzjggANigQUWqNVqqhcBAgQIEGg1gb59+7ZaWQoiQIAAgbYVMPKvbf2VToAAAQIECBAgQIBACwvkVJ/5+uUvfzlR4C+LrQSFhg8fHgcffHCMGDEidtlll7j55ptLrZ599tnYb7/9YuONN44DDzww3n777bL/66+/jgzI7bTTTrHRRhtF//79y1SiefDUU0+Ne+65J3KEXL9+/eL6668v14wZMyaOPPLIMpXnHnvsUYKDeSCnI/3iiy/i888/rwv85f6s27///e+SR5b7xz/+sWzntKXVrG+WNWDAgLj99tvjuOOOi80337z8HjduXGSwNIN92223XTHMcyeV8voMeJ588snl+r322itefvnlSZ3aavvS9OKLL44111yztKd+MLXVKqEgAgQIECBQQwL594pEgAABArUvUI3OGoJ/tX+f1ZAAAQIECBAgQIAAgWYIPPnkkzHjjDOWANbksslA1dChQ+Ooo46KHj16xMwzz1xGt22xxRYlOJfBuhdffLEEwr788ssSqDv33HNjtdVWi7333rusI5gjzDIttNBCMeecc8ZMM80USyyxRMw777wxduzYyLyyLjn96KyzzlryeuWVV0rAL/N/4IEHYvfdd4+XXnqprpo5CjDzyLwyz9zOa6tZ3yzsjjvuiIEDB8YMM8wQ66+/fuQ0pH369InLL788Nttss/jss89K4PHjjz+uq1v9jcr1H3zwQbku27n//vvXP6XNtgUB24xewQQIECBAgAABAgQITINANTprmPZzGuBdQoAAAQIECBAgQIDA1AXOPPPMyFdbpm9/+9tlLb0MyHXt2nWKVckg0WmnnVY3veY+++wTyy23XFx44YUx3XTTlRFk66yzThmx16tXr8h1/TL/HLn3ySefxAknnBAZGMzg3vPPPx/jx4+Pww8/vJSZ03n+85//jFtvvbUEA3fccceSz4033hhHHHFEmR40R/qlVwbfMo8chZf5Zx45xeaqq65al1+O/KtWfTMwmilHNx577LFlOwOQORIwpy79zne+E8svv3xstdVWpV2rr756Oafhj3XXXbduGtC0zilP0yXtllxyyYant/r7ShAw11WUCBAgQIAAAQIECBAg0JEFBP868t3VNgIECBAgQIAAAQJtKHDooYdGvto6ZRDqvffem2o1pp9++lh77bXrzsspP3Ok23rrrVf2ZZAvU07nmVNJXnTRRSUo9+qrr8ann35ajuVUmZVgWtnxfz8yr5zCc5tttqnb/a9//SvefPPN8j5H+OUUoTm95m9+85uSdx67+uqr685vuFHt+q6wwgp1RSy88MLRrVu3EvjLnd27dy/HJjfyLw+ussoq5Zz8seiii5btDz/8MDKvUaNG1R1rrY1KnSvl5ejJDKrmCM2VV165sttvAgQIECBAgAABAgQIdDgBwb8Od0s1iAABAgQIECBAgACB+gLf+973ygi0HKmXI/cml2aZZZaJRgdmQC4DWhkwqp9yNOA555wTOe3nSSedFDkSLtfhO+igg+qfNtF25jXffPOVaUXrH1hwwQXrv4255547jj/++DLNZ+b/1ltvlWlEJzrp/95Uu7455Wcl5Wi9+u+nNmoyr2vq+ZWyWvp3/aBfBjQlAgQIECDQWQUGDx5cOht11vZrNwECBDqTgOBfZ7rb2kqAAAECBAgQIECgEwrkaLsM1uX0mZdeemlkMLCSchTfIossUnk70e9ll102XnjhhTLyL9cAzJQjCDOI9/TTT8fSSy9dFxjMUYD1UwbPxowZU7drmWWWiZziM9fsy1emnBIzA2Zff/113HvvvbHhhhuW9f/yWAb2MmU+mTL49v7775ftyf1oTn0nl2d73i/o157vnroTIECAQEsIDBo0SPCvJWDlSYAAgSoLVKOzhuBflW+K7AgQIECAAAECBAgQqC2BDKSdf/75kYum57p2K620Usw///zxyiuvlPX6MvA2qXTwwQdHnz59yjW5Dt+7774bTzzxRHn17NkzzjrrrNh///3LOn9PPvnkRFkstdRS5fy+ffuWNfx23nnnEnjccsstY+utty7X5Dp+Q4cOLVNk7r777rH44ouXtfU++uijePDBByPPrUxdmfkNGzYsfvazn8Uee+wxUVmVN82pbyWPxvz+wx/+ELfddlvktKW/+MUv4pRTTmnMZa1+ziOPPFKmLm31ghVIgAABAgQIECBAgACBZghUo7OG4F8zboBLCRAgQIAAAQIECBBoHwI5NWcG+TLY9vzzz8fnn38evXv3jk033bQ0YLXVVitrwdVvTa6BN3z48Lj++uvj7bffLuvfZbAv08CBA2PWWWeNkSNHxoorrhgZeMvgXI42y7TDDjtErneXAcYM4GUAMo9fdtll8dJLL8Xss88eZ5xxRgn85ei+iy++OB5//PEYPXp0CQLmVKMZqKyknAo0A5Zjx44tU4NWu77Znvrr4OX0qFleJWVbDznkkFhsscVKUPMnP/lJOVQ5p+H1PXr0KOfPMccclSxa/bcpPludXIEECBAgQIAAAQIECNSIQJf/fMCb0LCXao3UrUNWIz/4t8Vi9x0SU6NaTcBz22rUCqqygGe3yqCyaxUBz22rMCukigKe2SpiyqrVBDy3rUatoCoJeGarBCmbVhPwzLYadZMKyrWMO9v3wJ7FJj0i7fpk97pd375GV76z3Ofm/nud1///BSQaTetEAgQIECBAgAABAgQIECBAgAABAgQIECBAgAABAgRqVUDwr1bvjHoRIECAAAECBAgQIECAAAECBAgQIECAAAECBAgQaKKA4F8TwZxOgAABAgQIECBAgAABAgQIECBAgAABAgQIECBAoFYFBP9q9c6oFwECBAgQIECAAAECBAgQIECAAAECBAgQIECAAIEmCgj+NRHM6QQIECBAgAABAgQIECBAgAABAgQIECBAgAABAgRqVUDwr1bvjHoRIECAAAECBAgQIECAAAECBAgQIECAAAECBAgQaKKA4F8TwZxOgAABAgQIECBAgAABAgQIECBAgACB9ibQt2/f9lZl9SVAgACBaRQQ/JtGOJcRIECAAAECBAgQIECAAAECBAgQIECgvQj079+/vVRVPQkQINCpBarRWUPwr1M/QhpPgAABAgQIECBAgAABAgQIECBAgAABAgQIECBQKwLV6Kwh+Fcrd1M9CBAgQIAAAQIECBAgQIAAAQIECBAgQIAAAQIECDRTQPCvmYAuJ0CAAAECBAgQIECAAAECBAgQIECAAAECBAgQIFArAoJ/tXIn1IMAAQIECBAgQIAAAQIECBAgQIAAAQItJDB48OAWylm2BAgQIFBrAoJ/tXZH1IcAAQIECBAgQIAAAQIECBAgQIAAAQJVFhg0aFCVc5QdAQIECLSEQDU6awj+tcSdkScBAgQIECBAgAABAgQIECBAgAABAgQIECBAgACBJgpUo7OG4F8T0Z1OgAABAgQIECBAgAABAgQIECBAgAABAgQIECBAoFYFpq/ViqkXAQJNEzjzzDMjXy2Vunfv3lJZxyGHHBKHHXZYi+UvYwIECBAgQIAAAQIECBAgQIAAAQIECBAg0FkEBP86y53Wzg4vcOihh0a+JAIECBAgQIAAAQIECBAgQIAAAQIECBAgQKDzCpj2s/Peey0nQIAAAQIECBAgQIAAAQIECBAgQIAAAQIECBDoYAKCfx3shmoOAQIECBAgQIAAAQIECBAgQIAAAQIECBAgQIBA5xUQ/Ou8917LCRAgQIAAAQIECBAgQIAAAQIECBAgQIAAAQIEOpiA4F8Hu6GaQ4AAAQIECBAgQIAAAQIECBAgQIAAAQIECBAg0HkFBP86773XcgIECBAgQIAAAQIECBAgQIAAAQIECBAgQIAAgQ4mIPjXwW6o5hAgQIAAAQIECBAgQIAAAQIECBAgQKChQN++fRvu8p4AAQIEOqiA4F8HvbGaRYAAAQIECBAgQIAAAQIECBAgQIAAgYpA//79K5t+EyBAgEANC1Sjs4bgXw3fYFUjQIAAAQIECBAgQIAAAQIECBAgQIAAAQIECBDoPALV6Kwh+Nd5nhctJUCAAAECBAgQIECAQKcUmDBhQgwfPjz23HPP6NmzZzFYY4014thjj41Ro0Z1SpP21uivvvoqPv/88/ZWbfUlQIAAAQIECBAg0CYCgn9twq5QAgQIECBAgAABAgQIEGgNgXHjxsW+++4b5557bmyzzTZx1113lWKHDBkS88wzT2yxxRYxdOjQ1qhKuynjyy+/jHPOOafudc0118Rjjz0W48ePb7M23HTTTbHEEktE3k+JAAECBAgQIECAAIEpC0w/5cOOEiBAgAABAgQIECBAgACB9imQI/4OPPDA6NatW1x00UUx3XT/7f+62GKLxUEHHRTbbrtt7LLLLqWBffr0aZ8NnUqtv/jiizj99NNj0003jVVXXXUqZ0fk+aeddlostNBCMeecc8Y777wTY8aMiaWXXjpOOeWUyFGTUssJvPvuu+WZbbkS5EyAQGcVGDx4cPTr16+zNl+7CRAg0KkE/vvJp1M1W2MJEGhpgfzCIF+NTV9//XW89tpr8dZbbzX2kiadl72Ux44d26RrnEyAAAECBAgQINC+BUaMGBFvvvlm/OpXv5oo8Fe/VQsvvHBcffXV8T//8z8ddgrQzz77LC644IJ477336jd9qts///nPy0jJZ555Ju67776Ya665Yuedd46XXnppqtc6YdoF1lprrTjuuONi9OjR056JKwkQIDAJgUGDBk1ir10ECBAgUGsC2VmjuUnwr7mCridQZYHsmZw9kCeXrrrqqthwww1rfrqbffbZJ/bff//JNWOi/RmUy17WvXr1Kj3QmtLGnPYnPa688sqJ8mz4Jv/AXXnllRvu9p4AAQIECBAgQKADC2RQr2/fvjH99FOe9CYDgLvvvnucf/75ra6RwckMsm222Wax6667xt13313qMGDAgLj99ttLEGjHHXcs+7JDW07HmX87b7fddiVomaMbM7344otx6KGHlny22mqruOSSS8r+kSNHxsEHH1y2s3054qPSKe6WW24pox4333zzMqKvsr+c3ODH9773vbjsssti3nnnLWslVg4/++yzsd9++8XGG29cRlm+/fbblUORdct7sNtuu8Umm2wShx12WOSUopmyvvnZJ0cjZkAx/57PDoGVlKPfsj153U9/+tNvBGanZJHrO2abM/ibozpvvvnmSrbt4nd2orz44otjzTXXFARsF3dMJQkQIECAAAEC1RWoRmcNwb/q3hO5EWi2QH7xkNPrVNIVV1xRPjBX3ueH7ZyiqGvXrpVdVf390EMPxYknnljVPKeWWa7f8cQTT8SNN95YPvQ3pY35RU565DUSAQIECBAgQIAAgfoCjz/+eOQoqsakLbfcsi7w1pjzq3HO66+/Xjqy/fWvfy3Tj37/+9+PV199tWR9xx13xFFHHVXef/e73y37Bg4cWKYvzWDd6quvHkceeWRcdyVvBG8AAEAASURBVN115di1114bn3zySey0006x/PLLlwDdvffeG9/+9rfL38t50oILLljWzcvpTzPYdsABB8Syyy5bAol5/RFHHFHymtyP2WabrQQX//KXv5RA3d///veyZmIG+fbYY48S0Nt+++3rAnxHH310qWPWPwN877//fnz11VeR1/3oRz+KN954I3bYYYdYdNFF4xe/+EX87//+byk6RypmG//0pz8Vl1ybMactrZ+mZPHyyy+XdRzTr0ePHjHzzDPXv7TdbNcPAmaljQRsN7dORQkQIECAAAECbS4w5e6PbV49FSDQ+QSyN2z9dOmll8YPfvCDul3Z8zVfLZWGDRsWjz76aBxzzDEtVcQ38s3ezvlFxNprr12ONaWNGfzL9VskAgQIECBAoPYEzjzzzMiXRKCtBGaZZZaYb775GlX8IossEh988EF07969Uec396S99torPvzww5hjjjkiR+BlkK5hyk5u2Rkwg3U5gm/o0KElaJczX2TK4FkG7XJkYI6Sy/ZmyqBRjnbL4OcGG2wQP/vZzyJ7D2+99dZlpF2OsDv11FPLKMAM0GWaccYZS/DvjDPOKO8n9yN9Pv300xLIy/++l1tuubjwwgtLHXOk2jrrrFM+T+Tf95dffnmccMIJsffee5fscnRlprwuOzxef/31McMMM5R9M800U5maNGdBGTJkSPzzn/+Mhx9+OPK+ZMo652ejTFOzyHPSINctzM9Sv/vd71rtvmbZ1U7ZlkzrrbdeMVthhRWqXYT8CBAgQIAAAQIEOpiA4F8Hu6Ga0zYCH330UZmqZ88996wLYJ188smRPWPzg3am/PCdQbXcnz1wr7nmmvjHP/5RRqzl9JjrrrtuOS+n8ckPvjltZvbEzWlz/vjHP0ZOe5PT3eTvnMbm17/+dTk/pwPaYostInvf5ofj+eefP/ID/BJLLFGO5wfFs88+O3JE35xzzll6AueXBjnFTn5Qr5/yC4B77rmnfJDP6YA22mij0hN3SvV98MEHy5Q077zzTiy++OJlWpr8oF8//fvf/47jjz++TFV60kknTdTzNtub0xnlFx9ZZvbwzfY3pY3ptO2225YvNvKLiMwzewlnD9/swZ29kCvpz3/+c+ScyemYQcb0yy9TJAIECBAgQKD6AhmMyJdEoD0IZKeynIqyNVNOe5/TZU4q8Jf1yM8Ilb9VM+CVKdeCyzUMM40ZM6bub+sc7XbeeefF008/XabIzGBZjqCbVMrPGBno/P3vf1832jH/js5r8u/6HGk3uZQBx/xcMffcc0dO+fnxxx+XoFSeX5mCNM/517/+Vd5nwLFhyrbkyL9K4C+PZ5Aug4jZMfC5556LnGa0EvjL4yuttFL+KmlqFnlS3s9K58IMPlYCkP8/h9r+2TAAnZ+P8nNdrrvYrVu32q682hEgQIAAAQIECNSEgOBfTdwGlWjvAtlb95lnnik9cfMDZk63kz1r80N8Buxyis4M9i2wwAKlqb/5zW8ie2tmj90MCmav38cee6x8yM4AYV637777lgDeI488Uj5cZzBv1llnjfxQn4GxSsrpgO66667IdT1y7Y9zzz23rLVXWSsk19/IwF8GGLM3b34Bl8HK7B3cMPiXvW/zg3x+SZDlVabSnFx98wuDXEOjd+/e5cP0U089VXoBV+qWv/MLgBzNeOuttxaDhlPu5Afbueaaq/TszTLzi4bMpyltzOBhZT2/nNong6WVdU2yx3Al5X3JqZFyzZEnn3yy9HbOgGUGHCUCBAgQIECAAAECrS2QneQqAbNJlZ2dCSupS5cuZTNHxtXfn4GhDMDldJurrrpq6fiXf1dn57jJpUpe22yzTZk+tP55OVIyg4CTSvn3f35+yRF+GZTMfFZZZZWyVmH98/NzRnbGyzSp9uV1Of1n/ZQWmfLzQm5X6lg55/PPP69s1h2blEXlpBwF2VJLJVTKaOnfeW9zHcjs7JifdwT+Wlpc/gQIECBAgACBjiMg+Ndx7qWWtLFA9lytBKxyNFz2hM01LXL9jlxzI4N7GUTLlIveV6bkyQ/GOQIt172oP71n9lQ9/PDD48477ywf4nN7cil7BFem58kPuDllZwa6stdsBgaz3O22265cnuttZEBwUik/WD7//PMxfvz4UnblnMnVN8/LVwYAczqhDCg2TLk2R67pd9lll5UvCRoezy8pcl2TDNJV2pjBv4Zpcm2s/8VHXvPKK6+UwGUGVNOwfsovMc4///yyrkmOBsygaE6FJPhXX8k2AQIECBAgQIBAawn07NkzsjPfz3/+89IJL8v98ssvS6e9hnVYZpllyq78+7uyDEAG0HIGjfx7Okfu5d+42RkxPwfk6LtKqgTB8vNJpuyAl53+3nvvvbq8cn++z88p+VmiYXrhhRdKp74cgXb8f2b1yJTrBeb+9f4zHWWlk1/mkQHEFVdcsZyTnSBzto1MGdTLv9FzFF+2O//+z46UmXLq05xBJF9LLrlk+Qzx0ksvle1sZx6vpClZVM5pz7/rB/0E/NrznVR3AgQIECBAgEDbCUz8zXjb1UPJBNq9QI5+y7XncirPHHm26aablmmDcmqWcePGlZ6t+aE4U06teeWVV5ZAW07Vkyk/rE9ryt62lbTooouWzfwSIAN5mbJulVR/upzKvqn9nlx9sz35wTynO82pR3OK08oH8cwzRy3mGoI57WgGB5uTJtfGhsG/HNWXoxszWJhTp+a6IpXphHJEZX5BkSm/dFh44YVLL+nm1Mu1BAgQIECAAAECBKZVIGelyL+jc7r9/Js9p6bPUXuVdfjq55sdCnO2jwyY5XT/OXtGdjrMTm85A0j+XZxBudyXn0G+9a1v1V0+++yzl1lIcnr8/Bs9O+hl2fkaPXp06ayYM5nkLBw59WYlnXXWWaUT31tvvVUCgxnQy3X6KtNx5mwbWXZOXbr++uuX+j/xxBORr/xckJ8TctmDfJ8Bx/ycdP/995e1BbPd2eacDSU78OUMKPl5KkcUZqfE3M6RidlRL6cXrQQus25Tsqg/5X+lHe3td94jQb/2dtfUlwABAgQIECBQWwKCf7V1P9SmHQusscYa5QP3iBEjypp+Odoup9G87bbbSuBvrbXWKsfzg3r//v3L6LscoZdTedYf8TctBJXgVl5b6dWb2xl0zFR/ypz60+WUg1P5MaX65hcKOdoxvwDIdfSyB/J1111XN8Iv1x/MaX5yys/8UiCnHZ3WNLk2NswvRx/mlxJZn/zyI9crzJGLmernke/rW+V7iQABAgQIECBAgEBrCuQU9Bmou+qqq+L111+PnKUjZ8bINHDgwLqp7St1yjX9spNbzl4xduzYElzLGT5ytN4NN9xQ/u7N2S4yyJfr4lWCdPl54NJLLy3lZJAw/w7OTnI9evQoa/7l+ny5/uAOO+xQisqRZ4ccckil2DIab6mllir1qf83dC5lUPk8kOsIfuc73ynLDVQuzMBffg7KzxT5OSQ7C+Zngmxnpd05ajE7KOY6hpWOhBnYzHxz9pCcISRnGsmysmNhZXaPyVlk2auttlqZKrNSj/b2W+Cvvd0x9SVAgAABAgQI1J6A4F/t3RM1aqcCGVjK3q4XX3xx+SCe62DkdDcnnXRSGdWXvVcz/e1vfyu/s5ds9sDNKTGnlPLDdf1erlM6t+Gx/ICeKdflyBFxmepPl1N2NPiRPW0roxHz0JTqmx/gc3qf/OIgg3s5qu6BBx6oC/7llxmnnHJK7LzzzuXLi9/+9rctHnDLEZRZjxxtmF8a5NqLOTWSRIAAAQIECBAgQKAWBTLQk2tkN0y5nl3DlJ8Ndtppp/JqeCw7wFWm2sxjuf5f/ZQBtoazgPzwhz+MfDVMGaCbVJ0anpfvc6Rirrs9ufTjH/848tUw5WelyjrdDY/l+5z+8xe/+MVEh3LEXyVNyWL11Vf/xlqGlev8JkCAAAECBAgQINAZBAT/OsNd1sZWE8hpazK4tuWWW5YerUsvvXSZXufll1+OXBMwU+UDeQbj8nhOezOllAG87OGavWSbOoVNfuDPUYX5YTyn2snA2HPPPTel4iLLy+mG+vbtW4KZU6pv1iunBcp1RbKNGTisP8VoFpTHsufxT3/60zLy8bTTTivnTbESzTiYUyHlOoq5dkiOOEz3Su/gZmTrUgIECBAgQIAAAQIECBAgQIBAuxbI73okAgQIEOgcAoJ/neM+a2UrCeR6FTk9TmV9u5xe55e//GXkGhk5tU2mnE4np6TM9S5yZFpOSZmj/3LtvEzbbrvtRMGqnLoyp8/MaX3mnnvuMoVNBtIqqeF0QDl1T9Yhg1+Zrrjiivjd735X1v9beeWVY++99y5TCeV6HpNKOdVPrheY627kuhxTqm9O+5nBxFGjRkWuNZg9d7///e+XbLfeeuu6dmRALi1efPHFsiZiZV3CSvkZIKxfn5ympyltPPDAA+vKHTBgQFnn5KOPPipT/eSow0yTmvonpwhNU4kAAQIECBAgQIAAAQIECBAg0NEFchkaiQABAgRqX6AanTW6/CcYMOHJJ5+s/dZ2kBpmMCUDJRKB1hLINffqr/l35plnRq5H+Oyzz5aReK1VD+UQaAsB/+a2hboymyvguW2uoOtbW8Az29riyquGgOe2GoryaE0Bz2xraiurGgKe2WooyqMaAp7Faii2jzzc6/Zxn5pbS/e5cYKrrLJKGPnXOCtnEWi3Ajkacb311itrZmTA78YbbyxTiM4222zttk0qToAAAQIECBAgQIAAAQIECBAgQIAAAQIECExaQPBv0i72EugwAjmNZ64r+Oc//zkWXnjhOO+886JPnz4dpn0aQoAAAQIECBAgQIAAAQIECBAgQIAAAQIECPxXQPDvvxa2CHRIgZzP3ZzuHfLWahQBAgQIECBAgAABAgQIECBAoNECgwcPjn79+jX6fCcSIECAQPsVmK79Vl3NCRAgQIAAAQIECBAgQIAAAQIECBAgQKAxAoMGDWrMac4hQIAAgTYWyM4azU2Cf80VdD0BAgQIECBAgAABAgQIECBAgAABAgQIECBAgACBKghUo7OG4F8VboQsCBAgQIAAAQIECBAgQIAAAQIECBAgQIAAAQIECNSCgOBfLdwFdSBAgAABAgQIECBAgAABAgQIECBAgAABAgQIECBQBQHBvyogyoIAAQIECBAgQIAAAQIECBAgQIAAAQIECBAgQIBALQgI/tXCXVAHAgQIECBAgAABAgQIECBAgAABAgQIECBAgAABAlUQEPyrAqIsCBAgQIAAAQIECBAgQIAAAQIECBAgQIAAAQIECNSCgOBfLdwFdSBAgAABAgQIECBAgAABAgQIECBAgAABAgQIECBQBQHBvyogyoIAAQIECBAgQIAAAQIECBAgQIAAAQIECBAgQIBALQhMXwuVUAcCBJovcOaZZ0a+2mM65JBD4rDDDmuPVVdnAgQIECBAgAABAgQIECBAgAABAgQIECBQUwKCfzV1O1SGwLQLHHrooZGvlkrdu3ePUaNGtVT28iVAgAABAgQIECBAgAABAgQIEGhBgb59+7Zg7rImQIAAgVoSMO1nLd0NdSFAgAABAgQIECBAgAABAgQIECBAgEALCPTv378FcpUlAQIECFRboBqdNQT/qn1X5EeAAAECBAgQIECAAAECBAgQIECAAAECBAgQIEBgGgSq0VlD8G8a4F1CgAABAgQIECBAgAABAgQIECBAgAABAgQIECBAoBYFBP9q8a6oEwECBAgQIECAAAECBAgQIECAAAECBAgQIECAAIFpEBD8mwY0lxAgQIAAAQIECBAgQIAAAQIECBAgQKA9CQwePLg9VVddCRAgQKAZAoJ/zcBzKQECBAgQIECAAAECBAgQIECAAAECBNqDwKBBg9pDNdWRAAECnV6gGp01BP86/WMEgAABAgQIECBAgAABAgQIECBAgAABAgQIECBAoBYEqtFZQ/CvFu6kOhAgQIAAAQIECBAgQIBAiwlMmDAhhg8fHnvuuWf07NmzlLPGGmvEscceG6NGjWqxcmVMoDkC+WzmM5rPaibPbHM0J3/tuHHj4t///vfkT3CEAAECBAgQINAOBQT/2uFNU2UCBAgQIECAAAECBAgQaJxAfrG/7777xrnnnhvbbLNN3HXXXeXCIUOGxDzzzBNbbLFFDB06tHGZOYtAKwnkM7n55puXZ/Saa64ppXbGZ/aBBx6Ic845J55++ulJyn/44Yfl+I033jjJ443Zuf7668fpp59eTr3qqqtiww03jPx3ozFp5MiRceqpp8ZBBx0URx99dNx5552Nucw5BAgQIECAAIEWF5i+xUtQAAECBAgQIECAAAECBAgQaAOBHPF34IEHRrdu3eKiiy6K6ab7b//XxRZbrHxhv+2228Yuu+xSatenT582qKUiCUwskIG/s846K2655ZZYeOGF6w52hGf2oYceihEjRsQxxxxT164pbdx3332R017ldTfccMM3Ts1g3WmnnRZrrbVWbLfddt843tQd8847b6Rz165dp3rpZZddFkcddVQsuOCCseKKK8YLL7wQGQzcdNNNp3ptRzjh3XffLf+2doS2aAMBAgQIEOiIAoJ/HfGuahMBAgQIECBAgAABAgQIlCDDm2++Gb/97W8nCvzVp8ngytVXXx1bbbVVrL766tG9e/f6h20TaFWBnOrzV7/61TcCf/Ur0Z6f2WHDhsWjjz7a6OBftrtLly7x8MMPx/PPPx9LL710HUVO1XnppZc2KlBXd9FUNjbZZJPIV2PSGWecUc695JJLSh3zmtGjRzfm0g5xTgZcd9tttzjggANigQUW6BBt0ggCBAgQINCRBP7b7bEjtUpbCBAgQIAAAQIECBAgQKDTC2RQr2/fvjH99FPu95rBlN133z3OP//8Tm8GoG0FLrjggthjjz0mGvE3qRpV+5nNUbL530sGczL4ddhhh8WXX35Z1so8+OCDSyA9R8jefPPNpTrPPvts7LfffrHxxhuX0bVvv/122f/111+XgNxOO+0UG220UfTv3z9ef/31ciynx7znnnvijTfeiH79+sX1119f9o8ZMyaOPPLIMmIu257BwfopA34ZlM8gW/102223xb/+9a9Ye+216++O8ePHl6lAcyRvjgbMdmX7Kum6666LHXfcMfL4FVdcUdldfmdwMttbSffee2+ZNrh3796RbcppSDNlfl988UV8/vnndYG/3F8/CJbHclRiji7OsvLeVlJOP7zPPvvEj370o5L/n/70p8qhJpvXXdjKG9n+iy++ONZcc8047rjjOlXgs5WpFUeAAAECBKZJQPBvmthcRIAAAQIECBAgQIAAAQK1LvD444+X6QAbU88tt9wy7r777sac6hwCLSaQz2A+i41J1Xxmc726DMB997vfjZ133jnef//9+Oqrr+Lll18ua2Lm9JY9evSImWeeOf7+97+XtTIzAJbBuhdffDG23377EizMgFeur7naaqvF3nvvHU899VQZGZbtWWihhWLOOeeMmWaaKZZYYonIKTbHjh1b8nryySdj1113jVlnnbXk9corr9QR5HS9e+21V/z+97+PDz74oG5/TuWbQbW55pqrbl9uDBw4sEzzm2sm5mjebFcG/DJlsCqDexk8zdG+v/vd7+If//hHOZY/sr3Dhw+ve/+b3/ymTOuZbcn2Zj0yWJmjEbPtGQzMjgMvvfRS3TW5kaMS8/5ceeWVse6665Y2vvbaa+Wc3LfnnnuWtmZANYOs6VcJLDbVfKKC2+CNIGAboCuSAAECBAg0QmDK3R8bkYFTCBAgQIAAAQIECBAgMCmBM888M/IlEWgrgVlmmSXmm2++RhW/yCKLlMCCaT8bxeWkFhLIZzYDU41J1Xpmr7322rj88svjhBNOKAG7LDsDWpWUwZ0cwfaDH/yg7MoRa8stt1xceOGFZTrdHPm1zjrrlBF7vXr1Kuvzffvb3y7Bsk8++aTkmwGuDO7l1J05Mu/www8veeVovn/+859x6623lmBgjsjLkX833nhjHHHEEZUqlHU5cx3Ea665pgQTM7CfgcWsV07rW0m55l6umZgBtg033LDszpGG2cYddtihrKWYI/hyys5Mm222WQlUljeT+JGjBvOeZMo256jIDH6mRa5bmCP98v9z66+/fmlfjoDLtmewMduaI/yWXXbZupxzZOQpp5xSRh5mezKlddYjg6YZKMzUFPODDjoo3nnnnXJdW/6oBAFzbcbKqM62rI+yCRAgQIBAZxcQ/OvsT4D2EyBAgAABAgQIEGghgUMPPTTyJRFoDwI5NWiOYJIItBeBaj2zN910UwnUbb311pNsepZTf2rNnPLz448/jvXWW6+cX5lSM4NsGQjMEXl33nlnvPrqq/Hpp5+Wc8aNGxczzjjjN/LPvHKU3DbbbFN3LKfyzLU666ccMZij4y677LIy3WiO4FtjjTVihRVWqH9aZPAvUwbhcu3ETDlSL0csvvvuu/Hhhx+W6UjLgf/8yODdlAL+OU1pBhIzkJf5ZKq0KUf/5fSlObVojhDMdme9M2D49NNPx1JLLTVR4C+vzSBdwzpkPhk8zaBZJTXFPEdNtkVq6JYjOjPAm2sAduvWrS2qpEwCBAgQIECgnoDgXz0MmwQIECBAgAABAgQIECBAgACBziSQo/IyVYJ4DdueI9+6du1atzuDVausskoJ9NTt/M9Gjow755xzygi2k046qUy5maPzcmTa5FLmlaNzc1rR+mnBBRes/7Zs54jDDMRlcO2OO+6YaA29ysmZX6Ysc7bZZqvsLlONVtpZOady8LPPPqtsTvT74YcfLmsW5tqGOcovpyStjH6sf+Lcc88dxx9/fCkjR++99dZbJaA5Kc9K2TkCsH7K0ZAZoKykpphXrmmr34J+bSU/beXmOrgSAQIECHQOAcG/znGftZIAAQIECBAgQIAAAQIECBAg8A2BFVdcsezLKTUHDBhQtnM0Xo4+m1TKaSxfeOGFMvKvErB67733ShAvR7wtvfTSdYHBHA1XP+X6fZURdLl/mWWWKVN85hqA+cqUU4XOMMMMZbv+jyWXXLKU+ctf/rKsw5dTcDZMmV+mDKZVjufahTnabvbZZy9TcuYUo5VjDz744ET1qZ/f3/72t/I21wjMa3OEZCVl8O7ee+8tU4tWAnqV6UGzjT179iwj+XJUXgZKM2XwMYOa888/f5kWM6f6zHNzVGSuM1g5r1JG/d9TMq9/XmtuC/q1pnb1yurfv3/1MpMTAQIECLSYQDU6a0z6L7kWq7KMCRAgQIAAAQIECBAgQIAAAQIEakUgA2Z77rlnnHzyyfHEE0+UaTD/+Mc/xv333z/JKmYwrE+fPrHxxhuXte5yOs28Ll8Z9Mq17Pbff/8S7Go4JWVOhZnn5xdauU7ezjvvHJdeemlsueWWkdOOZoAspwzNdfsqwcD6lcjr7rvvvlLfSQUnl19++dhqq63KmoI5cm+uueaKDPDttddesccee8TPfvazsk7g+++/HwsttFCMGDGiBPbql1HZrgRFd9tttxLQrO+Ro/pyrb7FF188ssyPPvqolJPtyOkws11Dhgwp6wzmvkw5IjCn9jzxxBPjpz/9afz4xz+OlVZaqayRmKMPjzzyyErR3/g9JfNvnNxKOx555BHTe7aStWIIECBAoPMJVKOzhuBf53tutJgAAQIECBAgQIAAAQIECBAgUCeQgb+11lorMmD2+eeflyBZrtG32mqrlTXc6k78z0aus5cj1a6//vp4++234zvf+U4J9uU5AwcOLNNj5tp7GTzLoNWwYcPKlJh5fIcddiij8F555ZUSJMvRcnk81/J76aWXSiDujDPOiEUXXTRPjx/+8Id12/l+3XXXLUGyXXbZJd+WtPnmm5c6V96fd9555bzHH388xo4dWwKFuS5fpgMPPDB69OgRDzzwQMwzzzxlCtHczqBkpmxvBuYy9erVKwYPHhwZCM0gYk43mqP/cgRijtjLdQezjNGjR5cgYK53lwHRTDkq7pZbbomrrroqcl3DfJ9r4WXaYostYpFFFokcgZiB0G233baMlMzpQzM11bxc1AY/rOvXBuiKJECAAAECTRDosvLKK09o2BOrCdc7tYkC2QNs1KhRTbzK6QTaXsCz2/b3QA2aLuC5bbqZK9pewHPb9vdADZom4Jltmpeza0PAc1sb90EtGi/gmW28lTNrQ8AzWxv3QS2idDTwXWzneBL8u+M+dw6BxrUypxOfrnGnOosAAQIECBAgQIAAAQIECBAgQIAAAQIE2qtAjmaVCBAgQKBzCAj+dY77rJUECBAgQIAAAQIECBAgQIAAAQIECHRigUGDBnXi1ms6AQIE2o9ANTprCP61n/utpgQIECBAgAABAgQIECBAgAABAgQIECBAgAABAh1YoBqdNQT/OvADomkECBAgQIAAAQIECBAgQIAAAQIECBAgQIAAAQKdS0Dwr3Pdb60lQIAAAQIECBAgQIAAAQIECBAgQIAAAQIECBDowAKCfx345moaAQIECBAgQIAAAQIECBAgQIAAAQIECBAgQIBA5xIQ/Otc91trCRAgQIAAAQIECBAgQIAAAQIECBAgQIAAAQIEOrCA4F8HvrmaRoAAAQIECBAgQIAAAQIECBAgQIAAAQIECBAg0LkEBP861/3WWgIECBAgQIAAAQIECBAgQIAAAQIECBAgQIAAgQ4sIPjXgW+uphEgQIAAAQIECBAgQIAAAQIECBAgQIAAAQIECHQuAcG/znW/tZYAAQIECBAgQIAAAQIECBAgQIAAAQIECBAgQKADCwj+deCbq2kECBAgQIAAAQIECBAgQIAAAQIECBBIgb59+4IgQIAAgU4iIPjXSW60ZhIgQIAAAQIECBAgQIAAAQIECBAg0HkF+vfv33kbr+UECBBoRwLV6Kwh+NeObriqEiBAgAABAgQIECBAgAABAgQIECBAgAABAgQIdFyBanTWEPzruM+HlhEgQIAAAQIECBAgQIAAAQIECBAgQIAAAQIECHQyAcG/TnbDNZcAAQIECBAgQIAAAQIECBAgQIAAAQIECBAgQKDjCgj+ddx7q2UECBAgQIAAAQIECBAgQIAAAQIECBAoAoP/X3t3cDPEkQYBFEt7cwaEATGNNGfn4QB6ciImrzxHLFpYbv3iq3qHPZgx0PWql4Or1/s8JAgQIECgRMD4V1K0mAQIECBAgAABAgQIECBAgAABAgQI9AqstXrDS06AAIFBAiceaxj/BhXuqAQIECBAgAABAgQIECBAgAABAgQIECBAgAABArkCJx5rGP9y74dkBAgQIECAAAECBAgQIECAAAECBAgQIECAAAECZQLGv7LCxSVAgAABAgQIECBAgAABAgQIECBAgAABAgQIEMgVMP7ldisZAQIECBAgQIAAAQIECBAgQIAAAQIECBAgQIBAmYDxr6xwcQkQIECAAAECBAgQIECAAAECBAgQIECAAAECBHIFjH+53UpGgAABAgQIECBAgAABAgQIECBAgAABAgQIECBQJmD8KytcXAIECBAgQIAAAQIECBAgQIAAAQIECBAgQIAAgVwB419ut5IRIECAAAECBAgQIECAAAECBAgQIECAAAECBAiUCRj/ygoXlwABAgQIECBAgAABAgQIECBAgAABAgQIECBAIFfA+JfbrWQECBAgQIAAAQIECBAgQIAAAQIECBB4Ba7rIkGAAAECJQLGv5KixSRAgAABAgQIECBAgAABAgQIECBAoFfgvu/e8JITIEBgkMCJxxrGv0GFOyoBAgQIECBAgAABAgQIECBAgAABAgQIECBAgECuwInHGsa/3PshGQECBAgQIECAAAECBAgQIECAAAECBAgQIECAQJmA8a+scHEJECBAgAABAgQIECBAgAABAgQIECBAgAABAgRyBYx/ud1KRoAAAQIECBAgQIAAAQIECBAgQIAAgVfgeR4SBAgQIFAiYPwrKVpMAgQIECBAgAABAgQIECBAgAABAgR6BdZaveElJ0CAwCCBE481jH+DCndUAgQIECBAgAABAgQIECBAgAABAgQIECBAgACBXIETjzWMf7n3QzICBAgQIECAAAECBAgQIECAAAECBAgQIECAAIEyAeNfWeHiEiBAgAABAgQIECBAgAABAgQIECBAgAABAgQI5AoY/3K7lYwAAQIECBAgQIAAAQIECBAgQIAAAQIECBAgQKBMwPhXVri4BAgQIECAAAECBAgQIECAAAECBAgQIECAAAECuQLGv9xuJSNAgAABAgQIECBAgAABAgQIECBAgAABAgQIECgTMP6VFS4uAQIECBAgQIAAAQIECBAgQIAAAQIECBAgQIBAroDxL7dbyQgQIECAAAECBAgQIECAAAECBAgQIECAAAECBMoEjH9lhYtLgAABAgQIECBAgAABAgQIECBAgAABAgQIECCQK2D8y+1WMgIECBAgQIAAAQIECBAgQIAAAQIECLwC13WRIECAAIESAeNfSdFiEiBAgAABAgQIECBAgAABAgQIECDQK3Dfd294yQkQIDBI4MRjDePfoMIdlQABAgQIECBAgAABAgQIECBAgAABAgQIECBAIFfgxGMN41/u/ZCMAAECBAgQIECAAAECBAgQIECAAAECBAgQIECgTMD4V1a4uAQIECBAgAABAgQIECBAgAABAgQIECBAgAABArkCxr/cbiUjQIAAAQIECBAgQIAAAQIECBAgQIDAK/A8DwkCBAgQKBEw/pUULSYBAgQIECBAgAABAgQIECBAgAABAr0Ca63e8JITIEBgkMCJxxrGv0GFOyoBAgQIECBAgAABAgQIECBAgAABAgQIECBAgECuwInHGsa/3PshGQECBAgQIECAAAECBAgQIECAAAECBAgQIECAQJmA8a+scHEJECBAgAABAgQIECBAgAABAgQIECBAgAABAgRyBYx/ud1KRoAAAQIECBAgQIAAAQIECBAgQIAAAQIECBAgUCZg/CsrXFwCBAgQIECAAAECBAgQIECAAAECBAgQIECAAIFcAeNfbreSESBAgAABAgQIECBAgAABAgQIECBAgAABAgQIlAkY/8oKF5cAAQIECBAgQIAAAQIECBAgQIAAAQIECBAgQCBXwPiX261kBAgQIECAAAECBAgQIECAAAECBAgQIECAAAECZQLGv7LCxSVAgAABAgQIECBAgAABAgQIECBAgAABAgQIEMgVMP7ldisZAQIECBAgQIAAAQIECBAgQIAAAQIEXoHrukgQIECAQImA8a+kaDEJECBAgAABAgQIECBAgAABAgQIEOgVuO+7N7zkBAgQGCRw4rGG8W9Q4Y5KgAABAgQIECBAgAABAgQIECBAgAABAgQIECCQK3DisYbxL/d+SEaAAAECBAgQIECAAAECBAgQIECAAAECBAgQIFAmYPwrK1xcAgQIECBAgAABAgQIECBAgAABAgQIECBAgACBXAHjX263khEgQIAAAQIECBAgQIAAAQIECBAgQOAVeJ6HBAECBAiUCBj/SooWkwABAgQIECBAgAABAgQIECBAgACBXoG1Vm94yQkQIDBI4MRjDePfoMIdlQABAgQIECBAgAABAgQIECBAgAABAgQIECBAIFfgxGMN41/u/ZCMAAECBAgQIECAAAECBAgQIECAAAECBAgQIECgTMD4V1a4uAQIECBAgAABAgQIECBAgAABAgQIECBAgAABArkCxr/cbiUjQIAAAQIECBAgQIAAAQIECBAgQIAAAQIECBAoEzD+lRUuLgECBAgQIECAAAECBAgQIECAAAECBAgQIECAQK6A8S+3W8kIECBAgAABAgQIECBAgAABAgQIECBAgAABAgTKBIx/ZYWLS4AAAQIECBAgQIAAAQIECBAgQIAAAQIECBAgkCtg/MvtVjICBAgQIECAAAECBAgQIECAAAECBAgQIECAAIEyAeNfWeHiEiBAgAABAgQIECBAgAABAgQIECBAgAABAgQI5AoY/3K7lYwAAQIECBAgQIAAAQIECBAgQIAAAQKvwHVdJAgQIECgRMD4V1K0mAQIECBAgAABAgQIECBAgAABAgQI9Arc990bXnICBAgMEjjxWMP4N6hwRyVAgAABAgQIECBAgAABAgQIECBAgAABAgQIEMgVOPFYw/iXez8kI0CAAAECBAgQIECAAAECBAgQIECAAAECBAgQKBMw/pUVLi4BAgQIECBAgAABAgQIECBAgAABAgQIECBAgECugPEvt1vJCBAgQIAAAQIECBAgQIAAAQIECBAg8Ao8z0OCAAECBEoEjH8lRYtJgAABAgQIECBAgAABAgQIECBAgECvwFqrN7zkBAgQGCRw4rGG8W9Q4Y5KgAABAgQIECBAgAABAgQIECBAgAABAgQIECCQK3DisYbxL/d+SEaAAAECBAgQIECAAAECBAgQIECAAAECBAgQIFAmYPwrK1xcAgQIECBAgAABAgQIECBAgAABAgQIECBAgACBXAHjX263khEgQIAAAQIECBAgQIAAAQIECBAgQIAAAQIECJQJGP/KCheXAAECBAgQIECAAAECBAgQIECAAAECBAgQIEAgV8D4l9utZAQIECBAgAABAgQIECBAgAABAgQIECBAgAABAmUCxr+ywsUlQIAAAQIECBAgQIAAAQIECBAgQIAAAQIECBDIFTD+5XYrGQECBAgQIECAAAECBAgQIECAAAECBAgQIECAQJmA8a+scHEJECBAgAABAgQIECBAgAABAgQIECBAgAABAgRyBYx/ud1KRoAAAQIECBAgQIAAAQIECBAgQIAAgVfgui4SBAgQIFAiYPwrKVpMAgQIECBAgAABAgQIECBAgAABAgR6Be777g0vOQECBAYJnHisYfwbVLijEiBAgAABAgQIECBAgAABAgQIECBAgAABAgQI5AqceKxh/Mu9H5IRIECAAAECBAgQIECAAAECBAgQIECAAAECBAiUCRj/ygoXlwABAgQIECBAgAABAgQIECBAgAABAgQIECBAIFfA+JfbrWQECBAgQIAAAQIECBAgQIAAAQIECBB4BZ7nIUGAAAECJQLGv5KixSRAgAABAgQIECBAgAABAgQIECBAoFdgrdUbXnICBAgMEjjxWMP4N6hwRyVAgAABAgQIECBAgAABAgQIECBAgAABAgQIEMgVOPFYw/iXez8kI0CAAAECBAgQIECAAAECBAgQIECAAAECBAgQKBMw/pUVLi4BAgQIECBAgAABAgQIECBAgAABAgQIECBAgECugPEvt1vJCBAgQIAAAQIECBAgQIAAAQIECBAgQIAAAQIEygSMf2WFi0uAAAECBAgQIECAAAECBAgQIECAAAECBAgQIJArYPzL7VYyAgQIECBAgAABAgQIECBAgAABAgQIECBAgACBMgHjX1nh4hIgQIAAAQIECBAgQIAAAQIECBAgQIAAAQIECOQKGP9yu5WMAAECBAgQIECAAAECBAgQIECAAAECBAgQIECgTMD4V1a4uAQIECBAgAABAgQIECBAgAABAgQIECBAgAABArkCxr/cbiUjQIAAAQIECBAgQIAAAQIECBAgQIDAK3BdFwkCBAgQKBEw/pUULSYBAgQIECBAgAABAgQIECBAgAABAr0C9333hpecAAECgwROPNYw/g0q3FEJECBAgAABAgQIECBAgAABAgQIECBAgAABAgRyBU481jD+5d4PyQgQIECAAAECBAgQIECAAAECBAgQIECAAAECBMoEjH9lhYtLgAABAgQIECBAgAABAgQIECBAgAABAgQIECCQK2D8y+1WMgIECBAgQIAAAQIECBAgQIAAAQIECLwCz/OQIECAAIESAeNfSdFiEiBAgAABAgQIECBAgAABAgQIECDQK7DW6g0vOQECBAYJnHisYfwbVLijEiBAgAABAgQIECBAgAABAgQIECBAgAABAgQI5AqceKxh/Mu9H5IRIECAAAECBAgQIECAAAECBAgQIECAAAECBAiUCRj/ygoXlwABAgQIECBAgAABAgQIECBAgAABAgQIECBAIFfA+JfbrWQECBAgQIAAAQIECBAgQIAAAQIECBAgQIAAAQJlAsa/ssLFJUCAAAECBAgQIECAAAECBAgQIECAAAECBAgQyBUw/uV2KxkBAgQIECBAgAABAgQIECBAgAABAgQIECBAgECZgPGvrHBxCRAgQIAAAQIECBAgQIAAAQIECBAgQIAAAQIEcgWMf7ndSkaAAAECBAgQIECAAAECBAgQIECAAAECBAgQIFAmYPwrK1xcAgQIECBAgAABAgQIECBAgAABAgQIECBAgACBXAHjX263khEgQIAAAQIECBAgQIAAAQIECBAgQOAVuK6LBAECBAiUCBj/SooWkwABAgQIECBAgAABAgQIECBAgACBXoH7vnvDS06AAIFBAiceaxj/BhXuqAQIECBAgAABAgQIECBAgAABAgQIECBAgAABArkCJx5rGP9y74dkBAgQIECAAAECBAgQIECAAAECBAgQIECAAAECZQLGv7LCxSVAgAABAgQIECBAgAABAgQIECBAgAABAgQIEMgVMP7ldisZAQIECBAgQIAAAQIECBAgQIAAAQIEXoHneUgQIECAQImA8a+kaDEJECBAgAABAgQIECBAgAABAgQIEOgVWGv1hpecAAECgwROPNYw/g0q3FEJECBAgAABAgQIECBAgAABAgQIECBAgAABAgRyBU481jD+5d4PyQgQIECAAAECBAgQIECAAAECBAgQIECAAAECBMoEjH9lhYtLgAABAgQIECBAgAABAgQIECBAgAABAgQIECCQK2D8y+1WMgIECBAgQIAAAQIECBAgQIAAAQIECBAgQIAAgTIB419Z4eISIECAAAECBAgQIECAAAECBAgQIECAAAECBAjkChj/cruVjAABAgQIECBAgAABAgQIECBAgAABAgQIECBAoEzA+FdWuLgECBAgQIAAAQIECBAgQIAAAQIECBAgQIAAAQK5Asa/3G4lI0CAAAECBAgQIECAAAECBAgQIECAAAECBAgQKBMw/pUVLi4BAgQIECBAgAABAgQIECBAgAABAgQIECBAgECugPEvt1vJCBAgQIAAAQIECBAgQIAAAQIECBAg8Apc10WCAAECBEoEjH8lRYtJgAABAgQIECBAgAABAgQIECBAgECvwH3fveElJ0CAwCCBE481jH+DCndUAgQIECBAgAABAgQIECBAgAABAgQIECBAgACBXIETjzWMf7n3QzICBAgQIECAAAECBAgQIECAAAECBAgQIECAAIEyAeNfWeHiEiBAgAABAgQIECBAgAABAgQIECBAgAABAgQI5AoY/3K7lYwAAQIECBAgQIAAAQIECBAgQIAAAQKvwPM8JAgQIECgRMD4V1K0mAQIECBAgAABAgQIECBAgAABAgQI9AqstXrDS06AAIFBAiceaxj/BhXuqAQIECBAgAABAgQIECBAgAABAgQIECBAgAABArkCJx5rGP9y74dkBAgQIECAAAECBAgQIECAAAECBAgQIECAAAECZQLGv7LCxSVAgAABAgQIECBAgAABAgQIECBAgAABAgQIEMgVMP7ldisZAQIECBAgQIAAAQIECBAgQIAAAQIECBAgQIBAmYDxr6xwcQkQIECAAAECBAgQIECAAAECBAgQIECAAAECBHIFjH+53UpGgAABAgQIECBAgAABAgQIECBAgAABAgQIECBQJmD8KytcXAIECBAgQIAAAQIECBAgQIAAAQIECBAgQIAAgVwB419ut5IRIECAAAECBAgQIECAAAECBAgQIECAAAECBAiUCRj/ygoXlwABAgQIECBAgAABAgQIECBAgAABAgQIECBAIFfA+JfbrWQECBAgQIAAAQIECBAgQIAAAQIECBB4Ba7rIkGAAAECJQLGv5KixSRAgAABAgQIECBAgAABAgQIECBAoFfgvu/e8JITIEBgkMCJxxrGv0GFOyoBAgQIECBAgAABAgQIECBAgAABAgQIECBAgECuwInHGsa/3PshGQECBAgQIECAAAECBAgQIECAAAECBAgQIECAQJmA8a+scHEJECBAgAABAgQIECBAgAABAgQIECBAgAABAgRyBYx/ud1KRoAAAQIECBAgQIAAAQIECBAgQIAAgVfgeR4SBAgQIFAiYPwrKVpMAgQIECBAgAABAgQIECBAgAABAgR6BdZaveElJ0CAwCCBE481jH+DCndUAgQIECBAgAABAgQIECBAgAABAgQIECBAgACBXIETjzWMf7n3QzICBAgQIECAAAECBAgQIECAAAECBAgQIECAAIEyAeNfWeHiEiBAgAABAgQIECBAgAABAgQIECBAgAABAgQI5AoY/3K7lYwAAQIECBAgQIAAAQIECBAgQIAAAQIECBAgQKBMwPhXVri4BAgQIECAAAECBAgQIECAAAECBAgQIECAAAECuQLGv9xuJSNAgAABAgQIECBAgAABAgQIECBAgAABAgQIECgTMP6VFS4uAQIECBAgQIAAAQIECBAgQIAAAQIECBAgQIBAroDxL7dbyQgQIECAAAECBAgQIECAAAECBAgQIECAAAECBMoEjH9lhYtLgAABAgQIECBAgAABAgQIECBAgAABAgQIECCQK2D8y+1WMgIECBAgQIAAAQIECBAgQIAAAQIECLwC13WRIECAAIESAeNfSdFiEiBAgAABAgQIECBAgAABAgQIECDQK3Dfd294yQkQIDBI4MRjDePfoMIdlQABAgQIECBAgAABAgQIECBAgAABAgQIECBAIFfgxGMN41/u/ZCMAAECBAgQIECAAAECBAgQIECAAAECBAgQIECgTMD4V1a4uAQIECBAgAABAgQIECBAgAABAgQIECBAgAABArkCxr/cbiUjQIAAAQIECBAgQIAAAQIECBAgQIDAK/A8DwkCBAgQKBEw/pUULSYBAgQIECBAgAABAgQIECBAgAABAr0Ca63e8JITIEBgkMCJxxrGv0GFOyoBAgQIECBAgAABAgQIECBAgAABAgQIECBAgECuwInHGsa/3PshGQECBAgQIECAAAECBAgQIECAAAECBAgQIECAQJmA8a+scHEJECBAgAABAgQIECBAgAABAgQIECBAgAABAgRyBYx/ud1KRoAAAQIECBAgQIAAAQIECBAgQIAAAQIECBAgUCZg/CsrXFwCBAgQIECAAAECBAgQIECAAAECBAgQIECAAIFcAeNfbreSESBAgAABAgQIECBAgAABAgQIECBAgAABAgQIlAkY/8oKF5cAAQIECBAgQIAAAQIECBAgQIAAAQIECBAgQCBXwPiX261kBAgQIECAAAECBAgQIECAAAECBAgQIECAAAECZQLGv7LCxSVAgAABAgQIECBAgAABAgQIECBAgAABAgQIEMgVMP7ldisZAQIECBAgQIAAAQIECBAgQIAAAQIEXoHrukgQIECAQImA8a+kaDEJECBAgAABAgQIECBAgAABAgQIEOgVuO+7N7zkBAgQGCRw4rGG8W9Q4Y5KgAABAgQIECBAgAABAgQIECBAgAABAgQIECCQK3DisYbxL/d+SEaAAAECBAgQIECAAAECBAgQIECAAAECBAgQIFAmYPwrK1xcAgQIECBAgAABAgQIECBAgAABAgQIECBAgACBXAHjX263khEgQIAAAQIECBAgQIAAAQIECBAgQOAVeJ6HBAECBAiUCBj/SooWkwABAgQIECBAgAABAgQIECBAgACBXoG1Vm94yQkQIDBI4MRjDePfoMIdlQABAgQIECBAgAABAgQIECBAgAABAgQIECBAIFfgxGMN41/u/ZCMAAECBAgQIECAAAECBAgQIECAAAECBAgQIECgTMD4V1a4uAQIECBAgAABAgQIECBAgAABAgQIECBAgAABArkCxr/cbiUjQIAAAQIECBAgQIAAAQIECBAgQIAAAQIECBAoEzD+lRUuLgECBAgQIECAAAECBAgQIECAAAECBAgQIECAQK6A8S+3W8kIECBAgAABAgQIECBAgAABAgQIECBAgAABAgTKBIx/ZYWLS4AAAQIECBAgQIAAAQIECBAgQIAAAQIECBAgkCtg/MvtVjICBAgQIECAAAECBAgQIECAAAECBAgQIECAAIEyAeNfWeHiEiBAgAABAgQIECBAgAABAgQIECBAgAABAgQI5AoY/3K7lYwAAQIECBAgQIAAAQIECBAgQIAAAQKvwHVdJAgQIECgRMD4V1K0mAQIECBAgAABAgQIECBAgAABAgQI9Arc990bXnICBAgMEjjxWMP4N6hwRyVAgAABAgQIECBAgAABAgQIECBAgAABAgQIEMgVOPFYw/iXez8kI0CAAAECBAgQIECAAAECBAgQIECAAAECBAgQKBMw/pUVLi4BAgQIECBAgAABAgQIECBAgAABAgQIECBAgECugPEvt1vJCBAgQIAAAQIECBAgQIAAAQIECBAg8Ao8z0OCAAECBEoEjH8lRYtJgAABAgQIECBAgAABAgQIECBAgECvwFqrN7zkBAgQGCRw4rGG8W9Q4Y5KgAABAgQIECBAgAABAgQIECBAgAABAgQIECCQK3DisYbxL/d+SEaAAAECBAgQIECAAAECBAgQIECAAAECBAgQIFAmYPwrK1xcAgQIECBAgAABAgQIECBAgAABAgQIECBAgACBXAHjX263khEgQIAAAQIECBAgQIAAAQIECBAgQIAAAQIECJQJGP/KCheXAAECBAgQIECAAAECBAgQIECAAAECBAgQIEAgV8D4l9utZAQIECBAgAABAgQIECBAgAABAgQIECBAgAABAmUCxr+ywsUlQIAAAQIECBAgQIAAAQIECBAgQIAAAQIECBDIFTD+5XYrGQECBAgQIECAAAECBAgQIECAAAECBAgQIECAQJmA8a+scHEJECBAgAABAgQIECBAgAABAgQIECBAgAABAgRyBYx/ud1KRoAAAQIECBAgQIAAAQIECBAgQIAAgVfgui4SBAgQIFAiYPwrKVpMAgQIECBAgAABAgQIECBAgAABAgR6Be777g0vOQECBAYJnHisYfwbVLijEiBAgAABAgQIECBAgAABAgQIECBAgAABAgQI5AqceKxh/Mu9H5IRIECAAAECBAgQIECAAAECBAgQIECAAAECBAiUCRj/ygoXlwABAgQIECBAgAABAgQIECBAgAABAgQIECBAIFfA+JfbrWQECBAgQIAAAQIECBAgQIAAAQIECBB4BZ7nIUGAAAECJQLGv5KixSRAgAABAgQIECBAgAABAgQIECBAoFdgrdUbXnICBAgMEjjxWMP4N6hwRyVAgAABAgQIECBAgAABAgQIECBAgAABAgQIEMgVOPFYw/iXez8kI0CAAAECBAgQIECAAAECBAgQIECAAAECBAgQKBMw/pUVLi4BAgQIECBAgAABAgQIECBAgAABAgQIECBAgECugPEvt1vJCBAgQIAAAQIECBAgQIAAAQIECBAgQIAAAQIEygSMf2WFi0uAAAECBAgQIECAAAECBAgQIECAAAECBAgQIJArYPzL7VYyAgQIECBAgAABAgQIECBAgAABAgQIECBAgACBMgHjX1nh4hIgQIAAAQIECBAgQIAAAQIECBAgQIAAAQIECOQKGP8+uNs//vjjg39Hvx2BMwLu7hlHv8rHCri3H+vtdzsj4N6ecfSrfJyAO/tx1n6ncwLu7TlLv9LHCLizH+Psdzkn4M6es/Qr/TcBd/G/+U362bqe1Na/O+uff/756fPnz+9/fv/993/3k4v/7t++fPny17dv34oJRCdAgAABAgQIECBAgAABAgQIECBAgEC2wNevXz/558DZHUtHgECGwH/98/rvn+9/+ZdxF6QgQIAAAQIECBAgQIAAAQIECBAgQIDADwU80Fv/AAALmUlEQVSu6/rhNx8IECBAIEvA+JfVpzQECBAgQIAAAQIECBAgQIAAAQIECBD4h8B93//4MT9AgAABAr+ewInHGsa/X69XJyJAgAABAgQIECBAgAABAgQIECBAgAABAgQIECgUOPFYw/hXeHFEJkCAAAECBAgQIECAAAECBAgQIECAAAECBAgQyBQw/mX2KhUBAgQIECBAgAABAgQIECBAgAABAgQIECBAgEChgPGvsHSRCRAgQIAAAQIECBAgQIAAAQIECBDoEniepyuwtAQIECgWMP4Vly86AQIECBAgQIAAAQIECBAgQIAAAQIdAmutjqBSEiBAYLjAiccaxr/hl8DxCRAgQIAAAQIECBAgQIAAAQIECBAgQIAAAQIEMgROPNYw/mXcBSkIECBAgAABAgQIECBAgAABAgQIECBAgAABAgQIfDL+uQQECBAgQIAAAQIECBAgQIAAAQIECBAgQIAAAQIEQgSMfyFFikGAAAECBAgQIECAAAECBAgQIECAAAECBAgQIEDA+OcOECBAgAABAgQIECBAgAABAgQIECBAgAABAgQIEAgRMP6FFCkGAQIECBAgQIAAAQIECBAgQIAAAQIECBAgQIAAAeOfO0CAAAECBAgQIECAAAECBAgQIECAAAECBAgQIEAgRMD4F1KkGAQIECBAgAABAgQIECBAgAABAgQIECBAgAABAgSMf+4AAQIECBAgQIAAAQIECBAgQIAAAQIECBAgQIAAgRAB419IkWIQIECAAAECBAgQIECAAAECBAgQIEDgRwLXdf3okx8nQIAAgTAB419YoeIQIECAAAECBAgQIECAAAECBAgQIEDge4H7vr//IX9NgAABAr+gwInHGsa/X7BYRyJAgAABAgQIECBAgAABAgQIECBAgAABAgQIEOgTOPFYw/jXd28kJkCAAAECBAgQIECAAAECBAgQIECAAAECBAgQCBUw/oUWKxYBAgQIECBAgAABAgQIECBAgAABAgQIECBAgECfwP/6IktMgAABAgQIECBAgAABAgQIECBAgACBLoHneT6ttX4q9N//f1Pf/2vn/Hx+7o///vzMHyD+/Dj/5+fPuH//9/z25cuXv759+/b9j/trAgQIECBAgAABAgQIECBAgAABAgQIECBAgAABAgQGCXz9+vWTf+3noMIclQABAgQIECBAgAABAgQIECBAgAABAgQIECBAgMBOwPi30/GNAAECBAgQIECAAAECBAgQIECAAAECBAgQIECAwCAB49+gshyVAAECBAgQIECAAAECBAgQIECAAAECBAgQIECAwE7A+LfT8Y0AAQIECBAgQIAAAQIECBAgQIAAAQIECBAgQIDAIAHj36CyHJUAAQIECBAgQIAAAQIECBAgQIAAAQIECBAgQIDATsD4t9PxjQABAgQIECBAgAABAgQIECBAgAABAgQIECBAgMAgAePfoLIclQABAgQIECBAgAABAgQIECBAgAABAgQIECBAgMBOwPi30/GNAAECBAgQIECAAAECBAgQIECAAAECBAgQIECAwCAB49+gshyVAAECBAgQIECAAAECBAgQIECAAAECBAgQIECAwE7A+LfT8Y0AAQIECBAgQIAAAQIECBAgQIAAAQIECBAgQIDAIAHj36CyHJUAAQIECBAgQIAAAQIECBAgQIAAAQIECBAgQIDATsD4t9PxjQABAgQIECBAgAABAgQIECBAgAABAgQIECBAgMAgAePfoLIclQABAgQIECBAgAABAgQIECBAgAABAgQIECBAgMBOwPi30/GNAAECBAgQIECAAAECBAgQIECAAAECBAgQIECAwCAB49+gshyVAAECBAgQIECAAAECBAgQIECAAAECBAgQIECAwE7A+LfT8Y0AAQIECBAgQIAAAQIECBAgQIAAAQIECBAgQIDAIAHj36CyHJUAAQIECBAgQIAAAQIECBAgQIAAAQIECBAgQIDATsD4t9PxjQABAgQIECBAgAABAgQIECBAgAABAgQIECBAgMAgAePfoLIclQABAgQIECBAgAABAgQIECBAgAABAgQIECBAgMBOwPi30/GNAAECBAgQIECAAAECBAgQIECAAAECBAgQIECAwCAB49+gshyVAAECBAgQIECAAAECBAgQIECAAAECBAgQIECAwE7A+LfT8Y0AAQIECBAgQIAAAQIECBAgQIAAAQIECBAgQIDAIAHj36CyHJUAAQIECBAgQIAAAQIECBAgQIAAAQIECBAgQIDATsD4t9PxjQABAgQIECBAgAABAgQIECBAgAABAgQIECBAgMAgAePfoLIclQABAgQIECBAgAABAgQIECBAgAABAgQIECBAgMBOwPi30/GNAAECBAgQIECAAAECBAgQIECAAAECBAgQIECAwCAB49+gshyVAAECBAgQIECAAAECBAgQIECAAAECBAgQIECAwE7A+LfT8Y0AAQIECBAgQIAAAQIECBAgQIAAAQIECBAgQIDAIAHj36CyHJUAAQIECBAgQIAAAQIECBAgQIAAAQIECBAgQIDATsD4t9PxjQABAgQIECBAgAABAgQIECBAgAABAgQIECBAgMAgAePfoLIclQABAgQIECBAgAABAgQIECBAgAABAgQIECBAgMBOwPi30/GNAAECBAgQIECAAAECBAgQIECAAAECBAgQIECAwCAB49+gshyVAAECBAgQIECAAAECBAgQIECAAAECBAgQIECAwE7A+LfT8Y0AAQIECBAgQIAAAQIECBAgQIAAAQIECBAgQIDAIAHj36CyHJUAAQIECBAgQIAAAQIECBAgQIAAAQIECBAgQIDATsD4t9PxjQABAgQIECBAgAABAgQIECBAgAABAgQIECBAgMAgAePfoLIclQABAgQIECBAgAABAgQIECBAgAABAgQIECBAgMBOwPi30/GNAAECBAgQIECAAAECBAgQIECAAAECBAgQIECAwCAB49+gshyVAAECBAgQIECAAAECBAgQIECAAAECBAgQIECAwE7A+LfT8Y0AAQIECBAgQIAAAQIECBAgQIAAAQIECBAgQIDAIAHj36CyHJUAAQIECBAgQIAAAQIECBAgQIAAAQIECBAgQIDATsD4t9PxjQABAgQIECBAgAABAgQIECBAgAABAgQIECBAgMAgAePfoLIclQABAgQIECBAgAABAgQIECBAgAABAgQIECBAgMBOwPi30/GNAAECBAgQIECAAAECBAgQIECAAAECBAgQIECAwCAB49+gshyVAAECBAgQIECAAAECBAgQIECAAAECBAgQIECAwE7A+LfT8Y0AAQIECBAgQIAAAQIECBAgQIAAAQIECBAgQIDAIAHj36CyHJUAAQIECBAgQIAAAQIECBAgQIAAAQIECBAgQIDATsD4t9PxjQABAgQIECBAgAABAgQIECBAgAABAgQIECBAgMAgAePfoLIclQABAgQIECBAgAABAgQIECBAgAABAgQIECBAgMBOwPi30/GNAAECBAgQIECAAAECBAgQIECAAAECBAgQIECAwCAB49+gshyVAAECBAgQIECAAAECBAgQIECAAAECBAgQIECAwE7A+LfT8Y0AAQIECBAgQIAAAQIECBAgQIAAAQIECBAgQIDAIAHj36CyHJUAAQIECBAgQIAAAQIECBAgQIAAAQIECBAgQIDATsD4t9PxjQABAgQIECBAgAABAgQIECBAgAABAgQIECBAgMAgAePfoLIclQABAgQIECBAgAABAgQIECBAgAABAgQIECBAgMBOwPi30/GNAAECBAgQIECAAAECBAgQIECAAAECBAgQIECAwCAB49+gshyVAAECBAgQIECAAAECBAgQIECAAAECBAgQIECAwE7A+LfT8Y0AAQIECBAgQIAAAQIECBAgQIAAAQIECBAgQIDAIAHj36CyHJUAAQIECBAgQIAAAQIECBAgQIAAAQIECBAgQIDATuD/lBrz1+k39SQAAAAASUVORK5CYII=;" vertex="1" parent="1">
          <mxGeometry x="-610" y="380" width="1791" height="1083" as="geometry" />
        </mxCell>
        <mxCell id="_O8IFR58VVRksWFW_hs8-39" value="" style="rounded=0;whiteSpace=wrap;html=1;strokeColor=#FFFFFF;" vertex="1" parent="1">
          <mxGeometry x="1170" y="380" width="50" height="1083" as="geometry" />
        </mxCell>
        <mxCell id="_O8IFR58VVRksWFW_hs8-4" value="" style="endArrow=classic;html=1;rounded=0;" edge="1" parent="1">
          <mxGeometry width="50" height="50" relative="1" as="geometry">
            <mxPoint x="350" y="1080" as="sourcePoint" />
            <mxPoint x="860" y="1080" as="targetPoint" />
          </mxGeometry>
        </mxCell>
        <mxCell id="_O8IFR58VVRksWFW_hs8-5" value="create c++ streamIn" style="edgeLabel;html=1;align=center;verticalAlign=middle;resizable=0;points=[];" vertex="1" connectable="0" parent="_O8IFR58VVRksWFW_hs8-4">
          <mxGeometry x="0.6118" y="1" relative="1" as="geometry">
            <mxPoint as="offset" />
          </mxGeometry>
        </mxCell>
        <mxCell id="_O8IFR58VVRksWFW_hs8-6" value="" style="endArrow=classic;html=1;rounded=0;" edge="1" parent="1">
          <mxGeometry width="50" height="50" relative="1" as="geometry">
            <mxPoint x="520" y="1110" as="sourcePoint" />
            <mxPoint x="980" y="1110" as="targetPoint" />
          </mxGeometry>
        </mxCell>
        <mxCell id="_O8IFR58VVRksWFW_hs8-7" value="create c++ decoder" style="edgeLabel;html=1;align=center;verticalAlign=middle;resizable=0;points=[];" vertex="1" connectable="0" parent="_O8IFR58VVRksWFW_hs8-6">
          <mxGeometry x="0.6118" y="1" relative="1" as="geometry">
            <mxPoint as="offset" />
          </mxGeometry>
        </mxCell>
        <mxCell id="_O8IFR58VVRksWFW_hs8-8" value="" style="endArrow=classic;html=1;rounded=0;" edge="1" parent="1">
          <mxGeometry width="50" height="50" relative="1" as="geometry">
            <mxPoint x="700" y="1150" as="sourcePoint" />
            <mxPoint x="1100" y="1150" as="targetPoint" />
          </mxGeometry>
        </mxCell>
        <mxCell id="_O8IFR58VVRksWFW_hs8-9" value="create c++ mediascore" style="edgeLabel;html=1;align=center;verticalAlign=middle;resizable=0;points=[];" vertex="1" connectable="0" parent="_O8IFR58VVRksWFW_hs8-8">
          <mxGeometry x="0.6118" y="1" relative="1" as="geometry">
            <mxPoint as="offset" />
          </mxGeometry>
        </mxCell>
        <mxCell id="_O8IFR58VVRksWFW_hs8-10" value="" style="endArrow=classic;html=1;rounded=0;" edge="1" parent="1">
          <mxGeometry width="50" height="50" relative="1" as="geometry">
            <mxPoint x="350" y="1180" as="sourcePoint" />
            <mxPoint x="520" y="1180" as="targetPoint" />
          </mxGeometry>
        </mxCell>
        <mxCell id="_O8IFR58VVRksWFW_hs8-12" value="add dest" style="edgeLabel;html=1;align=center;verticalAlign=middle;resizable=0;points=[];" vertex="1" connectable="0" parent="_O8IFR58VVRksWFW_hs8-10">
          <mxGeometry x="-0.0118" y="1" relative="1" as="geometry">
            <mxPoint as="offset" />
          </mxGeometry>
        </mxCell>
        <mxCell id="_O8IFR58VVRksWFW_hs8-16" value="" style="endArrow=classic;html=1;rounded=0;" edge="1" parent="1">
          <mxGeometry width="50" height="50" relative="1" as="geometry">
            <mxPoint x="350" y="1200" as="sourcePoint" />
            <mxPoint x="860" y="1200" as="targetPoint" />
          </mxGeometry>
        </mxCell>
        <mxCell id="_O8IFR58VVRksWFW_hs8-17" value="add dest" style="edgeLabel;html=1;align=center;verticalAlign=middle;resizable=0;points=[];" vertex="1" connectable="0" parent="_O8IFR58VVRksWFW_hs8-16">
          <mxGeometry x="-0.0118" y="1" relative="1" as="geometry">
            <mxPoint as="offset" />
          </mxGeometry>
        </mxCell>
        <mxCell id="_O8IFR58VVRksWFW_hs8-18" value="" style="endArrow=classic;html=1;rounded=0;" edge="1" parent="1">
          <mxGeometry width="50" height="50" relative="1" as="geometry">
            <mxPoint x="530" y="1230" as="sourcePoint" />
            <mxPoint x="700" y="1230" as="targetPoint" />
          </mxGeometry>
        </mxCell>
        <mxCell id="_O8IFR58VVRksWFW_hs8-19" value="add dest" style="edgeLabel;html=1;align=center;verticalAlign=middle;resizable=0;points=[];" vertex="1" connectable="0" parent="_O8IFR58VVRksWFW_hs8-18">
          <mxGeometry x="-0.0118" y="1" relative="1" as="geometry">
            <mxPoint as="offset" />
          </mxGeometry>
        </mxCell>
        <mxCell id="_O8IFR58VVRksWFW_hs8-20" value="" style="endArrow=classic;html=1;rounded=0;" edge="1" parent="1">
          <mxGeometry width="50" height="50" relative="1" as="geometry">
            <mxPoint x="540" y="1250" as="sourcePoint" />
            <mxPoint x="980" y="1250" as="targetPoint" />
          </mxGeometry>
        </mxCell>
        <mxCell id="_O8IFR58VVRksWFW_hs8-21" value="add dest" style="edgeLabel;html=1;align=center;verticalAlign=middle;resizable=0;points=[];" vertex="1" connectable="0" parent="_O8IFR58VVRksWFW_hs8-20">
          <mxGeometry x="-0.0118" y="1" relative="1" as="geometry">
            <mxPoint as="offset" />
          </mxGeometry>
        </mxCell>
        <mxCell id="_O8IFR58VVRksWFW_hs8-22" value="" style="endArrow=classic;html=1;rounded=0;" edge="1" parent="1">
          <mxGeometry width="50" height="50" relative="1" as="geometry">
            <mxPoint x="350" y="1280" as="sourcePoint" />
            <mxPoint x="860" y="1280" as="targetPoint" />
          </mxGeometry>
        </mxCell>
        <mxCell id="_O8IFR58VVRksWFW_hs8-23" value="start" style="edgeLabel;html=1;align=center;verticalAlign=middle;resizable=0;points=[];" vertex="1" connectable="0" parent="_O8IFR58VVRksWFW_hs8-22">
          <mxGeometry x="-0.0118" y="1" relative="1" as="geometry">
            <mxPoint as="offset" />
          </mxGeometry>
        </mxCell>
        <mxCell id="_O8IFR58VVRksWFW_hs8-24" value="" style="endArrow=classic;html=1;rounded=0;" edge="1" parent="1">
          <mxGeometry width="50" height="50" relative="1" as="geometry">
            <mxPoint x="1110" y="1300" as="sourcePoint" />
            <mxPoint x="350" y="1300" as="targetPoint" />
          </mxGeometry>
        </mxCell>
        <mxCell id="_O8IFR58VVRksWFW_hs8-25" value="result" style="edgeLabel;html=1;align=center;verticalAlign=middle;resizable=0;points=[];" vertex="1" connectable="0" parent="_O8IFR58VVRksWFW_hs8-24">
          <mxGeometry x="-0.0118" y="1" relative="1" as="geometry">
            <mxPoint as="offset" />
          </mxGeometry>
        </mxCell>
        <mxCell id="_O8IFR58VVRksWFW_hs8-26" value="" style="endArrow=classic;html=1;rounded=0;" edge="1" parent="1">
          <mxGeometry width="50" height="50" relative="1" as="geometry">
            <mxPoint x="350" y="1330" as="sourcePoint" />
            <mxPoint x="180" y="1330" as="targetPoint" />
          </mxGeometry>
        </mxCell>
        <mxCell id="_O8IFR58VVRksWFW_hs8-27" value="trigger" style="edgeLabel;html=1;align=center;verticalAlign=middle;resizable=0;points=[];" vertex="1" connectable="0" parent="_O8IFR58VVRksWFW_hs8-26">
          <mxGeometry x="-0.0118" y="1" relative="1" as="geometry">
            <mxPoint as="offset" />
          </mxGeometry>
        </mxCell>
        <mxCell id="_O8IFR58VVRksWFW_hs8-28" value="" style="endArrow=classic;html=1;rounded=0;" edge="1" parent="1">
          <mxGeometry width="50" height="50" relative="1" as="geometry">
            <mxPoint x="350" y="1370" as="sourcePoint" />
            <mxPoint x="-340" y="1370" as="targetPoint" />
            <Array as="points" />
          </mxGeometry>
        </mxCell>
        <mxCell id="_O8IFR58VVRksWFW_hs8-30" value="stop" style="edgeLabel;html=1;align=center;verticalAlign=middle;resizable=0;points=[];" vertex="1" connectable="0" parent="_O8IFR58VVRksWFW_hs8-28">
          <mxGeometry x="0.913" y="-1" relative="1" as="geometry">
            <mxPoint as="offset" />
          </mxGeometry>
        </mxCell>
        <mxCell id="_O8IFR58VVRksWFW_hs8-31" value="" style="rounded=0;whiteSpace=wrap;html=1;" vertex="1" parent="1">
          <mxGeometry x="370" y="1010" width="120" height="60" as="geometry" />
        </mxCell>
        <mxCell id="_O8IFR58VVRksWFW_hs8-33" value="&lt;p style=&quot;line-height: 1 ; font-size: 30px&quot;&gt;Mysql&lt;/p&gt;" style="rounded=0;whiteSpace=wrap;html=1;strokeColor=#000000;dashed=1;" vertex="1" parent="1">
          <mxGeometry x="1260" y="400" width="130" height="990" as="geometry" />
        </mxCell>
        <mxCell id="_O8IFR58VVRksWFW_hs8-35" value="" style="endArrow=classic;html=1;rounded=0;entryX=0.008;entryY=0.96;entryDx=0;entryDy=0;entryPerimeter=0;" edge="1" parent="1" target="_O8IFR58VVRksWFW_hs8-33">
          <mxGeometry width="50" height="50" relative="1" as="geometry">
            <mxPoint x="180" y="1350" as="sourcePoint" />
            <mxPoint x="690" y="1350" as="targetPoint" />
          </mxGeometry>
        </mxCell>
        <mxCell id="_O8IFR58VVRksWFW_hs8-37" value="insert mysql" style="edgeLabel;html=1;align=center;verticalAlign=middle;resizable=0;points=[];" vertex="1" connectable="0" parent="_O8IFR58VVRksWFW_hs8-35">
          <mxGeometry x="0.9037" y="-1" relative="1" as="geometry">
            <mxPoint as="offset" />
          </mxGeometry>
        </mxCell>
        <mxCell id="_O8IFR58VVRksWFW_hs8-41" value="" style="rounded=0;whiteSpace=wrap;html=1;strokeColor=#FFFFFF;" vertex="1" parent="1">
          <mxGeometry x="-650" y="380" width="50" height="1083" as="geometry" />
        </mxCell>
        <mxCell id="_O8IFR58VVRksWFW_hs8-42" value="" style="rounded=0;whiteSpace=wrap;html=1;strokeColor=#FFFFFF;" vertex="1" parent="1">
          <mxGeometry x="-650" y="80" width="2270" height="310" as="geometry" />
        </mxCell>
        <mxCell id="_O8IFR58VVRksWFW_hs8-44" value="" style="rounded=0;whiteSpace=wrap;html=1;fontSize=30;strokeColor=default;gradientColor=#ffffff;glass=0;fillColor=none;" vertex="1" parent="1">
          <mxGeometry x="-600" y="370" width="2020" height="1070" as="geometry" />
        </mxCell>
      </root>
    </mxGraphModel>
  </diagram>
</mxfile>
